<svg height="30px" width="30px" xmlns="http://www.w3.org/2000/svg" viewBox="0 0 36 36"><defs><style>.cls-1{fill:none;stroke:#000;stroke-miterlimit:10;}</style></defs><g id="Layer_2" data-name="Layer 2"><path d="M19.76,15.17h-4a1,1,0,0,0-1,1v4a1,1,0,0,0,1,1.05h4a1,1,0,0,0,1-1.05v-4A1,1,0,0,0,19.76,15.17Zm-4.77,1a.78.78,0,0,1,.78-.78h4a.78.78,0,0,1,.78.78v2.13H15Zm5.55,4a.77.77,0,0,1-.78.77h-4a.77.77,0,0,1-.78-.77V19.8h5.55Z"/><rect class="cls-1" x="1.99" y="12.19" width="32.01" height="11.63" rx="2.55"/></g></svg>