<svg height="30px" width="30px" id="SvgjsSvg1022" xmlns="http://www.w3.org/2000/svg" version="1.1" xmlns:xlink="http://www.w3.org/1999/xlink" xmlns:svgjs="http://svgjs.com/svgjs"><defs id="SvgjsDefs1023"></defs><g id="SvgjsG1024"><svg xmlns="http://www.w3.org/2000/svg" viewBox="0 0 36 36"><g data-name="Layer 2" fill="#0d0d82" class="color000 svgShape"><path d="M24,12a6,6,0,1,0,6,6A6,6,0,0,0,24,12Zm3.21,7.93A1.27,1.27,0,0,1,26,21.21H22.08a1.27,1.27,0,0,1-1.28-1.27V16.06a1.27,1.27,0,0,1,1.28-1.27H26a1.27,1.27,0,0,1,1.27,1.27Z" fill="#0d0d82" class="color000 svgShape"></path><path d="M25.85,15.19H22.17a1,1,0,0,0-1,1v3.68a1,1,0,0,0,1,1h3.68a1,1,0,0,0,1-1V16.16A1,1,0,0,0,25.85,15.19Zm-4.39,1a.71.71,0,0,1,.71-.71h3.68a.71.71,0,0,1,.71.71v2h-5.1Zm5.1,3.68a.71.71,0,0,1-.71.71H22.17a.71.71,0,0,1-.71-.71v-.38h5.1Z" fill="#0d0d82" class="color000 svgShape"></path><rect width="17.93" height="1.33" x="1.85" y="17.33" fill="#0d0d82" class="color000 svgShape"></rect><path fill="none" stroke="#0d0d82" stroke-miterlimit="10" d="M24,7.84a10.16,10.16,0,0,1,0,20.32" class="colorStroke000 svgStroke"></path></g></svg></g></svg>