<svg version="1.2" baseProfile="tiny-ps" xmlns="http://www.w3.org/2000/svg" viewBox="0 0 506 449" width="32" height="28">
	<title>right-arrow-svg</title>
	<style>
		tspan { white-space:pre }
		.shp0 { fill: #000000 } 
	</style>
	<g id="Layer">
		<g id="Layer">
			<path id="Layer" class="shp0" d="M502.04 217.21L288.53 4.41C285.48 1.38 280.94 0.51 276.9 2.11C272.92 3.77 270.33 7.65 270.33 11.96L270.33 129.3L3.67 129.3C-2.22 129.3 -7 134.08 -7 139.96L-7 310.63C-7 316.52 -2.22 321.3 3.67 321.3L270.33 321.3L270.33 438.18C270.33 442.49 272.94 446.37 276.93 448.04C278.25 448.59 279.63 448.85 281 448.85C283.77 448.85 286.5 447.76 288.55 445.73L502.06 232.32C504.06 230.31 505.17 227.6 505.17 224.76C505.17 221.93 504.04 219.22 502.04 217.21Z" />
		</g>
	</g>
	<g id="Layer">
	</g>
	<g id="Layer">
	</g>
	<g id="Layer">
	</g>
	<g id="Layer">
	</g>
	<g id="Layer">
	</g>
	<g id="Layer">
	</g>
	<g id="Layer">
	</g>
	<g id="Layer">
	</g>
	<g id="Layer">
	</g>
	<g id="Layer">
	</g>
	<g id="Layer">
	</g>
	<g id="Layer">
	</g>
	<g id="Layer">
	</g>
	<g id="Layer">
	</g>
	<g id="Layer">
	</g>
</svg>