<svg height="30px" width="30px" xmlns="http://www.w3.org/2000/svg" viewBox="0 0 36 36"><defs><style>.cls-1,.cls-2{fill:none;stroke:#000;stroke-miterlimit:10;}.cls-2{stroke-width:0.8px;}</style></defs><g id="Layer_2" data-name="Layer 2"><path d="M15.23,14.77H11.35a1,1,0,0,0-1,1v3.88a1,1,0,0,0,1,1h3.88a1,1,0,0,0,1-1V15.79A1,1,0,0,0,15.23,14.77Zm-4.63,1a.75.75,0,0,1,.75-.75h3.88a.74.74,0,0,1,.75.75v2.08H10.6ZM16,19.67a.74.74,0,0,1-.75.75H11.35a.75.75,0,0,1-.75-.75v-.4H16Z"/><circle class="cls-1" cx="13.29" cy="17.73" r="8.47"/><path class="cls-2" d="M8.77,10.52a.94.94,0,0,1-1.31-.22L7,9.5a1,1,0,0,1,.43-1.27l.94-.56a1,1,0,0,1,1.32.22l.48.81A1,1,0,0,1,9.72,10"/><path class="cls-2" d="M16.43,9.82a.94.94,0,0,1-.6-1.19l.36-.86a1,1,0,0,1,1.27-.4l1,.42A.94.94,0,0,1,19.07,9l-.36.87a1,1,0,0,1-1.27.4"/><path class="cls-2" d="M21.79,17.41a1,1,0,0,1,.85-1h.94a1,1,0,0,1,.88,1l0,1.1a1,1,0,0,1-.85,1h-.94a1,1,0,0,1-.88-1"/><path class="cls-2" d="M18.58,24.4a1,1,0,0,1,1.33.07l.57.75a1,1,0,0,1-.29,1.3l-.88.66A1,1,0,0,1,18,27.11l-.56-.75a1,1,0,0,1,.28-1.3"/><path class="cls-2" d="M9.39,25.29a1,1,0,0,1,.48,1.24l-.45.83a1,1,0,0,1-1.31.27l-1-.53a.94.94,0,0,1-.48-1.24L7.12,25a1,1,0,0,1,1.3-.28"/><path class="cls-2" d="M4.8,18.27A.94.94,0,0,1,4,19.32l-.94,0a1,1,0,0,1-.9-1l-.05-1.1a1,1,0,0,1,.83-1.05l.93,0a1,1,0,0,1,.91,1"/><path class="cls-2" d="M23,9.55a1,1,0,0,1-1-.87V7.75a1,1,0,0,1,1-.87h1.1a1,1,0,0,1,1,.87v.93a1,1,0,0,1-1,.87"/><path class="cls-2" d="M24.11,26.43a.94.94,0,0,1,1,.84l0,.93a.94.94,0,0,1-1,.89l-1.1,0a1,1,0,0,1-1-.84l0-.94a1,1,0,0,1,1-.89"/><path class="cls-2" d="M29.12,12.06A1,1,0,0,1,29,10.73l.68-.65a1,1,0,0,1,1.33.13l.76.8a1,1,0,0,1,.08,1.33l-.68.65a1,1,0,0,1-1.33-.14"/><path class="cls-2" d="M31.29,19.92a1,1,0,0,1,1.09-.76l.91.23a1,1,0,0,1,.58,1.2l-.27,1.06a1,1,0,0,1-1.09.77l-.91-.23A1,1,0,0,1,31,21"/><path d="M23.13,9a8.91,8.91,0,0,0-5.2,1.67,1.79,1.79,0,0,1,.69.73,8,8,0,1,1,1.83,14.06l0,.17a1.43,1.43,0,0,1-.36.69l0,.05a8.62,8.62,0,0,0,3.1.57A9,9,0,1,0,23.13,9Z"/></g></svg>