<?xml version="1.0" standalone="no"?>
<!DOCTYPE svg PUBLIC "-//W3C//DTD SVG 20010904//EN"
 "http://www.w3.org/TR/2001/REC-SVG-20010904/DTD/svg10.dtd">
<svg version="1.0" xmlns="http://www.w3.org/2000/svg"
 width="24.000000pt" height="24.000000pt" viewBox="0 0 1024.000000 1024.000000"
 preserveAspectRatio="xMidYMid meet">
<metadata>
Created by potrace 1.16, written by Peter Selinger 2001-2019
</metadata>
<g transform="translate(0.000000,1024.000000) scale(0.100000,-0.100000)"
fill="#000000" stroke="none">
<path d="M5115 8818 c-99 -36 -180 -121 -210 -222 -47 -157 36 -334 185 -396
l30 -12 0 -524 0 -524 -230 0 -230 0 0 360 c0 239 3 360 10 360 6 0 30 18 54
41 100 91 102 243 6 339 -72 73 -171 90 -266 46 -114 -53 -168 -196 -115 -311
19 -43 85 -109 120 -120 21 -6 21 -9 21 -361 l0 -354 -200 0 -200 0 0 125 c0
74 4 125 10 125 18 0 81 63 100 100 42 82 38 170 -12 244 -96 146 -320 137
-404 -17 -63 -117 -18 -271 97 -322 l39 -18 0 -119 0 -118 -112 -1 c-200 -1
-248 -11 -311 -68 -44 -39 -76 -100 -77 -143 0 -28 -1 -28 -65 -28 l-65 0
-115 107 -115 108 0 76 0 76 46 18 c64 24 137 101 164 172 34 91 36 141 9 225
-30 96 -104 174 -194 208 -75 27 -184 24 -257 -8 -61 -27 -134 -100 -160 -160
-33 -72 -36 -182 -8 -256 28 -74 92 -144 160 -176 l50 -23 0 -116 0 -116 97
-94 c54 -52 133 -125 176 -162 l77 -69 95 0 95 0 0 -130 0 -130 -192 0 c-187
0 -192 1 -223 24 l-31 24 10 60 c24 148 -81 275 -229 277 -197 1 -310 -222
-191 -378 58 -76 157 -111 245 -87 42 11 43 11 104 -39 l62 -51 222 0 223 0 0
-120 0 -120 -223 0 -223 0 -32 46 c-56 79 -162 112 -267 83 -60 -17 -129 -90
-149 -159 -21 -69 -14 -118 27 -195 29 -54 37 -61 92 -83 122 -49 243 -14 307
89 l31 49 218 0 218 0 3 -82 c2 -46 2 -147 0 -226 l-3 -142 -524 1 -523 2 -16
42 c-25 65 -79 120 -154 157 -58 29 -76 33 -147 33 -99 0 -172 -30 -239 -100
-116 -119 -116 -331 0 -450 67 -70 140 -100 239 -100 71 0 89 4 147 33 75 37
129 92 154 157 l16 43 524 1 524 2 0 -176 0 -175 -225 0 -224 0 -15 28 c-40
76 -115 114 -228 115 -75 0 -78 -1 -113 -34 -89 -86 -118 -170 -91 -264 20
-68 66 -121 131 -151 59 -28 113 -30 180 -8 53 19 121 80 131 119 l6 25 224 0
224 0 0 -140 0 -140 -58 0 c-56 0 -57 1 -92 47 -112 150 -345 119 -410 -55
-43 -115 -5 -229 97 -289 50 -29 132 -40 189 -24 49 13 126 78 144 121 12 29
15 30 71 30 l59 0 1 -112 c1 -62 2 -138 1 -168 l0 -55 -100 -5 c-90 -4 -104
-8 -129 -30 -47 -43 -93 -71 -103 -65 -15 9 -61 -41 -54 -60 5 -11 -18 -39
-75 -93 l-81 -77 0 -115 0 -115 -55 -29 c-70 -36 -128 -102 -156 -175 -26 -71
-23 -181 9 -254 31 -69 106 -139 178 -167 81 -30 196 -25 269 12 84 44 142
116 170 213 42 144 -44 329 -178 380 l-48 18 3 81 c3 70 6 82 24 91 11 5 35
27 54 48 19 22 39 36 47 33 17 -7 67 40 58 54 -3 5 4 21 16 35 20 22 30 25 89
25 l66 0 12 -45 c15 -58 80 -129 135 -149 55 -20 102 -25 285 -25 l152 -1 0
-165 c0 -103 -4 -165 -10 -165 -20 0 -94 -76 -111 -115 -26 -56 -24 -148 3
-205 11 -25 22 -51 24 -59 4 -19 28 -42 47 -45 8 -1 22 -8 31 -16 20 -16 132
-15 188 2 87 26 158 125 158 223 0 88 -63 188 -137 216 -23 8 -23 11 -23 169
l0 160 235 0 235 0 0 -245 0 -244 -27 -15 c-77 -40 -131 -145 -119 -231 19
-140 150 -235 282 -206 130 30 217 162 183 283 -6 23 -13 53 -15 66 -3 32 -14
43 -78 77 l-56 30 0 245 0 245 155 -3 155 -3 0 -523 0 -524 -30 -12 c-115 -48
-200 -178 -200 -305 0 -141 101 -274 238 -315 62 -19 178 -9 237 20 141 71
214 235 170 385 -29 102 -103 185 -191 217 l-34 12 0 523 1 523 234 0 235 0 0
-84 c0 -90 -1 -92 -59 -102 -18 -3 -42 -27 -45 -45 -1 -8 -10 -35 -20 -61 -38
-98 0 -229 82 -284 44 -30 123 -48 177 -40 207 32 267 327 87 431 l-51 30 -1
78 0 77 136 0 136 0 -7 -302 -7 -303 -46 -60 -45 -61 -63 4 c-159 10 -278
-124 -246 -277 33 -157 196 -237 340 -165 60 30 93 69 116 137 20 60 20 82 0
145 l-17 51 67 82 66 81 0 116 c0 65 3 215 7 334 l6 218 94 0 93 0 0 -107 0
-107 130 -125 c72 -69 149 -142 172 -161 l41 -35 118 -3 117 -4 16 -39 c22
-54 90 -125 151 -157 44 -24 61 -27 145 -27 114 1 166 21 235 90 68 68 89 121
89 230 1 74 -3 99 -22 140 -74 158 -261 231 -427 165 -72 -28 -145 -99 -170
-165 l-18 -45 -79 0 c-74 0 -82 2 -106 28 -15 15 -66 62 -114 106 l-88 78 0
72 0 72 37 2 c82 6 164 66 200 147 15 34 18 78 21 314 l4 274 131 -7 131 -7
53 -41 c47 -36 52 -43 45 -67 -4 -14 -7 -55 -7 -91 1 -82 30 -138 94 -181 66
-43 114 -54 181 -40 77 15 129 54 163 122 32 64 37 113 17 184 -30 106 -153
180 -264 158 l-49 -10 -88 67 -88 68 -161 7 -160 7 0 109 0 109 303 0 303 0
12 -34 c17 -45 90 -112 138 -125 179 -50 339 90 309 268 -18 106 -123 191
-234 191 -86 -1 -160 -36 -189 -88 l-23 -42 -309 0 c-285 0 -308 1 -311 18 -2
9 -3 103 -1 209 l4 192 521 0 522 0 18 -43 c28 -68 81 -122 155 -158 58 -29
76 -33 147 -33 66 0 90 5 137 27 120 56 188 164 188 298 0 134 -68 242 -188
298 -47 22 -71 27 -137 27 -71 0 -89 -4 -147 -33 -74 -36 -127 -90 -155 -157
l-17 -42 -523 -1 -523 -2 0 270 0 270 305 0 304 0 12 -22 c60 -118 218 -162
335 -93 108 63 147 225 78 328 -31 48 -96 95 -143 103 -20 4 -42 10 -50 14
-16 9 -117 -29 -160 -60 -17 -11 -40 -39 -52 -60 l-23 -40 -303 0 -303 0 0
215 0 215 184 0 183 0 24 -34 c51 -75 150 -116 239 -97 113 23 190 116 190
230 -1 128 -84 223 -209 238 -97 11 -211 -54 -241 -138 l-12 -34 -178 3 -177
3 -5 108 c-4 77 -11 120 -25 152 -36 79 -115 135 -197 141 l-36 2 0 62 0 61
116 106 116 107 82 0 82 0 13 -35 c19 -54 101 -130 168 -156 172 -68 360 12
429 181 22 56 26 76 22 140 -6 94 -32 154 -92 215 -70 69 -122 89 -236 90 -84
0 -101 -3 -146 -27 -63 -33 -134 -110 -155 -169 l-16 -44 -116 -5 c-130 -6
-105 7 -252 -130 -44 -41 -108 -102 -142 -136 l-63 -61 0 -96 0 -97 -100 0
-100 0 0 119 0 119 31 12 c110 46 161 197 105 315 -28 60 -56 87 -116 114 -89
40 -212 15 -272 -57 -90 -107 -70 -284 41 -352 l40 -25 1 -122 0 -123 -200 0
-200 0 0 295 0 294 42 61 c23 34 46 64 52 67 5 4 47 7 91 7 73 1 87 4 130 31
157 98 141 339 -27 415 -60 27 -140 26 -204 -4 -104 -49 -157 -171 -123 -285
11 -37 10 -39 -60 -135 l-71 -98 0 -323 c0 -177 -2 -324 -4 -326 -2 -2 -77 -3
-165 -1 l-161 3 0 523 0 522 34 12 c87 32 161 114 190 212 51 172 -40 349
-213 408 -42 15 -165 14 -206 0z m156 -149 c72 -24 119 -90 119 -165 0 -172
-229 -237 -315 -90 -81 139 47 304 196 255z m780 -464 c67 -35 88 -123 45
-180 -51 -67 -131 -71 -185 -9 -88 99 24 249 140 189z m-1418 -30 c62 -40 71
-133 18 -186 -97 -97 -257 19 -194 141 33 65 115 86 176 45z m-1597 -434 c109
-49 137 -183 58 -271 -99 -110 -267 -61 -298 87 -20 93 71 202 169 202 17 0
49 -8 71 -18z m4530 -13 c102 -70 107 -209 11 -282 -112 -86 -277 -3 -277 140
0 132 157 216 266 142z m-3532 -12 c97 -41 104 -176 10 -221 -78 -37 -161 11
-171 99 -5 39 -2 51 21 81 22 29 60 50 99 54 4 1 22 -5 41 -13z m2345 -14 c26
-18 51 -68 51 -104 0 -56 -67 -118 -127 -118 -41 0 -92 35 -109 75 -18 44 -18
59 3 102 31 65 118 87 182 45z m391 -2372 l0 -1550 -1550 0 -1550 0 0 1550 0
1550 1550 0 1550 0 0 -1550z m909 1435 c16 -8 36 -31 46 -51 25 -53 15 -101
-31 -143 -33 -30 -40 -33 -85 -29 -115 11 -155 139 -68 213 35 29 93 34 138
10z m-4868 -68 c95 -63 49 -218 -64 -217 -51 1 -82 17 -108 56 -36 55 -15 138
43 170 36 21 91 17 129 -9z m5104 -541 c66 -28 87 -128 40 -185 -78 -92 -225
-32 -212 87 10 88 88 133 172 98z m-5108 -111 c100 -66 51 -225 -70 -225 -31
0 -88 38 -104 70 -55 108 72 221 174 155z m-671 -570 c48 -28 84 -91 84 -145
0 -54 -36 -117 -84 -145 -101 -59 -223 -10 -257 103 -42 144 123 265 257 187z
m6332 11 c74 -39 114 -125 93 -198 -34 -113 -156 -162 -257 -103 -48 28 -84
91 -84 145 0 54 36 117 83 145 48 29 122 34 165 11z m-5669 -580 c40 -21 61
-59 61 -110 0 -118 -151 -164 -218 -66 -70 103 47 233 157 176z m5109 -77 c64
-22 95 -123 55 -178 -11 -14 -37 -35 -58 -45 -35 -17 -42 -18 -79 -5 -70 24
-105 105 -73 169 15 31 73 70 102 70 12 0 36 -5 53 -11z m-4783 -375 c45 -21
70 -70 62 -124 -18 -138 -216 -138 -234 0 -14 100 80 168 172 124z m4573 -308
c34 -31 37 -39 37 -86 0 -47 -3 -55 -39 -87 -35 -33 -42 -35 -87 -31 -156 15
-148 238 7 238 36 0 51 -6 82 -34z m-1768 -899 c32 -16 70 -73 70 -104 0 -100
-123 -161 -199 -98 -33 29 -56 85 -47 119 8 31 44 76 70 86 31 13 78 11 106
-3z m1644 -31 c132 -100 66 -311 -98 -310 -115 1 -193 95 -172 209 8 42 58
102 101 122 47 21 127 12 169 -21z m-4547 3 c120 -45 151 -210 55 -291 -132
-111 -326 7 -282 171 27 100 132 156 227 120z m1141 -148 c32 -22 54 -82 45
-124 -8 -40 -54 -84 -95 -92 -44 -8 -100 14 -123 49 -77 117 59 248 173 167z
m622 -156 c56 -29 77 -109 44 -165 -34 -56 -105 -76 -164 -45 -38 19 -60 63
-60 116 0 33 6 47 34 75 28 28 42 34 75 34 23 0 55 -7 71 -15z m1338 -270 c63
-67 33 -169 -58 -196 -98 -29 -183 78 -139 174 6 13 27 34 47 46 52 31 106 22
150 -24z m-831 -336 c29 -14 52 -35 68 -63 58 -99 13 -218 -98 -257 -70 -25
-164 18 -203 93 -39 75 0 188 78 227 54 27 100 27 155 0z"/>
<path d="M4266 6284 c-14 -14 -16 -114 -16 -954 0 -840 2 -940 16 -954 14 -14
114 -16 954 -16 840 0 940 2 954 16 14 14 16 114 16 953 0 896 -1 939 -18 954
-17 16 -98 17 -955 17 -837 0 -937 -2 -951 -16z m1724 -954 l0 -770 -770 0
-770 0 0 770 0 770 770 0 770 0 0 -770z"/>
</g>
</svg>
