<svg height="30px" width="30px" id="SvgjsSvg1446"   xmlns="http://www.w3.org/2000/svg" version="1.1" xmlns:xlink="http://www.w3.org/1999/xlink" xmlns:svgjs="http://svgjs.com/svgjs"><defs id="SvgjsDefs1447"></defs><g id="SvgjsG1448"><svg xmlns="http://www.w3.org/2000/svg" viewBox="0 0 36 36"  ><g data-name="Layer 1" fill="#c0a742" class="color000 svgShape"><rect width="29.52" height="28.12" x="3.24" y="3.94" fill="none" stroke="#c0a742" stroke-linecap="round" stroke-miterlimit="10" rx="4.99" class="colorStroke000 svgStroke"></rect><path fill="none" stroke="#c0a742" stroke-linecap="round" stroke-miterlimit="10" d="M19.07,7.87a5.93,5.93,0,0,0-5.36,1.2" class="colorStroke000 svgStroke"></path><path d="M22.08,9.78a17.86,17.86,0,0,1-2.93-5l-.54,2.93-2.3,1.91A17.79,17.79,0,0,1,22.08,9.78Z" fill="#c0a742" class="color000 svgShape"></path><circle cx="10.98" cy="13.35" r="4.73" fill="none" stroke="#c0a742" stroke-linecap="round" stroke-miterlimit="10" class="colorStroke000 svgStroke"></circle><circle cx="18" cy="24.75" r="4.73" fill="none" stroke="#c0a742" stroke-linecap="round" stroke-miterlimit="10" class="colorStroke000 svgStroke"></circle><circle cx="25.02" cy="13.35" r="4.73" fill="none" stroke="#c0a742" stroke-linecap="round" stroke-miterlimit="10" class="colorStroke000 svgStroke"></circle><path fill="none" stroke="#c0a742" stroke-linecap="round" stroke-miterlimit="10" d="M24.26,22.09a5.25,5.25,0,0,0,1.33-4" class="colorStroke000 svgStroke"></path><path d="M22.08,23.14a12.18,12.18,0,0,1,3.91.07l-1.5-1.35-.29-2A11.71,11.71,0,0,1,22.08,23.14Z" fill="#c0a742" class="color000 svgShape"></path></g></svg></g></svg>