<svg stroke="#0d0d82" stroke-width="1px" height="30px" width="30px" id="SvgjsSvg1031" xmlns="http://www.w3.org/2000/svg" version="1.1" xmlns:xlink="http://www.w3.org/1999/xlink" xmlns:svgjs="http://svgjs.com/svgjs"><defs id="SvgjsDefs1032"></defs><g id="SvgjsG1033"><svg xmlns="http://www.w3.org/2000/svg" viewBox="0 0 36 36"><g data-name="Layer 2" fill="#0d0d82" class="color000 svgShape"><path d="M19.76,15.17h-4a1,1,0,0,0-1,1v4a1,1,0,0,0,1,1.05h4a1,1,0,0,0,1-1.05v-4A1,1,0,0,0,19.76,15.17Zm-4.77,1a.78.78,0,0,1,.78-.78h4a.78.78,0,0,1,.78.78v2.13H15Zm5.55,4a.77.77,0,0,1-.78.77h-4a.77.77,0,0,1-.78-.77V19.8h5.55Z" fill="#0d0d82" class="color000 svgShape"></path><rect width="32.01" height="11.63" x="1.99" y="12.19" fill="none" stroke="#0d0d82" stroke-miterlimit="10" rx="2.55" class="colorStroke000 svgStroke"></rect></g></svg></g></svg>