<svg height="30px" width="30px" xmlns="http://www.w3.org/2000/svg" viewBox="0 0 36 36"><g id="Layer_2" data-name="Layer 2"><path d="M13.2,27.49A9.49,9.49,0,1,1,22.68,18,9.5,9.5,0,0,1,13.2,27.49Zm0-18A8.49,8.49,0,1,0,21.68,18,8.5,8.5,0,0,0,13.2,9.52Z"/><path d="M7.79,10.94a1.27,1.27,0,0,1-1.12-.6l-.51-.86a1.41,1.41,0,0,1,.59-1.89l1-.59a1.54,1.54,0,0,1,1.18-.19,1.23,1.23,0,0,1,.77.56l.5.85a1.23,1.23,0,0,1,.1,1.06,1.56,1.56,0,0,1-.69.83L9.2,9.42A.74.74,0,0,0,9.54,9a.49.49,0,0,0,0-.39L9,7.78a.42.42,0,0,0-.28-.19.78.78,0,0,0-.57.09l-1,.6a.62.62,0,0,0-.31.79l.5.85a.62.62,0,0,0,.85.1l.41.69A1.64,1.64,0,0,1,7.79,10.94Z"/><path d="M18.07,10.57a1.55,1.55,0,0,1-.63-.13l.31-.73a.62.62,0,0,0,.82-.22L19,8.58a.62.62,0,0,0-.42-.74l-1.08-.45a.71.71,0,0,0-.57,0,.4.4,0,0,0-.25.23l-.39.91a.62.62,0,0,0,.43.74l-.32.74a1.41,1.41,0,0,1-.85-1.79l.39-.91a1.21,1.21,0,0,1,.69-.66,1.51,1.51,0,0,1,1.18,0l1.08.45a1.41,1.41,0,0,1,.85,1.79l-.39.91A1.31,1.31,0,0,1,18.07,10.57Z"/><path d="M23.15,20.3a1.23,1.23,0,0,1-.94-.45,1.58,1.58,0,0,1-.38-1h.8a.78.78,0,0,0,.18.5.48.48,0,0,0,.34.17h0l1,0c.28,0,.51-.32.51-.68l0-1.17a.84.84,0,0,0-.18-.5.5.5,0,0,0-.34-.17h0l-1,0c-.28,0-.51.32-.51.68h-.8a1.4,1.4,0,0,1,1.3-1.49l1,0a1.29,1.29,0,0,1,1,.44,1.62,1.62,0,0,1,.38,1l0,1.16a1.41,1.41,0,0,1-1.3,1.5l-1,0Z"/><path d="M18.87,28.68h-.08a1.24,1.24,0,0,1-.94-.49l-.6-.79a1.25,1.25,0,0,1-.21-1,1.58,1.58,0,0,1,.59-.91l.49.64a.74.74,0,0,0-.3.44.47.47,0,0,0,.07.38l.6.79a.46.46,0,0,0,.35.17.78.78,0,0,0,.5-.17l.93-.7a.63.63,0,0,0,.23-.82l-.6-.79a.47.47,0,0,0-.3-.17.79.79,0,0,0-.55.16l-.49-.63a1.58,1.58,0,0,1,1.15-.32,1.24,1.24,0,0,1,.82.48l.6.79a1.4,1.4,0,0,1-.38,1.94l-.93.7A1.59,1.59,0,0,1,18.87,28.68Z"/><path d="M8.28,29.05a1.65,1.65,0,0,1-.77-.19l-1-.56a1.54,1.54,0,0,1-.72-.81,1.24,1.24,0,0,1,.05-1l.48-.88A1.25,1.25,0,0,1,7.05,25a1.54,1.54,0,0,1,1.18.15l-.39.7a.77.77,0,0,0-.57-.08A.47.47,0,0,0,7,26l-.47.87a.42.42,0,0,0,0,.38.8.8,0,0,0,.35.4l1,.55A.61.61,0,0,0,8.74,28l.47-.87a.61.61,0,0,0-.34-.77l.38-.71a1.43,1.43,0,0,1,.67,1.87l-.48.87A1.31,1.31,0,0,1,8.28,29.05Z"/><path d="M2.3,20.13a1.2,1.2,0,0,1-.84-.33A1.6,1.6,0,0,1,1,18.71l0-1.16a1.65,1.65,0,0,1,.32-1A1.24,1.24,0,0,1,2.18,16l1,0h.05A1.42,1.42,0,0,1,4.55,17.4l-.8,0a.64.64,0,0,0-.55-.65l-1,0a.46.46,0,0,0-.34.19.78.78,0,0,0-.15.5l.05,1.17a.76.76,0,0,0,.23.53.44.44,0,0,0,.31.12l1,0c.28,0,.5-.33.49-.69l.79,0a1.4,1.4,0,0,1-1.25,1.53l-1,0Z"/><path d="M24.6,9.45V8.64c.37,0,.68-.23.68-.51v-1a.63.63,0,0,0-.68-.52H23.44a.63.63,0,0,0-.68.52v1c0,.28.31.51.68.51v.81A1.42,1.42,0,0,1,22,8.13v-1a1.41,1.41,0,0,1,1.48-1.32H24.6a1.4,1.4,0,0,1,1.48,1.32v1A1.41,1.41,0,0,1,24.6,9.45Z"/><path d="M23.45,30.2A1.41,1.41,0,0,1,22,28.92l0-1a1.23,1.23,0,0,1,.35-.88,1.58,1.58,0,0,1,1.1-.47l0,.8a.81.81,0,0,0-.54.22.45.45,0,0,0-.13.31l0,1a.63.63,0,0,0,.69.5l1.17,0c.36,0,.67-.25.66-.53l0-1a.62.62,0,0,0-.67-.51h0l0-.79a1.36,1.36,0,0,1,1.51,1.28l0,1a1.4,1.4,0,0,1-1.44,1.35l-1.17,0Z"/><path d="M31.53,13.32a1.55,1.55,0,0,1-1.11-.49l.57-.56a.62.62,0,0,0,.85.13l.71-.68a.62.62,0,0,0-.09-.85L31.65,10a.62.62,0,0,0-.84-.13l-.72.69A.43.43,0,0,0,30,11a.76.76,0,0,0,.22.48l-.58.56a1.55,1.55,0,0,1-.44-1,1.23,1.23,0,0,1,.37-1l.72-.69a1.4,1.4,0,0,1,2,.16l.81.84a1.42,1.42,0,0,1,.07,2l-.72.68A1.22,1.22,0,0,1,31.53,13.32Z"/><path d="M33.68,23.12a1,1,0,0,1-.29,0l-1-.24a1.4,1.4,0,0,1-.91-1.76l.77.2a.62.62,0,0,0,.34.78l1,.25c.27.07.58-.17.67-.53l.29-1.13a.63.63,0,0,0-.34-.78l-1-.25a.43.43,0,0,0-.33.06.77.77,0,0,0-.34.47l-.77-.2a1.54,1.54,0,0,1,.7-1,1.24,1.24,0,0,1,.94-.14l1,.24a1.41,1.41,0,0,1,.91,1.76L35,22A1.44,1.44,0,0,1,33.68,23.12Z"/><path d="M23.68,8.49a9.46,9.46,0,0,0-5.51,1.78,2,2,0,0,1,.73.78A8.46,8.46,0,1,1,20.84,26l0,.19a1.67,1.67,0,0,1-.39.73l0,.05a9.42,9.42,0,0,0,3.29.6,9.52,9.52,0,1,0,0-19Z"/><path d="M12,21.29a.59.59,0,0,1-.34-.1L9.59,19.71a.61.61,0,0,1-.15-.84.6.6,0,0,1,.84-.15l1.66,1.15L16,15a.6.6,0,0,1,.85-.07.59.59,0,0,1,.07.85l-4.42,5.27A.61.61,0,0,1,12,21.29Z"/></g></svg>