<svg height="30px" width="30px" xmlns="http://www.w3.org/2000/svg" viewBox="0 0 36 36"><g id="Layer_2" data-name="Layer 2"><path d="M31.23,19.8c-.07.47-2,11.84-14.35,10.16l-.52-.07v2.6l-4.45-5.64,2.33-2.58.63-.68,1.25-1.4v2.94l.33.09.07,0a1.11,1.11,0,0,0,.25.05.85.85,0,0,0,.31.06,10.05,10.05,0,0,0,2.38,0,2.23,2.23,0,0,0,.36-.05h0a7.49,7.49,0,0,0,5.06-3.75,10.1,10.1,0,0,0,.89-3.52v0a7.43,7.43,0,0,0-2.67-5.72L26,9.18,19.43.91V5.09C6.62,3.66,4.61,15.93,4.57,16.05l.9.15c.07-.49,2-11.85,14.35-10.16l.5.06V3.49l4.47,5.66-2.37,2.6-.63.68-1.23,1.36v-2.9a3.38,3.38,0,0,0-.6-.17l-.32-.07-.3,0a11.45,11.45,0,0,0-1.28-.06.68.68,0,0,0-.28,0l-.38,0a7.48,7.48,0,0,0-5.6,3.8s0,0,0,.06A10.38,10.38,0,0,0,10.87,18V18a7.48,7.48,0,0,0,2.65,5.72L10.74,26.8l6.51,8.29V30.91c12.83,1.42,14.84-10.86,14.86-11ZM11.76,18v0a6.57,6.57,0,0,1,.79-3.12l0,0a5.46,5.46,0,0,1,1.83-2.3,5.9,5.9,0,0,1,2.62-1l.41-.06a5.53,5.53,0,0,1,.92-.07,7.06,7.06,0,0,1,1,.09,1.26,1.26,0,0,1,.27,0v4.54L22.53,13a0,0,0,0,0,0,0A6.66,6.66,0,0,1,24.92,18v.16A6.71,6.71,0,0,1,24.18,21l-.05.11a5.4,5.4,0,0,1-1.83,2.28,6,6,0,0,1-2.23.93l-.05,0h0a.57.57,0,0,1-.18,0,8.8,8.8,0,0,1-2.8,0V19.87l-2.89,3.18A6.62,6.62,0,0,1,11.76,18Z"/><path d="M12.55,14.89A10.47,10.47,0,0,0,11.76,18,6.57,6.57,0,0,1,12.55,14.89Z"/><path d="M17.4,10.6a7.48,7.48,0,0,0-5.6,3.8,6.39,6.39,0,0,1,2.1-2.56A7.24,7.24,0,0,1,17.4,10.6Z"/><path d="M19.39,11.53a8.8,8.8,0,0,0-2,0,5.53,5.53,0,0,1,.92-.07A7.06,7.06,0,0,1,19.39,11.53Z"/><path d="M20.56,10.85v0a3.38,3.38,0,0,0-.6-.17l.26,0Z"/></g></svg>