<svg height="30px" width="30px" id="SvgjsSvg1072" xmlns="http://www.w3.org/2000/svg" version="1.1" xmlns:xlink="http://www.w3.org/1999/xlink" xmlns:svgjs="http://svgjs.com/svgjs"><defs id="SvgjsDefs1073"></defs><g id="SvgjsG1074"><svg xmlns="http://www.w3.org/2000/svg" viewBox="0 0 36 36"><g data-name="Layer 2" fill="#008000" class="color000 svgShape"><path d="M32.78,24.71H3.62A3.05,3.05,0,0,1,.57,21.65V14.31a3,3,0,0,1,3.05-3.05H32.78a3.06,3.06,0,0,1,3,3.05v7.34A3.06,3.06,0,0,1,32.78,24.71ZM3.62,12.26a2.05,2.05,0,0,0-2,2.05v7.34a2.05,2.05,0,0,0,2.05,2.06H32.78a2.05,2.05,0,0,0,2-2.06V14.31a2.05,2.05,0,0,0-2-2.05Z" fill="#008000" class="color000 svgShape"></path><path d="M17.11,21a.64.64,0,0,1-.33-.1l-2-1.4a.56.56,0,0,1-.14-.79.58.58,0,0,1,.8-.14L17,19.7l3.84-4.57a.57.57,0,1,1,.88.74l-4.18,5A.54.54,0,0,1,17.11,21Z" fill="#008000" class="color000 svgShape"></path></g></svg></g></svg>