<svg height="30px" width="30px" id="SvgjsSvg1057" xmlns="http://www.w3.org/2000/svg" version="1.1" xmlns:xlink="http://www.w3.org/1999/xlink" xmlns:svgjs="http://svgjs.com/svgjs"><defs id="SvgjsDefs1058"></defs><g id="SvgjsG1059"><svg xmlns="http://www.w3.org/2000/svg" viewBox="0 0 36 36"><g data-name="Layer 2" fill="#008000" class="color000 svgShape"><path d="M13.2,27.49A9.49,9.49,0,1,1,22.68,18,9.5,9.5,0,0,1,13.2,27.49Zm0-18A8.49,8.49,0,1,0,21.68,18,8.5,8.5,0,0,0,13.2,9.52Z" fill="#008000" class="color000 svgShape"></path><path d="M7.79 10.94a1.27 1.27 0 01-1.12-.6l-.51-.86a1.41 1.41 0 01.59-1.89l1-.59a1.54 1.54 0 011.18-.19 1.23 1.23 0 01.77.56l.5.85a1.23 1.23 0 01.1 1.06 1.56 1.56 0 01-.69.83L9.2 9.42A.74.74 0 009.54 9a.49.49 0 000-.39L9 7.78a.42.42 0 00-.28-.19.78.78 0 00-.57.09l-1 .6a.62.62 0 00-.31.79l.5.85a.62.62 0 00.85.1l.41.69A1.64 1.64 0 017.79 10.94zM18.07 10.57a1.55 1.55 0 01-.63-.13l.31-.73a.62.62 0 00.82-.22L19 8.58a.62.62 0 00-.42-.74l-1.08-.45a.71.71 0 00-.57 0 .4.4 0 00-.25.23l-.39.91a.62.62 0 00.43.74l-.32.74a1.41 1.41 0 01-.85-1.79l.39-.91a1.21 1.21 0 01.69-.66 1.51 1.51 0 011.18 0l1.08.45a1.41 1.41 0 01.85 1.79l-.39.91A1.31 1.31 0 0118.07 10.57zM23.15 20.3a1.23 1.23 0 01-.94-.45 1.58 1.58 0 01-.38-1h.8a.78.78 0 00.18.5.48.48 0 00.34.17h0l1 0c.28 0 .51-.32.51-.68l0-1.17a.84.84 0 00-.18-.5.5.5 0 00-.34-.17h0l-1 0c-.28 0-.51.32-.51.68h-.8a1.4 1.4 0 011.3-1.49l1 0a1.29 1.29 0 011 .44 1.62 1.62 0 01.38 1l0 1.16a1.41 1.41 0 01-1.3 1.5l-1 0zM18.87 28.68h-.08a1.24 1.24 0 01-.94-.49l-.6-.79a1.25 1.25 0 01-.21-1 1.58 1.58 0 01.59-.91l.49.64a.74.74 0 00-.3.44.47.47 0 00.07.38l.6.79a.46.46 0 00.35.17.78.78 0 00.5-.17l.93-.7a.63.63 0 00.23-.82l-.6-.79a.47.47 0 00-.3-.17.79.79 0 00-.55.16l-.49-.63a1.58 1.58 0 011.15-.32 1.24 1.24 0 01.82.48l.6.79a1.4 1.4 0 01-.38 1.94l-.93.7A1.59 1.59 0 0118.87 28.68zM8.28 29.05a1.65 1.65 0 01-.77-.19l-1-.56a1.54 1.54 0 01-.72-.81 1.24 1.24 0 01.05-1l.48-.88A1.25 1.25 0 017.05 25a1.54 1.54 0 011.18.15l-.39.7a.77.77 0 00-.57-.08A.47.47 0 007 26l-.47.87a.42.42 0 000 .38.8.8 0 00.35.4l1 .55A.61.61 0 008.74 28l.47-.87a.61.61 0 00-.34-.77l.38-.71a1.43 1.43 0 01.67 1.87l-.48.87A1.31 1.31 0 018.28 29.05zM2.3 20.13a1.2 1.2 0 01-.84-.33A1.6 1.6 0 011 18.71l0-1.16a1.65 1.65 0 01.32-1A1.24 1.24 0 012.18 16l1 0h.05A1.42 1.42 0 014.55 17.4l-.8 0a.64.64 0 00-.55-.65l-1 0a.46.46 0 00-.34.19.78.78 0 00-.15.5l.05 1.17a.76.76 0 00.23.53.44.44 0 00.31.12l1 0c.28 0 .5-.33.49-.69l.79 0a1.4 1.4 0 01-1.25 1.53l-1 0zM24.6 9.45V8.64c.37 0 .68-.23.68-.51v-1a.63.63 0 00-.68-.52H23.44a.63.63 0 00-.68.52v1c0 .28.31.51.68.51v.81A1.42 1.42 0 0122 8.13v-1a1.41 1.41 0 011.48-1.32H24.6a1.4 1.4 0 011.48 1.32v1A1.41 1.41 0 0124.6 9.45zM23.45 30.2A1.41 1.41 0 0122 28.92l0-1a1.23 1.23 0 01.35-.88 1.58 1.58 0 011.1-.47l0 .8a.81.81 0 00-.54.22.45.45 0 00-.13.31l0 1a.63.63 0 00.69.5l1.17 0c.36 0 .67-.25.66-.53l0-1a.62.62 0 00-.67-.51h0l0-.79a1.36 1.36 0 011.51 1.28l0 1a1.4 1.4 0 01-1.44 1.35l-1.17 0zM31.53 13.32a1.55 1.55 0 01-1.11-.49l.57-.56a.62.62 0 00.85.13l.71-.68a.62.62 0 00-.09-.85L31.65 10a.62.62 0 00-.84-.13l-.72.69A.43.43 0 0030 11a.76.76 0 00.22.48l-.58.56a1.55 1.55 0 01-.44-1 1.23 1.23 0 01.37-1l.72-.69a1.4 1.4 0 012 .16l.81.84a1.42 1.42 0 01.07 2l-.72.68A1.22 1.22 0 0131.53 13.32zM33.68 23.12a1 1 0 01-.29 0l-1-.24a1.4 1.4 0 01-.91-1.76l.77.2a.62.62 0 00.34.78l1 .25c.27.07.58-.17.67-.53l.29-1.13a.63.63 0 00-.34-.78l-1-.25a.43.43 0 00-.33.06.77.77 0 00-.34.47l-.77-.2a1.54 1.54 0 01.7-1 1.24 1.24 0 01.94-.14l1 .24a1.41 1.41 0 01.91 1.76L35 22A1.44 1.44 0 0133.68 23.12z" fill="#008000" class="color000 svgShape"></path><path d="M23.68 8.49a9.46 9.46 0 00-5.51 1.78 2 2 0 01.73.78A8.46 8.46 0 1120.84 26l0 .19a1.67 1.67 0 01-.39.73l0 .05a9.42 9.42 0 003.29.6 9.52 9.52 0 100-19zM12 21.29a.59.59 0 01-.34-.1L9.59 19.71a.61.61 0 01-.15-.84.6.6 0 01.84-.15l1.66 1.15L16 15a.6.6 0 01.85-.07.59.59 0 01.07.85l-4.42 5.27A.61.61 0 0112 21.29z" fill="#008000" class="color000 svgShape"></path></g></svg></g></svg>