<svg stroke="#0d0d82" stroke-width="0.5px" height="30px" width="30px"  id="SvgjsSvg1001" xmlns="http://www.w3.org/2000/svg" version="1.1" xmlns:xlink="http://www.w3.org/1999/xlink" xmlns:svgjs="http://svgjs.com/svgjs"><defs id="SvgjsDefs1002"></defs><g id="SvgjsG1008"><svg xmlns="http://www.w3.org/2000/svg" viewBox="0 0 36 36"><g data-name="Layer 2" fill="#0d0d82" class="color000 svgShape"><path d="M8.61,12.93H3a1.48,1.48,0,0,0-1.48,1.48V20A1.48,1.48,0,0,0,3,21.52H8.61A1.48,1.48,0,0,0,10.09,20V14.41A1.48,1.48,0,0,0,8.61,12.93ZM1.88,14.41A1.09,1.09,0,0,1,3,13.32H8.61A1.09,1.09,0,0,1,9.7,14.41v3H1.88ZM9.7,20a1.09,1.09,0,0,1-1.09,1.09H3A1.09,1.09,0,0,1,1.88,20v-.58H9.7Z" fill="#0d0d82" class="color000 svgShape"></path><path d="M20,8.06c-5,0-9.3,1.72-11.91,4.33a2.39,2.39,0,0,1,.49.2c2.54-2.44,6.69-4,11.42-4,7.71,0,14,4.24,14,9.45s-6.28,9.45-14,9.45c-5.42,0-10.11-2.09-12.43-5.14a2.53,2.53,0,0,1-.56.06c2.36,3.3,7.29,5.57,13,5.57,8,0,14.48-4.46,14.48-9.94S28,8.06,20,8.06Z" fill="#0d0d82" class="color000 svgShape"></path></g></svg></g></svg>