<svg height="30px" width="30px" id="SvgjsSvg1046" xmlns="http://www.w3.org/2000/svg" version="1.1" xmlns:xlink="http://www.w3.org/1999/xlink" xmlns:svgjs="http://svgjs.com/svgjs"><defs id="SvgjsDefs1047"></defs><g id="SvgjsG1048"><svg xmlns="http://www.w3.org/2000/svg" viewBox="0 0 36 36"><g data-name="Layer 2" fill="#008000" class="color000 svgShape"><polygon fill-rule="evenodd" points="27.57 2.53 31.17 2.53 31.17 33.5 27.57 33.5 27.57 2.53 27.57 2.53" fill="#008000" class="color000 svgShape"></polygon><polygon fill-rule="evenodd" points="7.54 21.98 11.54 21.98 11.54 33.5 7.54 33.5 7.54 21.98 7.54 21.98" fill="#008000" class="color000 svgShape"></polygon><polygon fill-rule="evenodd" points="2.73 25.95 6.34 25.95 6.34 33.5 2.73 33.5 2.73 25.95 2.73 25.95" fill="#008000" class="color000 svgShape"></polygon><path fill-rule="evenodd" d="M22.76 7.69v11.1l.23-.27a.89.89 0 111.36 1.15l-1.59 1.9V33.5h3.6V7.69zM17.84 27.43a.86.86 0 01-.29.21V33.5h4V23z" fill="#008000" class="color000 svgShape"></path><polygon fill-rule="evenodd" points="21.56 20.22 21.56 12.46 17.55 12.46 17.55 24.99 21.56 20.22" fill="#008000" class="color000 svgShape"></polygon><path fill-rule="evenodd" d="M13.54,25.41a.89.89,0,0,1,1-1.46l1.79,1.25v-8h-3.6V33.5h3.6V27.38Z" fill="#008000" class="color000 svgShape"></path></g></svg></g></svg>