<svg height="30px" width="30px" xmlns="http://www.w3.org/2000/svg" viewBox="0 0 36 36"><defs><style>.cls-1{fill-rule:evenodd;}</style></defs><g id="Layer_2" data-name="Layer 2"><polygon class="cls-1" points="27.57 2.53 31.17 2.53 31.17 33.5 27.57 33.5 27.57 2.53 27.57 2.53"/><polygon class="cls-1" points="7.54 21.98 11.54 21.98 11.54 33.5 7.54 33.5 7.54 21.98 7.54 21.98"/><polygon class="cls-1" points="2.73 25.95 6.34 25.95 6.34 33.5 2.73 33.5 2.73 25.95 2.73 25.95"/><path class="cls-1" d="M22.76,7.69v11.1l.23-.27a.89.89,0,1,1,1.36,1.15l-1.59,1.9V33.5h3.6V7.69Z"/><path class="cls-1" d="M17.84,27.43a.86.86,0,0,1-.29.21V33.5h4V23Z"/><polygon class="cls-1" points="21.56 20.22 21.56 12.46 17.55 12.46 17.55 24.99 21.56 20.22"/><path class="cls-1" d="M13.54,25.41a.89.89,0,0,1,1-1.46l1.79,1.25v-8h-3.6V33.5h3.6V27.38Z"/></g></svg>