<svg height="30px" width="30px" id="SvgjsSvg1097"   xmlns="http://www.w3.org/2000/svg" version="1.1" xmlns:xlink="http://www.w3.org/1999/xlink" xmlns:svgjs="http://svgjs.com/svgjs"><defs id="SvgjsDefs1098"></defs><g id="SvgjsG1099"><svg xmlns="http://www.w3.org/2000/svg" viewBox="0 0 36 36"  ><g data-name="Layer 1" fill="#8d6e63" class="color000 svgShape"><circle cx="16.73" cy="19.66" r="3.57" fill="#8d6e63" class="color000 svgShape"></circle><circle cx="5.37" cy="21.22" r="3.57" fill="#8d6e63" class="color000 svgShape"></circle><circle cx="17.92" cy="31.6" r="3.57" fill="#8d6e63" class="color000 svgShape"></circle><circle cx="30.63" cy="21.61" r="3.57" fill="#8d6e63" class="color000 svgShape"></circle><circle cx="28.42" cy="7.97" r="3.57" fill="#8d6e63" class="color000 svgShape"></circle><circle cx="13.16" cy="7.97" r="3.57" fill="#8d6e63" class="color000 svgShape"></circle><line x1="16.73" x2="26.73" y1="19.66" y2="9.65"></line><rect width="14.15" height=".63" x="14.66" y="14.34" transform="rotate(-45 21.732 14.658)" fill="#8d6e63" class="color000 svgShape"></rect><line x1="16.73" x2="13.71" y1="19.79" y2="9.52"></line><rect width=".63" height="10.71" x="14.91" y="9.3" transform="rotate(-16.35 15.23 14.657)" fill="#8d6e63" class="color000 svgShape"></rect><line x1="6.92" x2="15.22" y1="20.81" y2="19.79"></line><rect width="8.37" height=".63" x="6.89" y="19.99" transform="rotate(-6.96 11.06 20.313)" fill="#8d6e63" class="color000 svgShape"></rect><line x1="16.73" x2="17.55" y1="19.79" y2="28.28"></line><rect width=".63" height="8.53" x="16.82" y="19.77" transform="rotate(-5.52 17.14 24.009)" fill="#8d6e63" class="color000 svgShape"></rect><line x1="16.73" x2="28.42" y1="20.01" y2="21.61"></line><rect width=".63" height="11.8" x="22.26" y="14.91" transform="rotate(-82 22.679 20.812)" fill="#8d6e63" class="color000 svgShape"></rect><path d="M17.91,32,5,21.29,13,7.67l15.71-1.1L31,21.74ZM5.78,21.15,17.92,31.2l12.37-9.73L28.15,7.24l-14.8,1Z" fill="#8d6e63" class="color000 svgShape"></path></g></svg></g></svg>