<svg height="30px" width="30px" xmlns="http://www.w3.org/2000/svg" viewBox="0 0 36 36"><g id="Layer_1" data-name="Layer 1"><circle cx="16.73" cy="19.66" r="3.57"/><circle cx="5.37" cy="21.22" r="3.57"/><circle cx="17.92" cy="31.6" r="3.57"/><circle cx="30.63" cy="21.61" r="3.57"/><circle cx="28.42" cy="7.97" r="3.57"/><circle cx="13.16" cy="7.97" r="3.57"/><line x1="16.73" y1="19.66" x2="26.73" y2="9.65"/><rect x="14.66" y="14.34" width="14.15" height="0.63" transform="translate(-4 19.66) rotate(-45)"/><line x1="16.73" y1="19.79" x2="13.71" y2="9.52"/><rect x="14.91" y="9.3" width="0.63" height="10.71" transform="translate(-3.51 4.88) rotate(-16.35)"/><line x1="6.92" y1="20.81" x2="15.22" y2="19.79"/><rect x="6.89" y="19.99" width="8.37" height="0.63" transform="translate(-2.38 1.49) rotate(-6.96)"/><line x1="16.73" y1="19.79" x2="17.55" y2="28.28"/><rect x="16.82" y="19.77" width="0.63" height="8.53" transform="translate(-2.23 1.76) rotate(-5.52)"/><line x1="16.73" y1="20.01" x2="28.42" y2="21.61"/><rect x="22.26" y="14.91" width="0.63" height="11.8" transform="matrix(0.14, -0.99, 0.99, 0.14, -1.1, 40.35)"/><path d="M17.91,32,5,21.29,13,7.67l15.71-1.1L31,21.74ZM5.78,21.15,17.92,31.2l12.37-9.73L28.15,7.24l-14.8,1Z"/></g></svg>