<svg height="30px" width="30px" xmlns="http://www.w3.org/2000/svg" viewBox="0 0 36 36"><g id="Layer_2" data-name="Layer 2"><path d="M1,11v-.9a1.18,1.18,0,0,1,.84-1.17A9.21,9.21,0,0,0,5.05,7,27.54,27.54,0,0,0,9,3.11a1.47,1.47,0,0,1,1.42-.46c2.18.22,4.37.3,6.56.31a67.58,67.58,0,0,0,7.92-.31,1.81,1.81,0,0,1,1.76.74,24,24,0,0,0,5,4.63,6,6,0,0,0,1.84.88,1.23,1.23,0,0,1,.89,1.31A29.86,29.86,0,0,1,34,14.43a35.71,35.71,0,0,1-1.31,5.4,25.14,25.14,0,0,1-8.43,12.45,19.91,19.91,0,0,1-4.89,2.79l-.58.26a2.85,2.85,0,0,1-2.54-.16,24.92,24.92,0,0,1-3.95-2.1,21.76,21.76,0,0,1-5.79-5.65,27.67,27.67,0,0,1-3.55-7A36.62,36.62,0,0,1,1.34,14C1.19,13,1.07,12,1,11ZM17.69,5.35c-2.27.07-4.54-.12-6.81-.25a.78.78,0,0,0-.7.3A31.94,31.94,0,0,1,6.86,8.66a14.07,14.07,0,0,1-3,2,.71.71,0,0,0-.47.9,14.15,14.15,0,0,1,.23,1.57,32.76,32.76,0,0,0,1,4.8A28,28,0,0,0,7.17,24a19.67,19.67,0,0,0,9,8.5c.68.32,1.29.79,2.22.37a20.9,20.9,0,0,0,6-4,21.64,21.64,0,0,0,4.27-5.85,28.35,28.35,0,0,0,1.83-4.54c.27-.87.47-1.76.69-2.65.36-1.5.51-3,.74-4.55a.45.45,0,0,0-.3-.54,12.62,12.62,0,0,1-1.59-.92A28,28,0,0,1,25.2,5.4a.84.84,0,0,0-.74-.3C22.21,5.22,20,5.42,17.69,5.35Z"/><path d="M17.67,23.23h-4.8c-.78,0-.93-.15-.93-.91V17.9c0-.61.12-.76.73-.8.32,0,.32-.22.32-.44a8.55,8.55,0,0,1,.22-2.25,4.68,4.68,0,0,1,9.17,1.43c0,.28,0,.57,0,.85s.09.42.4.42c.47,0,.65.21.65.69,0,1.55,0,3.09,0,4.63,0,.6-.2.8-.79.8Zm0-6.13c.95,0,1.89,0,2.83,0,.33,0,.47-.12.45-.46a7.85,7.85,0,0,0-.13-1.74,3.08,3.08,0,0,0-2.28-2.32,3.12,3.12,0,0,0-3.43,1.15,4.14,4.14,0,0,0-.69,2.85c0,.38.11.53.51.52C15.85,17.09,16.76,17.1,17.67,17.1Zm0,5h.51c.39,0,.48-.18.37-.56s-.17-.69-.25-1a.83.83,0,0,1,.16-.75.86.86,0,0,0-.17-1.28.89.89,0,0,0-1.2,0,.88.88,0,0,0-.15,1.29.76.76,0,0,1,.16.67c-.08.36-.15.73-.25,1.08s0,.57.39.58Z"/></g></svg>