<svg height="30px" width="30px" id="SvgjsSvg1079" xmlns="http://www.w3.org/2000/svg" version="1.1" xmlns:xlink="http://www.w3.org/1999/xlink" xmlns:svgjs="http://svgjs.com/svgjs"><defs id="SvgjsDefs1080"></defs><g id="SvgjsG1081"><svg xmlns="http://www.w3.org/2000/svg" viewBox="0 0 36 36"><g data-name="Layer 2" fill="#66bb6a" class="color000 svgShape"><path d="M25.2 14h-.06a9.25 9.25 0 01-5-1.85A20.84 20.84 0 0018 10.93c-3.73-1.77-8.57-1.62-14.38.44l-.23-.65c6-2.12 11-2.27 14.9-.42a22.14 22.14 0 012.23 1.26 8.54 8.54 0 004.68 1.75h.05c2.31 0 4.66-1.21 7-3.59l.49.48C30.22 12.72 27.7 14 25.2 14zM25.2 27h-.06a9.25 9.25 0 01-5-1.85A20.84 20.84 0 0018 23.92c-3.73-1.77-8.57-1.62-14.38.44l-.23-.65c6-2.12 11-2.26 14.9-.42a22.14 22.14 0 012.23 1.26 8.54 8.54 0 004.68 1.75c2.34 0 4.69-1.19 7-3.59l.49.48C30.22 25.71 27.7 27 25.2 27z" fill="#66bb6a" class="color000 svgShape"></path><polygon points="17.54 21.73 16.98 21.34 19.42 17.86 16.21 17.86 19.02 13.46 19.6 13.84 17.47 17.17 20.75 17.17 17.54 21.73" fill="#66bb6a" class="color000 svgShape"></polygon></g></svg></g></svg>