<svg height="30px" width="30px" xmlns="http://www.w3.org/2000/svg" viewBox="0 0 36 36"><defs><style>.cls-1{fill:none;stroke:#000;stroke-miterlimit:10;stroke-width:0.8px;}</style></defs><g id="Layer_2" data-name="Layer 2"><path d="M18,7.62c-2.71,0-11.55.15-11.55,2.21V26.17c0,2.06,8.84,2.21,11.55,2.21s11.57-.15,11.57-2.21V9.83C29.56,7.77,20.7,7.62,18,7.62Zm0,1.12c5.49,0,9.29.6,10.27,1.09-1,.5-4.78,1.1-10.27,1.1s-9.27-.6-10.26-1.1C8.72,9.34,12.5,8.74,18,8.74ZM28.25,26.16a2.57,2.57,0,0,1-1.2.38c-.47.1-.93.18-1.4.25-1.33.19-2.67.31-4,.38s-2.43.09-3.65.09c-1.69,0-3.37,0-5.06-.17-.84-.06-1.68-.16-2.51-.28a13.68,13.68,0,0,1-2.31-.45,1,1,0,0,1-.39-.22,1,1,0,0,1-.21-.72c0-.81,0-1.62,0-2.43V12.7a10.45,10.45,0,0,0,0-1.77C10,12,15.87,12.05,18,12.05s8-.1,10.45-1.12v9.59c0,1.68.06,3.36,0,5a.94.94,0,0,1-.09.47A.64.64,0,0,1,28.25,26.16Z"/><path class="cls-1" d="M6.79,19.1s11.69,3.75,22.42,0"/><path class="cls-1" d="M6.79,22.75s11.69,3.76,22.42,0"/><circle cx="25.3" cy="15.57" r="1.54"/></g></svg>