<svg height="30px" width="30px" xmlns="http://www.w3.org/2000/svg" viewBox="0 0 36 36"><defs><style>.cls-1{fill:none;stroke-width:0.8px;}.cls-1,.cls-2{stroke:#000;stroke-miterlimit:10;}.cls-2{stroke-width:0.25px;}</style></defs><g id="Layer_2" data-name="Layer 2"><path d="M8,12.72c-1.43,0-6.1.08-6.1,1.16v8.63c0,1.09,4.67,1.17,6.1,1.17s6.1-.08,6.1-1.17V13.88C14.13,12.8,9.46,12.72,8,12.72Zm0,.59a18,18,0,0,1,5.42.57A17.06,17.06,0,0,1,8,14.47a17,17,0,0,1-5.42-.59A18,18,0,0,1,8,13.31Zm5.41,9.19a1.31,1.31,0,0,1-.63.21l-.74.13c-.7.1-1.41.16-2.12.2s-1.28.05-1.92.05c-.9,0-1.79,0-2.68-.09q-.66-.06-1.32-.15a6.27,6.27,0,0,1-1.22-.24.7.7,0,0,1-.21-.11.57.57,0,0,1-.11-.38c0-.43,0-.86,0-1.29V15.4a5.77,5.77,0,0,0,0-.93c1.3.54,4.39.59,5.51.59s4.21-.05,5.51-.59v5.06c0,.89,0,1.77,0,2.66a.42.42,0,0,1,0,.25A.15.15,0,0,1,13.44,22.5Z"/><path class="cls-1" d="M2.11,18.78s6.17,2,11.84,0"/><path class="cls-1" d="M2.11,20.71s6.17,2,11.84,0"/><path class="cls-2" d="M20.49,8.68a16.53,16.53,0,0,0-10.14,3.2,1.92,1.92,0,0,1,.49.19,16.25,16.25,0,0,1,9.65-2.94c7.24,0,13.13,4,13.13,8.87s-5.89,8.87-13.13,8.87A16.41,16.41,0,0,1,11,24.05a1.51,1.51,0,0,1-.49.18,16.6,16.6,0,0,0,10,3.09c7.49,0,13.58-4.18,13.58-9.32S28,8.68,20.49,8.68Z"/></g></svg>