<svg height="30px" width="30px" id="SvgjsSvg1399"   xmlns="http://www.w3.org/2000/svg" version="1.1" xmlns:xlink="http://www.w3.org/1999/xlink" xmlns:svgjs="http://svgjs.com/svgjs"><defs id="SvgjsDefs1400"></defs><g id="SvgjsG1401"><svg xmlns="http://www.w3.org/2000/svg" viewBox="0 0 36 36"  ><g data-name="Layer 2" fill="#ce93d8" class="color000 svgShape"><path d="M18.37,13.07c-1.53,0-6.52.09-6.52,1.25v9.22c0,1.16,5,1.25,6.52,1.25s6.53-.09,6.53-1.25V14.32C24.9,13.16,19.9,13.07,18.37,13.07Zm0,.63a18.63,18.63,0,0,1,5.8.62,18.63,18.63,0,0,1-5.8.62,18.59,18.59,0,0,1-5.79-.62A18.59,18.59,0,0,1,18.37,13.7Zm5.79,9.84a1.47,1.47,0,0,1-.68.21c-.26.06-.52.1-.79.14-.75.11-1.5.18-2.26.22s-1.37.05-2.06.05c-.95,0-1.9,0-2.85-.1-.48,0-.95-.09-1.42-.16a7.22,7.22,0,0,1-1.31-.25.48.48,0,0,1-.21-.12.49.49,0,0,1-.12-.41c0-.46,0-.91,0-1.37V15.94a5.56,5.56,0,0,0,0-1c1.39.58,4.69.63,5.89.63s4.51-.05,5.9-.63v5.41c0,.95,0,1.9,0,2.85a.62.62,0,0,1-.05.27Z" fill="#ce93d8" class="color000 svgShape"></path><path fill="none" stroke="#ce93d8" stroke-miterlimit="10" stroke-width=".8" d="M12.05 19.55s6.6 2.12 12.65 0M12.05 21.61s6.6 2.12 12.65 0" class="colorStroke000 svgStroke"></path><path fill="#ce93d8" d="M19.59,5.15c3.34,0,6.68,0,10,0A1.93,1.93,0,0,1,29.82,9h-.33c-.95,0-.95,0-.95.93V28.54a2,2,0,0,1-2.3,2.31H6.47A1.93,1.93,0,0,1,6.08,27h.38c1,0,1,0,1-1V7.46A2,2,0,0,1,9.75,5.15ZM8.22,8c0,6.58,0,13,0,19.44a4.29,4.29,0,0,1-.38,2.64H26.29c1.07,0,1.49-.42,1.49-1.51q0-9.54,0-19.06c0-.46-.15-.52-.55-.52H9.69A1.38,1.38,0,0,1,8.22,8ZM11,8.26H29.71a1.13,1.13,0,0,0,1.08-.7A1.19,1.19,0,0,0,29.57,5.9H11.27c-.09,0-.19-.06-.26.08A2.06,2.06,0,0,1,11,8.26Zm-4.23,21-.21,0a.17.17,0,0,1-.12,0,.24.24,0,0,1-.1-.18.62.62,0,0,1,0-.38c.09-.31.56-.37.34-.77s-.42-.23-.66-.16a1.17,1.17,0,0,0-.26,2.14A1.11,1.11,0,0,0,7,29.87a.91.91,0,0,0,.33-.37C7.41,29.24,7,29.25,6.73,29.27ZM8.24,7.61a1.27,1.27,0,0,1,1.3-.89h.71c.25,0,.26-.1.14-.28a1.12,1.12,0,0,0-1.08-.53,1.14,1.14,0,0,0-1,.78A1.91,1.91,0,0,0,8.24,7.61Zm2.23-.14H9.4A.37.37,0,0,0,9,7.9c0,.26.2.36.45.36A1.1,1.1,0,0,0,10.47,7.47Z" class="color030303 svgShape"></path></g></svg></g></svg>