<svg height="30px" width="30px" xmlns="http://www.w3.org/2000/svg" viewBox="0 0 36 36"><g id="Layer_2" data-name="Layer 2"><path d="M21.58,31.12a29.94,29.94,0,0,1-3.23.18c-7.25,0-12.3-2.64-12.3-5V24.84c2.26,2.09,6.87,3.51,12.3,3.51.29,0,.56,0,.85,0a7.81,7.81,0,0,1-.57-1.48h-.28c-7.25,0-12.3-2.64-12.3-5v-2.7c2.26,2.09,6.87,3.51,12.3,3.51l.31,0a9,9,0,0,1,.61-1.51c-.3,0-.61,0-.92,0-7.25,0-12.3-2.64-12.3-5V12.7c2.26,2.1,6.87,3.52,12.3,3.52s10-1.42,12.31-3.52v3.44a2.57,2.57,0,0,1-.87,1.74,8,8,0,0,1,2.37,1.91V9.71c0-3.66-6.06-6.51-13.81-6.51S4.55,6.05,4.55,9.71V26.29c0,3.66,6.06,6.51,13.8,6.51a28.26,28.26,0,0,0,5.54-.52A8,8,0,0,1,21.58,31.12ZM18.35,4.7c7.26,0,12.31,2.64,12.31,5s-5.05,5-12.31,5-12.3-2.64-12.3-5S11.1,4.7,18.35,4.7Z"/><path d="M26.17,18.08a6.73,6.73,0,1,0,6.72,6.72A6.72,6.72,0,0,0,26.17,18.08ZM23.55,28.43H22.07V26.94h1.48Zm0-2.59H22.07V24.35h1.48Zm0-2.6H22.07V21.76h1.48Zm7,5.19h-6.2V26.94h6.2Zm0-2.59h-6.2V24.35h6.2Zm0-2.6h-6.2V21.76h6.2Z"/></g></svg>