<svg  height="30px" width="30px" xmlns="http://www.w3.org/2000/svg" viewBox="0 0 36 36"><g id="Layer_2" data-name="Layer 2"><path d="M11.52,8a1.33,1.33,0,0,1,1.32-1.25l.24,0A16.22,16.22,0,0,1,14,5.13a14.55,14.55,0,0,0-7.41,4.94,18.78,18.78,0,0,1,3.51-1.61A15.25,15.25,0,0,1,11.52,8Z"/><path d="M7.48,21.26A1.34,1.34,0,0,1,7,19.15,16,16,0,0,1,4.72,13,14.49,14.49,0,0,0,8.19,29.89,18.9,18.9,0,0,1,7.48,21.26Z"/><path d="M8.32,18.74a21.32,21.32,0,0,1,2.56-4.55,1.33,1.33,0,0,1,.91-2.12,15.15,15.15,0,0,1,.43-2.78,1.33,1.33,0,0,1-.65-.8c-.48.12-.94.25-1.36.39a18.59,18.59,0,0,0-4.41,2.2A14.24,14.24,0,0,0,5,12.44a15.38,15.38,0,0,0,2.22,6.48,1.31,1.31,0,0,1,1.1-.18Z"/><path d="M18.88,9.29a.53.53,0,0,1,0-.13,1.26,1.26,0,0,1,.05-.33,11.61,11.61,0,0,0-4.75-.73h0a1.32,1.32,0,0,1-1.33,1.33,1.36,1.36,0,0,1-.29,0,14,14,0,0,0-.42,2.66,1.37,1.37,0,0,1,.68.31A15.12,15.12,0,0,1,18.88,9.29Z"/><path d="M14.09,7.65a11.88,11.88,0,0,1,5,.76,1.33,1.33,0,0,1,2.39.45,19.88,19.88,0,0,1,7.75,1.21A14.47,14.47,0,0,0,14.44,5a12.15,12.15,0,0,0-1,1.9A1.34,1.34,0,0,1,14.09,7.65Z"/><path d="M9.29,20a1.34,1.34,0,0,1-.42,1,15.92,15.92,0,0,0,8.55,4.86,1.1,1.1,0,0,1,0-.18c0-.06,0-.11,0-.16A16.28,16.28,0,0,1,12,16.8a14.29,14.29,0,0,1-.3-2.1,1.39,1.39,0,0,1-.59-.27,21,21,0,0,0-2.48,4.45A1.31,1.31,0,0,1,9.29,20Z"/><path d="M28.07,28.9a17.65,17.65,0,0,1-8.68-2.07,1.34,1.34,0,0,1-1.87-.6A16.09,16.09,0,0,1,10,22.58,17.27,17.27,0,0,1,8.58,21.2a1.29,1.29,0,0,1-.62.15H7.82c-.25,2-.49,6,.93,9h0A14.5,14.5,0,0,0,28.59,28.9Z"/><path d="M29.64,10.59A19.68,19.68,0,0,0,21.53,9.2s0,.06,0,.09a12.07,12.07,0,0,1,3.78,2.39,16.29,16.29,0,0,1,5,9.67,1.43,1.43,0,0,1,.55.13c.6-.54,1.16-1.07,1.52-1.46,0-.31,0-.61,0-.92A14.47,14.47,0,0,0,29.64,10.59Z"/><path d="M30,21.39a16.06,16.06,0,0,0-4.88-9.45,12.65,12.65,0,0,0-3.63-2.32,1.33,1.33,0,0,1-2.5,0,14.89,14.89,0,0,0-5.91,3,1.25,1.25,0,0,1,.23.74,1.33,1.33,0,0,1-1.22,1.32,14.68,14.68,0,0,0,.3,2,15.92,15.92,0,0,0,5.16,8.41,1.34,1.34,0,0,1,1.22-.8,1.32,1.32,0,0,1,1.33,1.33A1.34,1.34,0,0,1,20,26a17.1,17.1,0,0,0,9.08-2.76L29,23.14l0,0a1.25,1.25,0,0,1-.07-.43A1.34,1.34,0,0,1,30,21.39Z"/><path d="M31.61,22.68A1.34,1.34,0,0,1,30.31,24a30.26,30.26,0,0,1-.37,3.17,14.47,14.47,0,0,0,2.38-6.62c-.33.34-.75.73-1.17,1.12A1.32,1.32,0,0,1,31.61,22.68Z"/><path d="M30,24a1.32,1.32,0,0,1-.69-.41,17.88,17.88,0,0,1-7.82,2.75c-.52.05-1,.07-1.43.07h-.17a1.3,1.3,0,0,1-.18.23,17.82,17.82,0,0,0,9.22,1.93c.18-.2.35-.42.52-.64A22.29,22.29,0,0,0,30,24Z"/></g></svg>