<svg height="30px" width="30px" id="SvgjsSvg1150"   xmlns="http://www.w3.org/2000/svg" version="1.1" xmlns:xlink="http://www.w3.org/1999/xlink" xmlns:svgjs="http://svgjs.com/svgjs"><defs id="SvgjsDefs1151"></defs><g id="SvgjsG1152"><svg xmlns="http://www.w3.org/2000/svg" viewBox="0 0 36 36"  ><g data-name="Layer 2" fill="#b22222" class="color000 svgShape"><path d="M5.6 19.1a1.79 1.79 0 00-.89.2 4.32 4.32 0 01-3.84-.15 1.1 1.1 0 010-2A3 3 0 012 16.72a4.31 4.31 0 013.28.57c.28.2.69.08 1 .05.14 0 .09-.21.1-.32a12.47 12.47 0 012.5-6.43A10.53 10.53 0 0111 8.42c.25-.19.27-.33.11-.59C10.59 6.91 10.07 6 9.51 5a5.5 5.5 0 01-.76-2 1.27 1.27 0 01.46-1.43 1.13 1.13 0 011.39.2 4.83 4.83 0 012 3.91 2.32 2.32 0 00.3 1.13c.12.23.23.21.43.12A11.39 11.39 0 0123 6.93c.23.1.33.1.46-.13a1.48 1.48 0 00.3-1.29 1.51 1.51 0 01.06-.81 5.78 5.78 0 011.7-2.87c.61-.54 1.22-.69 1.66-.43s.6.91.42 1.7A7.23 7.23 0 0126.78 5c-.52.94-1.06 1.88-1.62 2.81-.16.25-.11.37.11.55a12.32 12.32 0 014.59 7.51A10.08 10.08 0 0130 17.09c0 .21.09.29.31.28a2.55 2.55 0 001-.21 4.35 4.35 0 013.84 0 1.15 1.15 0 010 2.21 4.36 4.36 0 01-4-.1 2 2 0 00-1.06-.12c-.2 0-.13.2-.15.32a12.37 12.37 0 01-1.19 4.29 11.8 11.8 0 01-3.31 4.2c-.26.2-.24.34-.09.59.52.85 1 1.73 1.56 2.57a4.27 4.27 0 01.82 2.39c0 1-.8 1.56-1.65 1a4.72 4.72 0 01-2.23-4.24c0-.36-.22-.59-.36-.86s-.23 0-.32 0a11.54 11.54 0 01-10.06 0c-.12-.07-.29-.28-.43-.08s-.36.36-.23.65a1.93 1.93 0 01.05 1.34 5.62 5.62 0 01-1.74 2.89 2.55 2.55 0 01-.41.3 1 1 0 01-1.7-1A4.65 4.65 0 019 32.11a18.24 18.24 0 011.84-3.6c.18-.3.17-.44-.11-.68a12.14 12.14 0 01-4.27-7.6c0-.15-.06-.3-.08-.45C6.35 19.1 6.35 19.1 5.6 19.1zm23.55-1.64l0 .16s0 0 0 0 0-.12 0-.15a6.82 6.82 0 00-.3-2.15A10.76 10.76 0 0027.44 12 1.59 1.59 0 0127 13.11a1.67 1.67 0 01-1.17.33 10.25 10.25 0 011.24 3.89c.67-.61 1.13-.68 1.68-.26A3.78 3.78 0 0129.15 17.46zM14.58 18.81A4.57 4.57 0 0015.13 21a3.38 3.38 0 005.38 1 4.31 4.31 0 00.59-5.48 3.32 3.32 0 00-3.4-1.58A3.9 3.9 0 0014.58 18.81zm8.48-7.36l-2 3.39c-.07.13-.13.22 0 .35a4.59 4.59 0 011.25 2 .24.24 0 00.26.19h3.59A8.73 8.73 0 0023.06 11.45zm-11 5.91c.52 0 1 0 1.56 0a.4.4 0 00.46-.31 4.38 4.38 0 011.07-1.73.34.34 0 000-.5c-.59-1-1.17-2-1.73-3-.16-.27-.26-.28-.49-.06a8.78 8.78 0 00-2.76 5.36c0 .25.07.24.24.24zm6.14-7.62a7.15 7.15 0 00-2.87.55c-.25.09-.34.16-.18.43.62 1 1.22 2.07 1.81 3.12.1.19.21.27.42.22a3.42 3.42 0 011.59 0 .29.29 0 00.36-.18c.62-1.08 1.24-2.16 1.87-3.24.12-.2.09-.26-.13-.35A7.33 7.33 0 0018.19 9.74zm0 17a7.2 7.2 0 003.1-.63c.24-.09.31-.18.16-.42q-.63-1.05-1.23-2.13c-.12-.21-.22-.27-.46-.17a3.92 3.92 0 01-3.2 0c-.2-.09-.32-.11-.45.13-.39.72-.81 1.43-1.24 2.13-.15.26-.08.37.17.47A7.41 7.41 0 0018.19 26.72zm8-7.62H22.83c-.19 0-.18.1-.2.23a4.89 4.89 0 01-.92 2.44c-.13.18 0 .29.06.41.44.78.91 1.55 1.34 2.34.16.31.26.25.47.05A8.79 8.79 0 0026.22 19.1zm-16 0c0 .22.05.4.08.57a8.65 8.65 0 002.55 4.9c.18.16.25.14.36-.06.47-.82.94-1.64 1.42-2.45a.33.33 0 000-.38 5.14 5.14 0 01-.85-2.33c0-.16 0-.25-.22-.25zm8.5 10.62a10.66 10.66 0 004.37-1.17 1.47 1.47 0 01-.84-2 8.7 8.7 0 01-3.8 1A1.43 1.43 0 0118.69 29.72zM9.34 18a10.08 10.08 0 01.76-3.64c-1.19 0-1.52-.56-1.61-1.56a11.63 11.63 0 00-1.31 4.84C8.16 17 8.58 17 9.34 18zM28 23.48a10.07 10.07 0 001.23-4.95c-.69.93-1.21 1-2.13.27a10.56 10.56 0 01-.76 3.31A1.26 1.26 0 0128 23.48zm-.38.83c-1.26.46-1.66 0-2-.83A9.63 9.63 0 0123.21 26c.94.17 1.28.63 1.19 1.53 0 .06 0 .12.06.15s.14 0 .2-.07A11.58 11.58 0 0027.58 24.31zM9.33 18.75a1.46 1.46 0 01-1 .89c-.43.11-.76-.16-1.15-.39a11.31 11.31 0 001.3 4.46c.08-1 .44-1.41 1.38-1.48.31 0 .2-.16.14-.32A10.51 10.51 0 019.33 18.75zm4-8.35a1.28 1.28 0 01-1.17-.49A1.3 1.3 0 0112 8.73 10.7 10.7 0 008.9 12.11a1.45 1.45 0 011.21-.18 1.44 1.44 0 01.8 1A9.81 9.81 0 0113.36 10.4zm4.18-1.49a1.37 1.37 0 01-.26-2.13 10.19 10.19 0 00-3.93 1.14 1.44 1.44 0 01.86.79 1.52 1.52 0 01-.13 1.23A9.71 9.71 0 0117.54 8.91zM10.93 23.59a1.54 1.54 0 01-.72 1 1.5 1.5 0 01-1.29-.12A11.31 11.31 0 0012 27.73c-.14-1.12.1-1.55 1.06-1.88A9.36 9.36 0 0110.93 23.59zM21.76 9.66a1.24 1.24 0 01.15-1.25A1.37 1.37 0 0123 7.88a10.52 10.52 0 00-4.22-1.12 1.55 1.55 0 01.46 1.1 1.41 1.41 0 01-.67 1A9.13 9.13 0 0121.76 9.66zM17.38 27.54a9.36 9.36 0 01-3.2-1 1.4 1.4 0 01-.95 1.94A10.35 10.35 0 0017 29.65C16.55 28.62 16.62 28.19 17.38 27.54zM23.71 8.28A1.52 1.52 0 0124 9.55c-.14.44-.5.64-.87.87A9.76 9.76 0 0125 12.2c.31-1.14.88-1.39 1.82-1.17A10.81 10.81 0 0023.71 8.28zm9.57 10.65A3.44 3.44 0 0035 18.52c.31-.2.33-.35 0-.56a3.63 3.63 0 00-3.36 0c-.27.2-.31.33 0 .53A3.28 3.28 0 0033.28 18.93zM2.93 17.44a3.24 3.24 0 00-1.69.45c-.26.17-.3.29 0 .5a3.6 3.6 0 003.43 0c.28-.21.23-.34 0-.51A3.37 3.37 0 002.93 17.44zm8.89 13.34c0-.22 0-.37-.1-.46s-.27 0-.37.1a4.5 4.5 0 00-1.78 3.07c0 .13 0 .3.11.37s.27 0 .38-.12A4.69 4.69 0 0011.82 30.78zm0-25.35a4.59 4.59 0 00-1.82-3c-.3-.22-.48-.12-.43.24A4.35 4.35 0 0011.4 5.82C11.69 6 11.82 5.92 11.82 5.43zm12.71-.15c0 .15 0 .34.09.4s.3 0 .41-.11a4.39 4.39 0 001.74-3.09c0-.37-.12-.46-.42-.24A4.56 4.56 0 0024.53 5.28zm2.43 28a4.57 4.57 0 00-1.83-2.94c-.26-.19-.41-.12-.38.23a4.2 4.2 0 001.78 3.15C26.85 33.93 27 33.84 27 33.26zM16.27 14.36c0-.07-.08-.16-.13-.23-.58-1-1.15-2-1.74-3-.06-.1-.05-.36-.3-.21s0 .26 0 .37c.47.83.94 1.64 1.42 2.46l.39.67c.05.09.1.15.21.1A.15.15 0 0016.27 14.36zM22.33 11a.17.17 0 00-.12-.17c-.18-.09-.21.08-.26.17-.6 1-1.19 2.05-1.78 3.08-.06.1-.26.23 0 .36s.25-.1.31-.21c.59-1 1.17-2 1.75-3zM21 22.62a.23.23 0 00-.1.37c.46.77.9 1.56 1.35 2.33 0 .07.06.23.22.15s.16-.16.08-.3l-1.4-2.41C21.09 22.7 21.07 22.61 21 22.62zm-5.45.19a.21.21 0 00-.14-.24c-.11-.05-.14.07-.18.14-.46.79-.91 1.58-1.37 2.36-.08.13-.13.25.05.34s.19-.09.24-.18L15.42 23C15.46 22.92 15.49 22.85 15.52 22.81zm-2 4.38c0-.24-.11-.46-.36-.46s-.36.2-.37.43.11.45.35.46S13.44 27.4 13.48 27.19zm10.18.1c0-.24-.1-.45-.35-.47s-.37.2-.38.43a.4.4 0 00.34.46C23.53 27.73 23.61 27.5 23.66 27.29zm-5.4 1.38c-.08-.16-.13-.41-.4-.39a.41.41 0 00-.34.47c0 .23.13.45.38.43S18.23 28.94 18.26 28.67zm8.52-5a.42.42 0 00.36-.41.37.37 0 10-.73 0A.41.41 0 0026.78 23.7zM18.08 8.2a.42.42 0 00.35-.42.37.37 0 00-.36-.4c-.25 0-.38.19-.37.43A.4.4 0 0018.08 8.2zm-4.6.93c0-.2-.14-.39-.37-.38a.37.37 0 00-.36.44.36.36 0 00.39.37C13.37 9.54 13.46 9.36 13.48 9.13zm9.73 0c0-.21-.14-.4-.37-.4a.37.37 0 00-.37.43.36.36 0 00.38.38C23.08 9.55 23.17 9.37 23.21 9.15zm4.86 9.32a.4.4 0 00.35-.42.36.36 0 10-.72 0A.39.39 0 0028.07 18.47zm-19.54 0c0-.22-.12-.41-.35-.42s-.38.18-.38.42a.35.35 0 00.36.39C8.4 18.82 8.49 18.64 8.53 18.43zm1.2-4.9a.45.45 0 00.35-.4.36.36 0 00-.32-.43c-.26 0-.39.15-.4.39S9.49 13.45 9.73 13.53zM26.6 12.12c-.06-.15-.14-.36-.38-.34a.36.36 0 00-.35.44c0 .22.15.39.38.37S26.58 12.38 26.6 12.12zM9.74 23.88a.42.42 0 00.34-.43.36.36 0 00-.36-.4.37.37 0 00-.36.44A.39.39 0 009.74 23.88zM24.89 6.57c-.31 0-.88.61-.86.86s.09.12.15.16.14 0 .17-.07C24.53 7.21 24.71 6.9 24.89 6.57zM11.53 6.8l.43.75c0 .06.09.13.18.09s.14-.07.15-.16S11.85 6.81 11.53 6.8zM22.7 18.21l0 0h3.44v0zm-9 .05v-.05h-3.5v.05zM11.31 29.44c.51.1.54-.33.7-.58.06-.08 0-.13-.09-.18s-.16 0-.21.08zm13.61-.1l-.31-.54a.13.13 0 00-.22-.06c-.07 0-.13.11-.08.18S24.47 29.5 24.92 29.34zM29.22 17.59s0 0 0 0l0-.16" fill="#b22222" class="color000 svgShape"></path><path d="M16.22,18.84a2.53,2.53,0,0,1,.47-1.57,1.78,1.78,0,0,1,3,0,2.67,2.67,0,0,1,.13,2.93,1.8,1.8,0,0,1-1.88,1,2.1,2.1,0,0,1-1.63-1.54A2.44,2.44,0,0,1,16.22,18.84Zm.84,0c0,.83.54,1.57,1.15,1.57s1.14-.75,1.14-1.58-.53-1.52-1.13-1.54S17.06,18,17.06,18.82Z" fill="#b22222" class="color000 svgShape"></path></g></svg></g></svg>