<svg height="30px" width="30px" id="SvgjsSvg1129"   xmlns="http://www.w3.org/2000/svg" version="1.1" xmlns:xlink="http://www.w3.org/1999/xlink" xmlns:svgjs="http://svgjs.com/svgjs">
<defs id="SvgjsDefs1130">
</defs><g id="SvgjsG1131"><svg xmlns="http://www.w3.org/2000/svg" viewBox="0 0 36 36"  >
<g data-name="Layer 1" fill="#8d6e63" class="color000 svgShape">
<line x1="7.25" x2="24.58" y1="30.26" y2="20.46" fill="none" stroke="#8d6e63" stroke-miterlimit="10" class="colorStroke000 svgStroke">
</line><polyline fill="none" stroke="#8d6e63" stroke-miterlimit="10" points="22.2 29.82 16.35 32.96 9.63 21.34 21.13 14.68">
</polyline><circle cx="21.14" cy="14.68" r="1.44" fill="#8d6e63" class="color000 svgShape">
</circle><path d="M27.08 10.32a.94.94 0 11-.94.94.94.94 0 01.94-.94m0-.5a1.44 1.44 0 101.43 1.44 1.43 1.43 0 00-1.43-1.44zM30.31 16.16a.94.94 0 11-.93.94.94.94 0 01.93-.94m0-.5a1.44 1.44 0 101.44 1.44 1.43 1.43 0 00-1.44-1.44zM28 25.33a.94.94 0 11-.94.94.94.94 0 01.94-.94m0-.5a1.44 1.44 0 101.43 1.44A1.44 1.44 0 0028 24.83z" fill="#8d6e63" class="color000 svgShape">
</path><circle cx="15.54" cy="18.12" r="1.44" fill="#8d6e63" class="color000 svgShape">
</circle><circle cx="18.79" cy="23.92" r="1.44" fill="#8d6e63" class="color000 svgShape">
</circle><circle cx="13.04" cy="27.27" r="1.44" fill="#8d6e63" class="color000 svgShape">
</circle><circle cx="7.25" cy="30.61" r="1.44" fill="#8d6e63" class="color000 svgShape">
</circle><circle cx="24.39" cy="20.46" r="1.44" fill="#8d6e63" class="color000 svgShape">
</circle><circle cx="22.19" cy="29.6" r="1.44" fill="#8d6e63" class="color000 svgShape">
</circle><circle cx="23.15" cy="13.68" r=".43" fill="#8d6e63" class="color000 svgShape">
</circle><circle cx="24.18" cy="13.12" r=".43" fill="#8d6e63" class="color000 svgShape">
</circle><circle cx="25.21" cy="12.49" r=".43" fill="#8d6e63" class="color000 svgShape">
</circle><circle cx="17.67" cy="2.18" r=".54" fill="#8d6e63" class="color000 svgShape">
</circle><circle cx="26.39" cy="19.33" r=".43" fill="#8d6e63" class="color000 svgShape">
</circle><circle cx="27.42" cy="18.78" r=".43" fill="#8d6e63" class="color000 svgShape">
</circle><circle cx="28.45" cy="18.14" r=".43" fill="#8d6e63" class="color000 svgShape">
</circle><circle cx="24.18" cy="28.56" r=".43" fill="#8d6e63" class="color000 svgShape">
</circle><circle cx="25.21" cy="28.01" r=".43" fill="#8d6e63" class="color000 svgShape">
</circle><circle cx="26.24" cy="27.37" r=".43" fill="#8d6e63" class="color000 svgShape">
</circle><circle cx="3.32" cy="32.85" r=".43" fill="#8d6e63" class="color000 svgShape">
</circle><circle cx="4.35" cy="32.3" r=".43" fill="#8d6e63" class="color000 svgShape">
</circle><circle cx="5.38" cy="31.66" r=".43" fill="#8d6e63" class="color000 svgShape">
</circle><line x1="17.67" x2="17.67" y1="2.58" y2="7.51" fill="none" stroke="#8d6e63" stroke-miterlimit="10" class="colorStroke000 svgStroke">
</line><circle cx="17.67" cy="8.38" r="1.44" fill="#8d6e63" class="color000 svgShape">
</circle><polygon points="16.79 2.86 16.79 5.8 13.18 4.2 16.79 2.86" fill="#8d6e63" class="color000 svgShape">
</polygon><line x1="17.67" x2="11.35" y1="8.38" y2="12.27" fill="none" stroke="#8d6e63" stroke-miterlimit="10" class="colorStroke000 svgStroke">
</line><line x1="15.54" x2="11.52" y1="18.12" y2="11.6" fill="none" stroke="#8d6e63" stroke-miterlimit="10" class="colorStroke000 svgStroke">
</line>
</g>
</svg>
</g>
</svg>