<svg height="30px" width="30px" id="SvgjsSvg1157"   xmlns="http://www.w3.org/2000/svg" version="1.1" xmlns:xlink="http://www.w3.org/1999/xlink" xmlns:svgjs="http://svgjs.com/svgjs"><defs id="SvgjsDefs1158"></defs><g id="SvgjsG1159"><svg xmlns="http://www.w3.org/2000/svg" viewBox="0 0 36 36"  ><g data-name="Layer 2" fill="#b22222" class="color000 svgShape"><path d="M18,33.85A15.64,15.64,0,0,1,2.61,18,15.64,15.64,0,0,1,18,2.15,15.64,15.64,0,0,1,33.39,18,15.64,15.64,0,0,1,18,33.85ZM18,2.9A14.9,14.9,0,0,0,3.36,18,14.9,14.9,0,0,0,18,33.1,14.9,14.9,0,0,0,32.64,18,14.9,14.9,0,0,0,18,2.9Zm0,26.33A11.09,11.09,0,0,1,7.09,18,11.09,11.09,0,0,1,18,6.77,11.09,11.09,0,0,1,28.91,18,11.09,11.09,0,0,1,18,29.23ZM18,7.52A10.34,10.34,0,0,0,7.84,18,10.34,10.34,0,0,0,18,28.48,10.34,10.34,0,0,0,28.16,18,10.34,10.34,0,0,0,18,7.52Z" fill="#b22222" class="color000 svgShape"></path><rect width=".75" height="7.3" x="17.63" y="2.53" fill="#b22222" class="color000 svgShape"></rect><rect width=".75" height="7.3" x="17.63" y="26.19" fill="#b22222" class="color000 svgShape"></rect><rect width="7.1" height=".75" x="2.99" y="17.02" fill="#b22222" class="color000 svgShape"></rect><rect width="7.1" height=".75" x="25.65" y="17.63" fill="#b22222" class="color000 svgShape"></rect><circle cx="18" cy="18" r="6.23" fill="#b22222" class="color000 svgShape"></circle></g></svg></g></svg>