<svg height="30px" width="30px" id="Layer_1" data-name="Layer 1" xmlns="http://www.w3.org/2000/svg" viewBox="0 0 36 36"><defs><style>.cls-1{fill:#ff5097b3;}.cls-2{fill:#ff5097b3;}.cls-3,.cls-4{fill:none;stroke-miterlimit:10;}.cls-3{stroke:#ff5097b3;}.cls-4{stroke:#ff5097b3;}</style></defs><path class="cls-1" d="M15.35,3.2h6.38a2.54,2.54,0,0,1,2.54,2.54v.57h1.1V5.74a3.64,3.64,0,0,0-3.63-3.63H15.35"/><path class="cls-2" d="M16.09,21.35a.63.63,0,0,0,1.26,0,.63.63,0,0,0-1.26,0Z"/><path class="cls-2" d="M20.13,15.11a.59.59,0,0,0,.33-.33.62.62,0,0,0-.34-.81.68.68,0,0,0-.23-.05.63.63,0,0,0-.58.39.62.62,0,0,0,.82.8Z"/><circle class="cls-2" cx="18.18" cy="18.81" r="0.63"/><path class="cls-2" d="M16.72,20.19a1.16,1.16,0,0,1,1.13.9h.85l.66.59h2l.66-.59H24.7v-2H22.43l-.72.64a1.09,1.09,0,0,1,.11.48A1.17,1.17,0,1,1,20.66,19a1.12,1.12,0,0,1,.72.25l.85-.75H24.7V14.19A1.75,1.75,0,0,0,23,12.44H14.48a1.75,1.75,0,0,0-1.75,1.75V15.6h2l1.53-1.32h2.47a.84.84,0,0,1,0-.17A1.16,1.16,0,0,1,21,15a1.14,1.14,0,0,1-1.08.73,1.11,1.11,0,0,1-.43-.09,1.13,1.13,0,0,1-.69-.8H16.49L15,16.13H12.73v1.54h2.46l.76.87h1.1a1.16,1.16,0,1,1,0,.54H15.71l-.77-.88H12.73v4.46a1.75,1.75,0,0,0,1.75,1.75H23a1.75,1.75,0,0,0,1.75-1.75v-1H22.25l-.65.59H19.15l-.66-.59h-.64a1.16,1.16,0,1,1-1.13-1.43Zm4.91-6.83H23a.92.92,0,0,1,.92.92v2.84a.27.27,0,0,1-.54,0V14.28A.38.38,0,0,0,23,13.9H21.63a.27.27,0,0,1,0-.54Zm-5.78,9.47a.27.27,0,1,1,0,.53H14.54a.92.92,0,0,1-.92-.92V19.61a.27.27,0,1,1,.53,0v2.83a.38.38,0,0,0,.39.39Z"/><path class="cls-2" d="M20,20.2a.63.63,0,1,0,.63-.63A.63.63,0,0,0,20,20.2Z"/><path class="cls-1" d="M6.21,24.85V24H5.45a2.54,2.54,0,0,1-2.54-2.54V15.07a2.54,2.54,0,0,1,2.54-2.54h.76v-.86a1.6,1.6,0,0,1,0-.23H5.45a3.64,3.64,0,0,0-3.64,3.63v6.38a3.64,3.64,0,0,0,3.64,3.63h.79A1.81,1.81,0,0,1,6.21,24.85Z"/><path class="cls-1" d="M11.34,6.5a4.66,4.66,0,0,0-4.62,4.81V23.62H7.81V11.31A3.56,3.56,0,0,1,11.34,7.6h.35V6.5Z"/><path class="cls-1" d="M23.92,30H11.52a4.79,4.79,0,0,1-4.78-4.57H7.83a3.7,3.7,0,0,0,3.69,3.48h12.4Z"/><path class="cls-1" d="M13.08,10.9V5.74A2.54,2.54,0,0,1,15.62,3.2V2.11A3.64,3.64,0,0,0,12,5.74V10.9Z"/><path class="cls-1" d="M12,28.45h1.09v-2.7s.12,0-1.09,0Z"/><rect class="cls-1" x="8.25" y="11.47" width="3.74" height="1.09"/><line class="cls-3" x1="6.18" y1="24.54" x2="11.24" y2="24.54"/><path class="cls-4" d="M13.32,7.15H27.1s1.57-.18,1.54,1.1V11.1"/><line class="cls-4" x1="24.8" y1="8.03" x2="24.8" y2="10.9"/><path class="cls-3" d="M24.81,25.75v5.83a2.31,2.31,0,0,1-2.32,2.31H14.85a2.3,2.3,0,0,1-2.31-2.31v-1"/><path class="cls-2" d="M29.18,13.12v12.1c0,2.64-.25,4.79-2.89,4.79h-.56V28.92h.56c2,0,1.8-1.66,1.8-3.7V13.12Z"/><path class="cls-2" d="M34.19,15.07v6.38a3.64,3.64,0,0,1-3.63,3.63H25.44V24h5.12a2.54,2.54,0,0,0,2.53-2.54V15.07c0-1.4-1.13-2.54-3.62-2.54H25.84v-1.1h3.63C32.56,11.44,34.19,13.07,34.19,15.07Z"/></svg>