<svg xmlns="http://www.w3.org/2000/svg" viewBox="0 0 36 36"><defs><style>.cls-1{fill:none;stroke:#000;stroke-miterlimit:10;}</style></defs><g id="Layer_1" data-name="Layer 1"><line class="cls-1" x1="7.25" y1="30.26" x2="24.58" y2="20.46"/><polyline class="cls-1" points="22.2 29.82 16.35 32.96 9.63 21.34 21.13 14.68"/><circle cx="21.14" cy="14.68" r="1.44"/><path d="M27.08,10.32a.94.94,0,1,1-.94.94.94.94,0,0,1,.94-.94m0-.5a1.44,1.44,0,1,0,1.43,1.44,1.43,1.43,0,0,0-1.43-1.44Z"/><path d="M30.31,16.16a.94.94,0,1,1-.93.94.94.94,0,0,1,.93-.94m0-.5a1.44,1.44,0,1,0,1.44,1.44,1.43,1.43,0,0,0-1.44-1.44Z"/><path d="M28,25.33a.94.94,0,1,1-.94.94.94.94,0,0,1,.94-.94m0-.5a1.44,1.44,0,1,0,1.43,1.44A1.44,1.44,0,0,0,28,24.83Z"/><circle cx="15.54" cy="18.12" r="1.44"/><circle cx="18.79" cy="23.92" r="1.44"/><circle cx="13.04" cy="27.27" r="1.44"/><circle cx="7.25" cy="30.61" r="1.44"/><circle cx="24.39" cy="20.46" r="1.44"/><circle cx="22.19" cy="29.6" r="1.44"/><circle cx="23.15" cy="13.68" r="0.43"/><circle cx="24.18" cy="13.12" r="0.43"/><circle cx="25.21" cy="12.49" r="0.43"/><circle cx="17.67" cy="2.18" r="0.54"/><circle cx="26.39" cy="19.33" r="0.43"/><circle cx="27.42" cy="18.78" r="0.43"/><circle cx="28.45" cy="18.14" r="0.43"/><circle cx="24.18" cy="28.56" r="0.43"/><circle cx="25.21" cy="28.01" r="0.43"/><circle cx="26.24" cy="27.37" r="0.43"/><circle cx="3.32" cy="32.85" r="0.43"/><circle cx="4.35" cy="32.3" r="0.43"/><circle cx="5.38" cy="31.66" r="0.43"/><line class="cls-1" x1="17.67" y1="2.58" x2="17.67" y2="7.51"/><circle cx="17.67" cy="8.38" r="1.44"/><polygon points="16.79 2.86 16.79 5.8 13.18 4.2 16.79 2.86"/><line class="cls-1" x1="17.67" y1="8.38" x2="11.35" y2="12.27"/><line class="cls-1" x1="15.54" y1="18.12" x2="11.52" y2="11.6"/></g></svg>