<svg height="30px" width="30px" xmlns="http://www.w3.org/2000/svg" viewBox="0 0 36 36"><g id="Layer_1" data-name="Layer 1"><polygon points="16.2 3.65 14.2 3.65 14.2 20.07 9.92 20.07 9.92 19.56 13.69 19.56 13.69 3.65 12.16 3.65 12.16 17.51 9.92 17.51 9.92 22.3 16.2 22.3 16.2 3.65"/><rect x="25.21" y="20.09" width="6.13" height="6.13"/><path d="M31,3.65H16.71V22.8H9.92v2.55H5.06V15.71H9.92V17h1.73V3.65H6.45A4.47,4.47,0,0,0,2,8.12V28.57A4.47,4.47,0,0,0,6.45,33H31a4.47,4.47,0,0,0,4.47-4.47V8.12A4.47,4.47,0,0,0,31,3.65ZM4.31,30.87a.59.59,0,1,1,.59-.59A.59.59,0,0,1,4.31,30.87Zm0-24a.59.59,0,1,1,0-1.17.59.59,0,1,1,0,1.17ZM23.43,28V18.31h6.06v-7.2H26.66v2.27h-.61v1H25.3v-1H23.76v1H23v-1H21.45v1h-.74v-1H19.1v1h-.75v-1h-.62V7.82h.62v-1h.75v1h1.61v-1h.74v1H23v-1h.74v1H25.3v-1h.75v1h.61v2.33h3.77v8.16h2.69V28ZM33,30.87a.59.59,0,1,1,.58-.59A.58.58,0,0,1,33,30.87Zm0-24a.59.59,0,1,1,.58-.58A.58.58,0,0,1,33,6.84Z"/></g></svg>