<svg fill="#ff5097b3" height="30px" width="30px" id="Layer_1" data-name="Layer 1" xmlns="http://www.w3.org/2000/svg" viewBox="0 0 36 36"><path d="M11.74,24.3c-3.8-1.46-2.21-5.7-2.21-5.7a5.25,5.25,0,0,0,3.23,4L13.64,21l2.13,4.33-4.56.49Z"/><path d="M24.33,10C28.24,11.18,27,15.53,27,15.53a5.23,5.23,0,0,0-3.53-3.76l-.76,1.66L20.24,9.27l4.5-.84Z"/><path d="M30.23,19.53,33,22.6h-2.1a.7.7,0,0,1-.66-.74Z"/><path d="M24.89,27.42a.66.66,0,0,0-.65.65.65.65,0,1,0,1.3,0A.66.66,0,0,0,24.89,27.42Z"/><path d="M27.52,24.47a.46.46,0,0,0-.45.46.46.46,0,0,0,.44.47.47.47,0,0,0,.48-.47A.48.48,0,0,0,27.52,24.47Z"/><path d="M24.16,24.29a.56.56,0,0,0,0-1.12.56.56,0,0,0-.58.56A.55.55,0,0,0,24.16,24.29Z"/><path d="M30.87,23.28a1.09,1.09,0,0,1-1.09-1.09V19.53H23.7a2.34,2.34,0,0,0-2.34,2.34V32.76A2.34,2.34,0,0,0,23.7,35.1h7A2.34,2.34,0,0,0,33,32.76V23.28Zm-4.46,1.4c.15,0,.21-.06.24-.2s0-.09-.07-.13-.16-.11-.11-.2a.63.63,0,0,1,.28-.28c.07,0,.1,0,.14.08s.13.14.25.09.13-.14.12-.23.13-.19.26-.2.28,0,.25.2a.19.19,0,0,0,.13.23c.13.05.19,0,.25-.09s.17-.12.25,0,.3.17.12.36-.15.14-.1.27.16.11.27.11.14.18.15.29,0,.24-.15.22-.21,0-.27.11,0,.19.09.27,0,.25-.11.35-.16.12-.25,0-.12-.15-.24-.1a.2.2,0,0,0-.14.25c0,.15-.05.2-.19.18s-.33.07-.32-.19c0-.09,0-.19-.11-.24s-.19,0-.25.09-.25,0-.35-.09-.12-.19,0-.28a.2.2,0,0,0-.16-.36c-.22,0-.2-.12-.2-.26S26.2,24.65,26.41,24.68Zm-.29,2c.1.15.42.23.17.5-.1.11-.21.2-.13.38s.22.17.37.16c.35,0,.21.25.22.41s.05.34-.22.31-.29,0-.37.16,0,.27.13.38c.26.26-.05.35-.16.5s-.22.17-.35,0-.17-.22-.35-.14a.29.29,0,0,0-.2.34c0,.22-.07.29-.27.26s-.46.11-.44-.26c0-.14,0-.26-.16-.34s-.27,0-.35.12c-.26.3-.35,0-.5-.12s-.17-.27,0-.4a.26.26,0,0,0,.11-.33.28.28,0,0,0-.33-.18c-.31,0-.28-.17-.29-.36s0-.4.3-.36.3-.09.34-.28,0-.13-.1-.19-.22-.14-.15-.28a.89.89,0,0,1,.39-.4c.1,0,.14.07.2.12s.18.2.36.13a.26.26,0,0,0,.16-.33c0-.32.18-.27.37-.28s.4,0,.36.28a.26.26,0,0,0,.18.33c.18.07.26,0,.35-.14S26,26.5,26.12,26.67ZM23,24.48a.24.24,0,0,0,.07-.35C23,24,22.86,24,22.77,24s-.25,0-.22-.21a.57.57,0,0,0,0-.13c0-.22,0-.31.26-.28a.21.21,0,0,0,.26-.15c.06-.13,0-.19-.08-.28s-.2-.11-.12-.22a.83.83,0,0,1,.37-.35c.09,0,.14.1.21.16s.13.12.25.06a.23.23,0,0,0,.16-.23c0-.1-.07-.24.07-.28a.91.91,0,0,1,.49,0c.09,0,.06.14,0,.22s0,.21.15.27.21,0,.29-.09.11-.18.21-.12a1.37,1.37,0,0,1,.36.36.35.35,0,0,1-.15.2.23.23,0,0,0-.08.28.21.21,0,0,0,.26.15c.2,0,.28,0,.27.24,0,.38,0,.38-.26.38a.25.25,0,0,0-.27.15.22.22,0,0,0,.1.29c.16.13.14.24,0,.35l-.1.1c-.1.16-.2.13-.32,0s-.1-.16-.21-.13-.27.07-.24.26-.07.31-.28.28a.48.48,0,0,0-.12,0c-.15,0-.24,0-.22-.21s0-.25-.14-.31-.24,0-.33.13-.18.13-.28,0a.53.53,0,0,0-.13-.13C22.81,24.71,22.83,24.59,23,24.48Zm8.84,8.93H23v-.74h8.8Zm0-1.41H23v-.74h8.8Zm0-1.84h-.95v-.94h.95Zm0-2.37h-.95v-.95h.95Zm0-2.38h-.95v-.95h.95Z"/><path d="M11.88.9,14.64,4h-2.1a.7.7,0,0,1-.66-.74Z"/><path d="M6.54,8.79a.66.66,0,1,0,.65.64A.66.66,0,0,0,6.54,8.79Z"/><path d="M9.18,5.84a.48.48,0,0,0-.46.46.46.46,0,1,0,.92,0A.48.48,0,0,0,9.18,5.84Z"/><path d="M5.81,5.66a.56.56,0,1,0-.55-.56A.54.54,0,0,0,5.81,5.66Z"/><path d="M12.52,4.65a1.09,1.09,0,0,1-1.09-1.09V.9H5.35A2.34,2.34,0,0,0,3,3.24V14.13a2.34,2.34,0,0,0,2.34,2.34h7a2.34,2.34,0,0,0,2.34-2.34V4.65ZM8.06,6.05c.15,0,.22-.06.24-.2s0-.09-.07-.13-.16-.1-.11-.2a.63.63,0,0,1,.28-.28c.07,0,.1,0,.14.08s.13.14.26.09.12-.13.11-.23S9,5,9.17,5s.29,0,.25.2a.2.2,0,0,0,.13.23c.13,0,.19,0,.25-.09s.17-.12.25,0,.3.17.12.36-.15.14-.09.27.15.12.26.11.14.18.16.29,0,.24-.16.22-.21,0-.26.11,0,.19.09.27,0,.25-.11.36-.16.11-.26,0-.11-.15-.24-.1a.21.21,0,0,0-.14.25c0,.15-.05.2-.19.18s-.33.08-.32-.19A.2.2,0,0,0,8.8,7.2c-.12,0-.19,0-.25.09s-.24,0-.35-.09-.12-.19,0-.28a.18.18,0,0,0,.07-.24.18.18,0,0,0-.23-.12c-.22,0-.2-.12-.2-.26S7.85,6,8.06,6.05ZM7.77,8c.1.15.43.23.17.5-.1.11-.21.2-.13.38s.23.17.37.16c.35,0,.21.25.23.41s0,.34-.23.31-.29,0-.37.16,0,.27.13.38c.26.26-.05.35-.16.5s-.22.17-.35,0-.17-.22-.35-.14a.28.28,0,0,0-.19.35c0,.21-.07.29-.28.26s-.46.1-.44-.27c0-.14,0-.26-.16-.34s-.27,0-.35.12c-.26.3-.35,0-.5-.12s-.17-.27,0-.4A.25.25,0,0,0,5.28,10,.28.28,0,0,0,5,9.8c-.31,0-.28-.17-.28-.36s0-.4.29-.36S5.27,9,5.3,8.8s0-.13-.09-.19S5,8.47,5.05,8.33a1,1,0,0,1,.39-.4c.1,0,.14.07.21.12s.17.2.35.13a.26.26,0,0,0,.16-.33c0-.32.19-.27.37-.28s.4,0,.36.28a.27.27,0,0,0,.18.33c.18.07.27,0,.35-.14S7.66,7.88,7.77,8ZM4.62,5.85A.25.25,0,0,0,4.7,5.5c-.07-.12-.18-.1-.28-.09s-.25,0-.22-.21a.29.29,0,0,0,0-.13c0-.22,0-.31.26-.28a.21.21,0,0,0,.26-.15c.06-.13,0-.19-.07-.27s-.21-.12-.13-.23a.89.89,0,0,1,.37-.35c.09,0,.15.1.21.16s.14.12.25.06a.23.23,0,0,0,.16-.23c0-.1-.06-.24.08-.27a.79.79,0,0,1,.48,0c.09,0,.06.15.06.22A.23.23,0,0,0,6.27,4c.14.06.21,0,.29-.09s.11-.18.21-.12a1.37,1.37,0,0,1,.36.36.35.35,0,0,1-.15.2.24.24,0,0,0-.08.28.23.23,0,0,0,.27.15c.19,0,.27,0,.26.24,0,.38,0,.38-.26.38a.25.25,0,0,0-.27.15.23.23,0,0,0,.1.29c.16.13.14.24,0,.36a.43.43,0,0,0-.1.09c-.1.16-.2.13-.31,0s-.11-.17-.22-.14-.27.08-.23.26-.07.31-.29.28H5.73c-.16,0-.25,0-.23-.21s0-.25-.14-.31-.24,0-.32.13-.19.13-.29,0l-.12-.13C4.46,6.08,4.48,6,4.62,5.85Zm8.84,8.93H4.66V14h8.8Zm0-1.41H4.66v-.74h8.8Zm0-1.84h-1v-.94h1Zm0-2.37h-1V8.21h1Zm0-2.38h-1v-1h1Z"/></svg>