<svg height="30px" width="30px" id="SvgjsSvg1168"   xmlns="http://www.w3.org/2000/svg" version="1.1" xmlns:xlink="http://www.w3.org/1999/xlink" xmlns:svgjs="http://svgjs.com/svgjs"><defs id="SvgjsDefs1169"></defs><g id="SvgjsG1170"><svg xmlns="http://www.w3.org/2000/svg" viewBox="0 0 36 36"  ><g data-name="Layer 2" fill="#b22222" class="color000 svgShape"><path fill-rule="evenodd" d="M3.47,18c0-8,6.2-14.58,13.86-14.58S31.19,10,31.19,18,25,32.58,17.33,32.58,3.47,26.05,3.47,18Zm1.06,0c0,7.42,5.73,13.44,12.8,13.44s12.8-6,12.8-13.44S24.4,4.56,17.33,4.56,4.53,10.58,4.53,18Z" fill="#b22222" class="color000 svgShape"></path><path d="M17.33,32.7c-7.71,0-14-6.59-14-14.7s6.28-14.7,14-14.7,14,6.59,14,14.7S25,32.7,17.33,32.7Zm0-29.15C9.76,3.55,3.59,10,3.59,18S9.76,32.45,17.33,32.45,31.07,26,31.07,18,24.91,3.55,17.33,3.55Zm0,28C10.2,31.56,4.41,25.48,4.41,18S10.2,4.44,17.33,4.44,30.25,10.52,30.25,18,24.46,31.56,17.33,31.56Zm0-26.87c-7,0-12.67,6-12.67,13.31s5.68,13.31,12.67,13.31S30,25.34,30,18,24.32,4.69,17.33,4.69Z" fill="#b22222" class="color000 svgShape"></path><path d="M17.33,32.7c-7.71,0-14-6.59-14-14.7s6.28-14.7,14-14.7,14,6.59,14,14.7S25,32.7,17.33,32.7Zm0-29.15C9.76,3.55,3.59,10,3.59,18S9.76,32.45,17.33,32.45,31.07,26,31.07,18,24.91,3.55,17.33,3.55Zm0,28C10.2,31.56,4.41,25.48,4.41,18S10.2,4.44,17.33,4.44,30.25,10.52,30.25,18,24.46,31.56,17.33,31.56Zm0-26.87c-7,0-12.67,6-12.67,13.31s5.68,13.31,12.67,13.31S30,25.34,30,18,24.32,4.69,17.33,4.69Z" fill="#b22222" class="color000 svgShape"></path><path fill-rule="evenodd" d="M15.49,18a1.84,1.84,0,1,1,1.84,1.71A1.78,1.78,0,0,1,15.49,18Z" fill="#b22222" class="color000 svgShape"></path><path d="M17.33,19.83a1.83,1.83,0,1,1,2-1.83A1.9,1.9,0,0,1,17.33,19.83Zm0-3.41A1.59,1.59,0,1,0,19.05,18,1.65,1.65,0,0,0,17.33,16.42Z" fill="#b22222" class="color000 svgShape"></path><path d="M17.33,19.83a1.83,1.83,0,1,1,2-1.83A1.9,1.9,0,0,1,17.33,19.83Zm0-3.41A1.59,1.59,0,1,0,19.05,18,1.65,1.65,0,0,0,17.33,16.42Z" fill="#b22222" class="color000 svgShape"></path><rect width="2.46" height=".5" x="4.45" y="17.9" transform="rotate(-.9 5.59 17.87)" fill="#b22222" class="color000 svgShape"></rect><rect width="2.46" height=".5" x="27.51" y="17.9" transform="rotate(-.9 28.507 18.05)" fill="#b22222" class="color000 svgShape"></rect><polygon points="17 7.59 16.96 5 17.46 5 17.5 7.58 17 7.59" fill="#b22222" class="color000 svgShape"></polygon><rect width=".5" height="2.54" x="10.86" y="6.06" transform="rotate(-29.2 11.109 7.321)" fill="#b22222" class="color000 svgShape"></rect><rect width="2.55" height=".5" x="21.9" y="7.35" transform="rotate(-62.53 23.177 7.603)" fill="#b22222" class="color000 svgShape"></rect><rect width=".5" height="2.5" x="6.62" y="11.09" transform="rotate(-59.19 6.869 12.342)" fill="#b22222" class="color000 svgShape"></rect><rect width="2.5" height=".5" x="26.17" y="11.69" transform="rotate(-32.57 27.42 11.948)" fill="#b22222" class="color000 svgShape"></rect><rect width="2.5" height=".5" x="5.62" y="23.29" transform="rotate(-32.57 6.865 23.554)" fill="#b22222" class="color000 svgShape"></rect><rect width=".5" height="2.5" x="27.17" y="22.03" transform="rotate(-59.19 27.414 23.278)" fill="#b22222" class="color000 svgShape"></rect><polygon fill-rule="evenodd" points="18.28 16.4 25.45 12.58 25.95 13.5 19.27 18.24 18.28 16.4 18.28 16.4" fill="#b22222" class="color000 svgShape"></polygon><path d="M19.23,18.43l-1.12-2.08.11-.06,7.28-3.88.61,1.13L26,13.6Zm-.78-2,.86,1.61,6.48-4.6-.39-.71Z" fill="#b22222" class="color000 svgShape"></path><polygon fill-rule="evenodd" points="9.97 24.83 24.45 24.83 24.45 26.4 9.97 26.4 9.97 24.83 9.97 24.83" fill="#b22222" class="color000 svgShape"></polygon><path d="M24.57,26.53H9.84V24.7H24.57Zm-14.48-.25H24.32V25H10.09Z" fill="#b22222" class="color000 svgShape"></path></g></svg></g></svg>