<svg height="30px" width="30px" xmlns="http://www.w3.org/2000/svg" viewBox="0 0 36 36"><g id="Layer_2" data-name="Layer 2"><path d="M12.51,2.32a1.79,1.79,0,0,1,1.82,1c.31.6.57.74,1.14.24.83-.72,1.35-2,2.56-2s1.66,1.25,2.46,1.94c.56.48.93.53,1.29-.18a1.63,1.63,0,0,1,1.89-1A1.59,1.59,0,0,1,25,3.63a1.63,1.63,0,0,1-1,1.89c-.75.37-.67.77-.18,1.27S24.88,8,25.51,8.52s.61,1-.05,1.49a5.43,5.43,0,0,0-.64.63c-.56.66-1,1-1.8.13a2.23,2.23,0,0,0-3.34.13,2.34,2.34,0,0,0-.07,3.46c.83.7.49,1-.06,1.59-1.49,1.48-1.48,1.49-3,0l-.46-.45c-.7-.76-1.35-1.56-2.09,0a1.38,1.38,0,0,1-1.7.58,1.62,1.62,0,0,1-1.25-1.34,1.43,1.43,0,0,1,.72-1.66c1.34-.62.76-1.18.07-1.86S10.1,9.9,10.1,9.2s1.1-1.41,1.8-2S13,5.92,11.79,5.3a1.42,1.42,0,0,1-.64-1.8A1.57,1.57,0,0,1,12.51,2.32Z"/><path d="M12.63,17.1a2.08,2.08,0,0,0,1.82-.8c.45-.6.75-.44,1.22,0,1.81,1.7,1.82,1.69.08,3.43a7.73,7.73,0,0,1-.64.64c-.74.58-.74,1,.16,1.46a1.54,1.54,0,0,1,.8,1.86,1.56,1.56,0,0,1-1.32,1.25A1.49,1.49,0,0,1,13,24.1c-.51-1.13-.93-.74-1.55-.12s-1.38,2-2.24,2S7.71,24.69,7,24q-2.29-2.26-4.56-4.56c-1.17-1.18-1.16-1.62,0-2.77a8.38,8.38,0,0,1,.73-.73c.76-.63,1.1-1.18-.09-1.77a1.46,1.46,0,0,1-.7-1.78,1.59,1.59,0,0,1,1.23-1.2,1.48,1.48,0,0,1,1.77.75C5.89,13,6.39,12.8,7,12a7.73,7.73,0,0,1,.64-.64c1.55-1.56,1.52-1.53,3.08,0,.62.61.73,1,0,1.6a2.11,2.11,0,0,0-.43,2.61A2.36,2.36,0,0,0,12.63,17.1Z"/><path d="M21.31,11a1.62,1.62,0,0,1,1.63.85c.49,1.09,1,.8,1.58.14s1.18-1.14,1.72-1.75c.38-.42.64-.42,1,0,.64.69,1.34,1.33,2,2,.47.47.86.5,1.2-.15A1.67,1.67,0,0,1,32.33,11a1.58,1.58,0,0,1,1.36,1.37,1.73,1.73,0,0,1-1.17,1.93c-.57.26-.52.61-.15,1,.53.56,1.07,1.12,1.61,1.67a1.2,1.2,0,0,1,0,1.91c-2.22,2.21-4.45,4.42-6.66,6.66-.44.45-.75.44-1.13,0a6.09,6.09,0,0,0-.92-.91c-.74-.57-.77-1,0-1.69a2.3,2.3,0,0,0-.12-3.35,2.39,2.39,0,0,0-3.46-.07c-.72.83-1,.46-1.59-.09-1.47-1.5-1.49-1.49,0-3a9.9,9.9,0,0,1,.73-.72c.78-.65.9-1.17-.16-1.69a1.49,1.49,0,0,1-.71-1.89A1.55,1.55,0,0,1,21.31,11Z"/><path d="M17.05,23.56a2.12,2.12,0,0,0-.74-2c-.74-.52-.49-.88,0-1.39,1.61-1.6,1.59-1.62,3.23,0a7.73,7.73,0,0,1,.64.64c.62.73,1.12.84,1.61-.14a1.51,1.51,0,0,1,1.73-.84A1.66,1.66,0,0,1,24,23c-1,.47-.76.94-.14,1.5l.09.1c.64.78,2,1.36,1.9,2.24s-1.28,1.52-2,2.25c-1.57,1.58-3.18,3.14-4.74,4.75a1.37,1.37,0,0,1-2.29,0c-2.08-2.12-4.17-4.22-6.3-6.29-.6-.58-.69-1,0-1.5a3.51,3.51,0,0,0,.55-.54c.6-.69,1.11-1.19,2-.16a2,2,0,0,0,2.51.33A2.49,2.49,0,0,0,17.05,23.56Z"/></g></svg>