<svg height="30px" width="30px" id="SvgjsSvg1247"   xmlns="http://www.w3.org/2000/svg" version="1.1" xmlns:xlink="http://www.w3.org/1999/xlink" xmlns:svgjs="http://svgjs.com/svgjs"><defs id="SvgjsDefs1248"></defs><g id="SvgjsG1249"><svg xmlns="http://www.w3.org/2000/svg" viewBox="0 0 36 36"  ><defs><clipPath id="a"><rect width="33.05" height="33.97" x="1.48" y="1.01" fill="none"></rect></clipPath></defs><g clip-path="url(#a)" data-name="Layer 2" fill="#820082" class="color000 svgShape"><path d="M20.73,13.46a2.67,2.67,0,1,1-2.67-2.72,2.7,2.7,0,0,1,2.67,2.72Zm0,0" fill="#820082" class="color000 svgShape"></path><path d="M18,1A16.74,16.74,0,0,0,1.48,17.92,16.74,16.74,0,0,0,18,34.85,16.74,16.74,0,0,0,34.56,17.92,16.74,16.74,0,0,0,18,1Zm0,7.75h.07A5.23,5.23,0,0,1,23.11,14c0,3.49-3.65,7-5.09,8.29L17.7,22h0c-1.6-1.46-4.76-4.75-4.76-8A5.23,5.23,0,0,1,18,8.73Zm.11,18.47C15,27.2,12,26.31,12,24.59c0-1.2,1.52-2,3.48-2.37.38.39.74.74,1.05,1-2.13.24-3.39.93-3.39,1.34S15,26,18.09,26s5-.93,5-1.44-1.3-1.13-3.52-1.36c.32-.29.68-.63,1.06-1,2,.36,3.61,1.17,3.61,2.39,0,1.72-3.09,2.61-6.14,2.61Zm0,0" fill="#820082" class="color000 svgShape"></path></g></svg></g></svg>