<svg height="30px" width="30px" xmlns="http://www.w3.org/2000/svg" viewBox="0 0 36 36"><g id="Layer_2" data-name="Layer 2"><circle cx="17.8" cy="18.55" r="2.32"/><path d="M17.8,32.9A14.35,14.35,0,1,1,32.14,18.55,14.37,14.37,0,0,1,17.8,32.9Zm0-26.18A11.84,11.84,0,1,0,29.63,18.55,11.85,11.85,0,0,0,17.8,6.72Z"/><path d="M17.8,26a7.41,7.41,0,1,1,7.4-7.41A7.42,7.42,0,0,1,17.8,26ZM17.8,13a5.52,5.52,0,1,0,5.52,5.52A5.52,5.52,0,0,0,17.8,13Z"/><rect x="16.23" y="13.43" width="12.38" height="1.88" transform="translate(-3.6 20.06) rotate(-45)"/><polygon points="26.3 10.18 27.18 6.64 29.87 3.94 29.87 6.92 32.84 6.92 30.15 9.61 26.61 10.49 26.3 10.18"/></g></svg>