<svg version="1.2" baseProfile="tiny-ps" xmlns="http://www.w3.org/2000/svg" viewBox="0 0 512 512" width="62" height="62">
	<title>goal (1)-svg</title>
	<style>
		tspan { white-space:pre }
		.shp0 { fill: #000000 } 
	</style>
	<path id="Layer" class="shp0" d="M271.8 176.56C266.69 175.54 261.41 175 256 175C211.34 175 175 211.34 175 256C175 300.66 211.34 337 256 337C300.66 337 337 300.66 337 256C337 250.59 336.46 245.31 335.44 240.2L287.82 287.82C279.32 296.32 268.02 301 256 301C243.98 301 232.68 296.32 224.18 287.82C215.68 279.32 211 268.02 211 256C211 243.98 215.68 232.68 224.18 224.18L271.8 176.56Z" />
	<path id="Layer" class="shp0" d="M489.09 150.19L456.82 182.46C453.59 185.69 449.95 188.37 446.02 190.45C453.13 211.01 457 233.06 457 256C457 366.83 366.83 457 256 457C145.17 457 55 366.83 55 256C55 145.17 145.17 55 256 55C278.95 55 301.01 58.88 321.57 65.99C323.66 62.06 326.32 58.4 329.54 55.18L361.81 22.91C329.54 8.2 293.71 0 256 0C114.84 0 0 114.84 0 256C0 397.16 114.84 512 256 512C397.16 512 512 397.16 512 256C512 218.29 503.8 182.46 489.09 150.19L489.09 150.19Z" />
	<path id="Layer" class="shp0" d="M319.71 128.65L316.98 96.24C298.03 88.98 277.47 85 256 85C161.71 85 85 161.71 85 256C85 350.29 161.71 427 256 427C350.29 427 427 350.29 427 256C427 234.53 423.02 213.97 415.76 195.02L383.35 192.29L359.57 216.07C364.36 228.47 367 241.93 367 256C367 317.21 317.21 367 256 367C194.79 367 145 317.21 145 256C145 194.79 194.79 145 256 145C270.07 145 283.53 147.64 295.93 152.43L319.71 128.65Z" />
	<path id="Layer" class="shp0" d="M346.41 88.26L350.78 140.01L245.39 245.39C239.54 251.25 239.54 260.75 245.39 266.61C248.32 269.54 252.16 271 256 271C259.84 271 263.68 269.54 266.61 266.61L371.99 161.22L423.74 165.59C424.16 165.62 424.58 165.64 425 165.64C428.96 165.64 432.78 164.07 435.61 161.25L499.24 97.61C503.37 93.48 504.73 87.33 502.73 81.85C500.72 76.36 495.71 72.54 489.9 72.05L443.83 68.17L439.95 22.1C439.45 16.28 435.63 11.28 430.15 9.27C424.67 7.27 418.52 8.63 414.39 12.75L350.75 76.39C347.63 79.52 346.04 83.86 346.41 88.26L346.41 88.26Z" />
</svg>