<svg height="30px" width="30px" id="SvgjsSvg1202"   xmlns="http://www.w3.org/2000/svg" version="1.1" xmlns:xlink="http://www.w3.org/1999/xlink" xmlns:svgjs="http://svgjs.com/svgjs"><defs id="SvgjsDefs1203"></defs><g id="SvgjsG1204"><svg xmlns="http://www.w3.org/2000/svg" viewBox="0 0 36 36"  ><g data-name="Layer 2" fill="#b22222" class="color000 svgShape"><path fill-rule="evenodd" d="M3,18.93A14.54,14.54,0,0,1,17.63,4.52,14.54,14.54,0,0,1,32.3,18.93,14.55,14.55,0,0,1,17.63,33.35,14.55,14.55,0,0,1,3,18.93Zm1.13,0A13.42,13.42,0,0,0,17.63,32.22,13.42,13.42,0,0,0,31.17,18.93,13.42,13.42,0,0,0,17.63,5.64,13.42,13.42,0,0,0,4.08,18.93Z" fill="#b22222" class="color000 svgShape"></path><path d="M17.62,33.4A14.61,14.61,0,0,1,2.9,18.93,14.61,14.61,0,0,1,17.62,4.47,14.61,14.61,0,0,1,32.35,18.93,14.61,14.61,0,0,1,17.62,33.4Zm0-28.84A14.52,14.52,0,0,0,3,18.93,14.52,14.52,0,0,0,17.62,33.3,14.52,14.52,0,0,0,32.25,18.93,14.52,14.52,0,0,0,17.62,4.56Zm0,27.71A13.48,13.48,0,0,1,4,18.93,13.49,13.49,0,0,1,17.62,5.59a13.49,13.49,0,0,1,13.6,13.34A13.48,13.48,0,0,1,17.62,32.27Zm0-26.58A13.39,13.39,0,0,0,4.13,18.93,13.39,13.39,0,0,0,17.62,32.17a13.39,13.39,0,0,0,13.5-13.24A13.39,13.39,0,0,0,17.62,5.69Z" fill="#b22222" class="color000 svgShape"></path><path d="M17.62,33.4A14.61,14.61,0,0,1,2.9,18.93,14.61,14.61,0,0,1,17.62,4.47,14.61,14.61,0,0,1,32.35,18.93,14.61,14.61,0,0,1,17.62,33.4Zm0-28.84A14.52,14.52,0,0,0,3,18.93,14.52,14.52,0,0,0,17.62,33.3,14.52,14.52,0,0,0,32.25,18.93,14.52,14.52,0,0,0,17.62,4.56Zm0,27.71A13.48,13.48,0,0,1,4,18.93,13.49,13.49,0,0,1,17.62,5.59a13.49,13.49,0,0,1,13.6,13.34A13.48,13.48,0,0,1,17.62,32.27Zm0-26.58A13.39,13.39,0,0,0,4.13,18.93,13.39,13.39,0,0,0,17.62,32.17a13.39,13.39,0,0,0,13.5-13.24A13.39,13.39,0,0,0,17.62,5.69Z" fill="#b22222" class="color000 svgShape"></path><path d="M20.85 17.63A2.11 2.11 0 0119.39 17a2.09 2.09 0 01-.63-1.45 1.57 1.57 0 01.45-1.12l3.89-3.85a1.86 1.86 0 012.58.18 2.09 2.09 0 01.63 1.45 1.57 1.57 0 01-.45 1.12L22 17.19A1.55 1.55 0 0120.85 17.63zm3.37-6.69a.78.78 0 00-.57.22L19.77 15a.79.79 0 00-.22.56 1.3 1.3 0 00.4.89 1.06 1.06 0 001.47.17l3.88-3.84a.79.79 0 00.22-.56 1.35 1.35 0 00-1.3-1.28zM10.8 27.59a2.16 2.16 0 01-2.09-2.07 1.52 1.52 0 01.46-1.12l3.88-3.85a1.84 1.84 0 012.58.18 2.07 2.07 0 01.63 1.45 1.57 1.57 0 01-.45 1.12l-3.88 3.84A1.59 1.59 0 0110.8 27.59zm3.37-6.7a.76.76 0 00-.56.22L9.72 25a.78.78 0 00-.22.56 1.28 1.28 0 00.4.88 1.07 1.07 0 001.47.18l3.88-3.85a.75.75 0 00.22-.55 1.28 1.28 0 00-.4-.89A1.3 1.3 0 0014.17 20.89z" fill="#b22222" class="color000 svgShape"></path><rect width="8.81" height=".79" x="13.28" y="18.3" transform="rotate(-44.76 17.692 18.703)" fill="#b22222" class="color000 svgShape"></rect></g></svg></g></svg>