<svg height="30px" width="30px" xmlns="http://www.w3.org/2000/svg" viewBox="0 0 36 36"><defs><style>.cls-1{fill-rule:evenodd;}</style></defs><g id="Layer_2" data-name="Layer 2"><path class="cls-1" d="M3,18.93A14.54,14.54,0,0,1,17.63,4.52,14.54,14.54,0,0,1,32.3,18.93,14.55,14.55,0,0,1,17.63,33.35,14.55,14.55,0,0,1,3,18.93Zm1.13,0A13.42,13.42,0,0,0,17.63,32.22,13.42,13.42,0,0,0,31.17,18.93,13.42,13.42,0,0,0,17.63,5.64,13.42,13.42,0,0,0,4.08,18.93Z"/><path d="M17.62,33.4A14.61,14.61,0,0,1,2.9,18.93,14.61,14.61,0,0,1,17.62,4.47,14.61,14.61,0,0,1,32.35,18.93,14.61,14.61,0,0,1,17.62,33.4Zm0-28.84A14.52,14.52,0,0,0,3,18.93,14.52,14.52,0,0,0,17.62,33.3,14.52,14.52,0,0,0,32.25,18.93,14.52,14.52,0,0,0,17.62,4.56Zm0,27.71A13.48,13.48,0,0,1,4,18.93,13.49,13.49,0,0,1,17.62,5.59a13.49,13.49,0,0,1,13.6,13.34A13.48,13.48,0,0,1,17.62,32.27Zm0-26.58A13.39,13.39,0,0,0,4.13,18.93,13.39,13.39,0,0,0,17.62,32.17a13.39,13.39,0,0,0,13.5-13.24A13.39,13.39,0,0,0,17.62,5.69Z"/><path d="M17.62,33.4A14.61,14.61,0,0,1,2.9,18.93,14.61,14.61,0,0,1,17.62,4.47,14.61,14.61,0,0,1,32.35,18.93,14.61,14.61,0,0,1,17.62,33.4Zm0-28.84A14.52,14.52,0,0,0,3,18.93,14.52,14.52,0,0,0,17.62,33.3,14.52,14.52,0,0,0,32.25,18.93,14.52,14.52,0,0,0,17.62,4.56Zm0,27.71A13.48,13.48,0,0,1,4,18.93,13.49,13.49,0,0,1,17.62,5.59a13.49,13.49,0,0,1,13.6,13.34A13.48,13.48,0,0,1,17.62,32.27Zm0-26.58A13.39,13.39,0,0,0,4.13,18.93,13.39,13.39,0,0,0,17.62,32.17a13.39,13.39,0,0,0,13.5-13.24A13.39,13.39,0,0,0,17.62,5.69Z"/><path d="M20.85,17.63A2.11,2.11,0,0,1,19.39,17a2.09,2.09,0,0,1-.63-1.45,1.57,1.57,0,0,1,.45-1.12l3.89-3.85a1.86,1.86,0,0,1,2.58.18,2.09,2.09,0,0,1,.63,1.45,1.57,1.57,0,0,1-.45,1.12L22,17.19A1.55,1.55,0,0,1,20.85,17.63Zm3.37-6.69a.78.78,0,0,0-.57.22L19.77,15a.79.79,0,0,0-.22.56,1.3,1.3,0,0,0,.4.89,1.06,1.06,0,0,0,1.47.17l3.88-3.84a.79.79,0,0,0,.22-.56,1.35,1.35,0,0,0-1.3-1.28Z"/><path d="M10.8,27.59a2.16,2.16,0,0,1-2.09-2.07,1.52,1.52,0,0,1,.46-1.12l3.88-3.85a1.84,1.84,0,0,1,2.58.18,2.07,2.07,0,0,1,.63,1.45,1.57,1.57,0,0,1-.45,1.12l-3.88,3.84A1.59,1.59,0,0,1,10.8,27.59Zm3.37-6.7a.76.76,0,0,0-.56.22L9.72,25a.78.78,0,0,0-.22.56,1.28,1.28,0,0,0,.4.88,1.07,1.07,0,0,0,1.47.18l3.88-3.85a.75.75,0,0,0,.22-.55,1.28,1.28,0,0,0-.4-.89A1.3,1.3,0,0,0,14.17,20.89Z"/><rect x="13.28" y="18.3" width="8.81" height="0.79" transform="translate(-8.04 17.88) rotate(-44.76)"/></g></svg>