<svg height="30px" width="30px" id="SvgjsSvg1469"   xmlns="http://www.w3.org/2000/svg" version="1.1" xmlns:xlink="http://www.w3.org/1999/xlink" xmlns:svgjs="http://svgjs.com/svgjs"><defs id="SvgjsDefs1470"></defs><g id="SvgjsG1471"><svg xmlns="http://www.w3.org/2000/svg" viewBox="0 0 36 36"  ><g data-name="Layer 1" fill="#ffeb3b" class="color000 svgShape"><path d="M24.13 2.22l5.55 6.16H25.46A1.41 1.41 0 0124.13 6.9zM13.41 18.06a1.32 1.32 0 101.31 1.3A1.33 1.33 0 0013.41 18.06zM18.7 12.14a1 1 0 00-.92.93.93.93 0 101.85 0A1 1 0 0018.7 12.14zM12 11.78a1.12 1.12 0 001.13-1.11A1.13 1.13 0 1012 11.78z" fill="#ffeb3b" class="color000 svgShape"></path><path d="M25.43,9.75a2.2,2.2,0,0,1-2.2-2.2V2.22H11a4.69,4.69,0,0,0-4.7,4.69V28.79a4.69,4.69,0,0,0,4.7,4.7H25a4.69,4.69,0,0,0,4.7-4.7v-19Zm-9,2.81c.31,0,.43-.13.49-.39s-.08-.19-.14-.27-.32-.21-.22-.4a1.24,1.24,0,0,1,.56-.57c.13-.07.2.09.29.16s.25.29.5.19a.37.37,0,0,0,.23-.47c-.05-.45.26-.38.53-.39s.56,0,.5.4a.39.39,0,0,0,.26.46c.25.1.38,0,.5-.19s.34-.24.5,0,.6.34.24.72c-.15.15-.31.28-.19.54s.32.23.53.22c.49,0,.29.36.31.58s.07.48-.31.44c-.21,0-.42,0-.53.23s0,.38.18.54c.37.37-.07.5-.22.71s-.32.24-.5,0-.24-.31-.49-.2a.41.41,0,0,0-.28.5c0,.3-.1.41-.39.36s-.66.16-.63-.37c0-.2,0-.38-.23-.48s-.38,0-.5.17c-.36.42-.5,0-.7-.17s-.25-.38,0-.58a.36.36,0,0,0,.15-.47.39.39,0,0,0-.47-.25c-.43.06-.39-.24-.4-.51S16,12.5,16.46,12.56Zm-.58,4c.21.3.85.47.34,1-.21.22-.42.4-.26.76s.45.33.75.32c.69,0,.41.51.45.82s.09.68-.45.62c-.3,0-.59,0-.75.32s0,.55.26.77c.52.52-.1.71-.32,1s-.45.33-.71,0-.33-.44-.69-.29a.6.6,0,0,0-.4.71c.06.43-.14.58-.55.52s-.92.21-.89-.54c0-.27,0-.53-.32-.68s-.53,0-.7.25c-.51.59-.71,0-1-.25s-.35-.54,0-.81a.5.5,0,0,0,.21-.66.55.55,0,0,0-.66-.36c-.62.08-.56-.33-.57-.73s0-.8.59-.71c.43.07.62-.18.7-.56,0-.17-.11-.26-.2-.38s-.46-.3-.32-.56a1.87,1.87,0,0,1,.79-.81c.2-.1.29.13.41.23s.36.41.71.27.37-.39.33-.67c-.07-.63.37-.54.75-.55s.8,0,.71.56a.53.53,0,0,0,.37.65c.35.15.53,0,.7-.26S15.66,16.23,15.88,16.56ZM9.56,12.17a.49.49,0,0,0,.14-.71c-.13-.24-.36-.2-.55-.18s-.5-.07-.44-.42a1.22,1.22,0,0,0,0-.27c-.09-.43.08-.62.52-.56a.45.45,0,0,0,.53-.3c.11-.26,0-.38-.16-.55S9.19,9,9.35,8.72A1.62,1.62,0,0,1,10.1,8c.17,0,.29.19.41.31s.28.25.51.13.33-.22.32-.47-.13-.48.15-.55a1.64,1.64,0,0,1,1,0c.18.07.11.29.1.45a.49.49,0,0,0,.29.54c.28.11.42,0,.59-.19s.23-.36.43-.24a2.74,2.74,0,0,1,.71.73c0,.2-.18.29-.3.4a.46.46,0,0,0-.15.56.44.44,0,0,0,.53.3c.38,0,.54.06.53.49,0,.75,0,.76-.52.76-.25,0-.43,0-.54.29a.46.46,0,0,0,.19.59c.32.26.29.48,0,.71a.9.9,0,0,0-.19.2c-.21.32-.41.26-.64,0s-.21-.32-.43-.27-.54.15-.47.53-.14.62-.58.55a.89.89,0,0,0-.23,0c-.31,0-.48-.08-.44-.43s0-.49-.3-.62-.48.06-.64.26-.38.26-.58,0a1.23,1.23,0,0,0-.25-.26C9.24,12.61,9.28,12.38,9.56,12.17ZM27.31,30.1H9.64V28.61H27.31Zm0-2.83H9.64V25.78H27.31Zm0-3.7h-1.9v-1.9h1.9Zm0-4.77h-1.9V16.9h1.9Zm0-4.77h-1.9v-1.9h1.9Z" fill="#ffeb3b" class="color000 svgShape"></path></g></svg></g></svg>