<svg height="30px" width="30px" xmlns="http://www.w3.org/2000/svg" viewBox="0 0 36 36"><defs><style>.cls-1{fill:none;stroke:#000;stroke-miterlimit:10;}</style></defs><g id="Layer_1" data-name="Layer 1"><rect x="6.46" y="5.48" width="18.61" height="1.36"/><rect x="6.46" y="27.18" width="18.61" height="1.36"/><path d="M24.31,17.86l2.33,1.46a56.27,56.27,0,0,1,4.58-5.92c-.23.3-4.37,7.36-4.37,7.36Z"/><circle class="cls-1" cx="27.82" cy="17.01" r="7.69"/><path d="M23,24.46H6.46v1.36H25.07v-.46A8.46,8.46,0,0,1,23,24.46Z"/><path d="M20.27,22H6.46v1.36h15A8.06,8.06,0,0,1,20.27,22Z"/><path d="M19,19.3H6.46v1.36H19.52A9.22,9.22,0,0,1,19,19.3Z"/><path d="M18.71,17c0-.17,0-.34,0-.52H6.46v1.36H18.75A7.75,7.75,0,0,1,18.71,17Z"/><path d="M19.37,13.69H6.45v1.36H18.94A9.33,9.33,0,0,1,19.37,13.69Z"/><path d="M21.23,10.89H6.46v1.36H20.13A9,9,0,0,1,21.23,10.89Z"/><path d="M25.07,8.65V8.09H6.46V9.45H23.13A8.91,8.91,0,0,1,25.07,8.65Z"/><path d="M27.39,25.69c-.15,0-.29,0-.44,0v5.53H4.54V2.83H27V8.35l.44,0,.43,0V2H3.67v30.1H27.82v-6.4Z"/></g></svg>