<svg height="30px" width="30px" id="SvgjsSvg1476"   xmlns="http://www.w3.org/2000/svg" version="1.1" xmlns:xlink="http://www.w3.org/1999/xlink" xmlns:svgjs="http://svgjs.com/svgjs"><defs id="SvgjsDefs1477"></defs><g id="SvgjsG1478"><svg xmlns="http://www.w3.org/2000/svg" viewBox="0 0 36 36"  ><g data-name="Layer 1" fill="#c0a742" class="color000 svgShape"><rect width="18.61" height="1.36" x="6.46" y="5.48" fill="#c0a742" class="color000 svgShape"></rect><rect width="18.61" height="1.36" x="6.46" y="27.18" fill="#c0a742" class="color000 svgShape"></rect><path d="M24.31,17.86l2.33,1.46a56.27,56.27,0,0,1,4.58-5.92c-.23.3-4.37,7.36-4.37,7.36Z" fill="#c0a742" class="color000 svgShape"></path><circle cx="27.82" cy="17.01" r="7.69" fill="none" stroke="#c0a742" stroke-miterlimit="10" class="colorStroke000 svgStroke"></circle><path d="M23 24.46H6.46v1.36H25.07v-.46A8.46 8.46 0 0123 24.46zM20.27 22H6.46v1.36h15A8.06 8.06 0 0120.27 22zM19 19.3H6.46v1.36H19.52A9.22 9.22 0 0119 19.3zM18.71 17c0-.17 0-.34 0-.52H6.46v1.36H18.75A7.75 7.75 0 0118.71 17zM19.37 13.69H6.45v1.36H18.94A9.33 9.33 0 0119.37 13.69zM21.23 10.89H6.46v1.36H20.13A9 9 0 0121.23 10.89zM25.07 8.65V8.09H6.46V9.45H23.13A8.91 8.91 0 0125.07 8.65z" fill="#c0a742" class="color000 svgShape"></path><path d="M27.39,25.69c-.15,0-.29,0-.44,0v5.53H4.54V2.83H27V8.35l.44,0,.43,0V2H3.67v30.1H27.82v-6.4Z" fill="#c0a742" class="color000 svgShape"></path></g></svg></g></svg>