<svg height="30px" width="30px" xmlns="http://www.w3.org/2000/svg" viewBox="0 0 36 36"><defs><style>.cls-1{fill-rule:evenodd;}</style></defs><g id="Layer_2" data-name="Layer 2"><path class="cls-1" d="M3,18.43A15.15,15.15,0,0,1,18.38,3.49,15.15,15.15,0,0,1,33.73,18.43,15.14,15.14,0,0,1,18.38,33.36,15.14,15.14,0,0,1,3,18.43Zm1.17,0A14,14,0,0,0,18.38,32.2,14,14,0,0,0,32.57,18.43,14,14,0,0,0,18.38,4.66,14,14,0,0,0,4.19,18.43Z"/><path d="M3,18.43A15.15,15.15,0,0,1,18.38,3.49,15.15,15.15,0,0,1,33.73,18.43,15.14,15.14,0,0,1,18.38,33.36,15.14,15.14,0,0,1,3,18.43Zm1.17,0A14,14,0,0,0,18.38,32.2,14,14,0,0,0,32.57,18.43,14,14,0,0,0,18.38,4.66,14,14,0,0,0,4.19,18.43Z"/><polygon class="cls-1" points="20.13 8.2 19.25 23 17.5 23 16.63 8.2 20.13 8.2 20.13 8.2"/><circle cx="18.38" cy="27.41" r="1.89"/></g></svg>