<svg height="30px" width="30px" id="SvgjsSvg1212"   xmlns="http://www.w3.org/2000/svg" version="1.1" xmlns:xlink="http://www.w3.org/1999/xlink" xmlns:svgjs="http://svgjs.com/svgjs"><defs id="SvgjsDefs1213"></defs><g id="SvgjsG1214"><svg xmlns="http://www.w3.org/2000/svg" viewBox="0 0 36 36"  ><g data-name="Layer 2" fill="#b22222" class="color000 svgShape"><path fill-rule="evenodd" d="M3,18.43A15.15,15.15,0,0,1,18.38,3.49,15.15,15.15,0,0,1,33.73,18.43,15.14,15.14,0,0,1,18.38,33.36,15.14,15.14,0,0,1,3,18.43Zm1.17,0A14,14,0,0,0,18.38,32.2,14,14,0,0,0,32.57,18.43,14,14,0,0,0,18.38,4.66,14,14,0,0,0,4.19,18.43Z" fill="#b22222" class="color000 svgShape"></path><path d="M3,18.43A15.15,15.15,0,0,1,18.38,3.49,15.15,15.15,0,0,1,33.73,18.43,15.14,15.14,0,0,1,18.38,33.36,15.14,15.14,0,0,1,3,18.43Zm1.17,0A14,14,0,0,0,18.38,32.2,14,14,0,0,0,32.57,18.43,14,14,0,0,0,18.38,4.66,14,14,0,0,0,4.19,18.43Z" fill="#b22222" class="color000 svgShape"></path><polygon fill-rule="evenodd" points="20.13 8.2 19.25 23 17.5 23 16.63 8.2 20.13 8.2 20.13 8.2" fill="#b22222" class="color000 svgShape"></polygon><circle cx="18.38" cy="27.41" r="1.89" fill="#b22222" class="color000 svgShape"></circle></g></svg></g></svg>