<svg height="30px" width="30px" id="SvgjsSvg1268"   xmlns="http://www.w3.org/2000/svg" version="1.1" xmlns:xlink="http://www.w3.org/1999/xlink" xmlns:svgjs="http://svgjs.com/svgjs"><defs id="SvgjsDefs1269"></defs><g id="SvgjsG1270"><svg xmlns="http://www.w3.org/2000/svg" viewBox="0 0 36 36"  ><g data-name="Layer 2" fill="#820082" class="color000 svgShape"><path d="M33,27.77l-.86-.53a6.89,6.89,0,0,0,0-4.15l.88-.54a.73.73,0,0,0,.26-1l-.9-1.69a.76.76,0,0,0-.45-.33.71.71,0,0,0-.53.08l-1,.61a6.66,6.66,0,0,0-3.21-1.77V17.26a.68.68,0,0,0-.7-.67H24.63a.68.68,0,0,0-.68.67v1.21a6.93,6.93,0,0,0-3.27,1.82l-1.06-.64a.62.62,0,0,0-.53-.08.82.82,0,0,0-.43.35l-.92,1.67a.73.73,0,0,0,.26,1l1,.58a6.88,6.88,0,0,0,0,4l-.94.56a.81.81,0,0,0-.26,1l.92,1.67a.82.82,0,0,0,.43.35l.18,0a.76.76,0,0,0,.37-.1l1-.63A6.88,6.88,0,0,0,24,31.88v.81a.67.67,0,0,0,.68.66h1.81a.68.68,0,0,0,.7-.66v-.81a7,7,0,0,0,3.23-1.8l1,.61a.78.78,0,0,0,.35.1.55.55,0,0,0,.18,0,.68.68,0,0,0,.43-.36l.92-1.66A.73.73,0,0,0,33,27.77ZM31.62,20a.22.22,0,0,1,.1,0h.06a.36.36,0,0,1,.14.1l.9,1.68a.23.23,0,0,1-.08.33l-.8.49a7.13,7.13,0,0,0-1.24-2Zm-7.18-2.78a.18.18,0,0,1,.19-.18h1.81a.2.2,0,0,1,.21.18v1.12a6.94,6.94,0,0,0-1.11-.1,6.52,6.52,0,0,0-1.1.1Zm-6.19,4.89a.28.28,0,0,1-.08-.33l.92-1.66a.21.21,0,0,1,.14-.12h0a.15.15,0,0,1,.1,0l1,.59a6.74,6.74,0,0,0-1.22,2Zm1.16,8.09a.16.16,0,0,1-.16,0c-.06,0-.1,0-.14-.1l-.92-1.66a.28.28,0,0,1,.08-.34l.84-.51a6.75,6.75,0,0,0,1.24,2Zm7.24,2.45a.2.2,0,0,1-.21.17H24.63a.18.18,0,0,1-.19-.17V32a6.52,6.52,0,0,0,1.1.1,6.94,6.94,0,0,0,1.11-.1Zm3.64-3.23c-.12.11-.23.25-.35.37a6.31,6.31,0,0,1-2.8,1.54,2.13,2.13,0,0,1-.49.1,5.24,5.24,0,0,1-1.11.12,6.52,6.52,0,0,1-1.1-.1,2.19,2.19,0,0,1-.49-.12,6,6,0,0,1-2.84-1.58,3.89,3.89,0,0,1-.35-.37,5.91,5.91,0,0,1-1.2-2,1.64,1.64,0,0,1-.15-.49,5.43,5.43,0,0,1-.26-1.72,5.51,5.51,0,0,1,.26-1.74,1.61,1.61,0,0,1,.15-.47,5.58,5.58,0,0,1,1.22-2,1.45,1.45,0,0,1,.35-.35A5.84,5.84,0,0,1,24,19a1.73,1.73,0,0,1,.49-.11,6.52,6.52,0,0,1,1.1-.1,6,6,0,0,1,1.11.11,1.43,1.43,0,0,1,.49.1,6.23,6.23,0,0,1,2.78,1.53,3.61,3.61,0,0,1,.33.35,6.2,6.2,0,0,1,1.26,2c0,.15.11.31.15.47a6.18,6.18,0,0,1,.28,1.82,6,6,0,0,1-.28,1.8,1.71,1.71,0,0,1-.15.47A6.42,6.42,0,0,1,30.29,29.46Zm2.51-.94-.92,1.66a.18.18,0,0,1-.12.12.22.22,0,0,1-.16,0l-.9-.55a6.65,6.65,0,0,0,1.24-2l.78.47A.25.25,0,0,1,32.8,28.52Z" fill="#820082" class="color000 svgShape"></path><path fill-rule="evenodd" d="M3.68,27.27V22.66c0-2.54,4.56-4.6,10.18-4.6s10.19,2.06,10.19,4.6v4.61Z" fill="#820082" class="color000 svgShape"></path><circle cx="13.86" cy="10.73" r="6.64" fill="#820082" class="color000 svgShape"></circle></g></svg></g></svg>