<svg height="30px" width="30px" id="SvgjsSvg1086" xmlns="http://www.w3.org/2000/svg" version="1.1" xmlns:xlink="http://www.w3.org/1999/xlink" xmlns:svgjs="http://svgjs.com/svgjs"><defs id="SvgjsDefs1087"></defs><g id="SvgjsG1088"><svg xmlns="http://www.w3.org/2000/svg" viewBox="0 0 36 36"><g data-name="Layer 2" fill="#008000" class="color000 svgShape"><path d="M27.44,30h-20V5.13h20Zm-19-1h18V6.13h-18Z" fill="#008000" class="color000 svgShape"></path><rect width="8.47" height="1" x="10.43" y="10.9" fill="#008000" class="color000 svgShape"></rect><rect width="1" height="10.74" x="15.3" y="8.66" transform="rotate(-89.72 15.803 14.036)" fill="#008000" class="color000 svgShape"></rect><rect width="13.46" height="1" x="10.48" y="16.4" transform="rotate(-.67 17.003 17.203)" fill="#008000" class="color000 svgShape"></rect><rect width="1" height="5.43" x="12.68" y="17.39" transform="rotate(-89.16 13.184 20.103)" fill="#008000" class="color000 svgShape"></rect><rect width="13.46" height="1" x="10.27" y="22.88" transform="rotate(-.67 16.968 23.19)" fill="#008000" class="color000 svgShape"></rect><path d="M21.24,33.31a4.42,4.42,0,1,1,0-8.82,4.56,4.56,0,0,1,4.68,4.41A4.56,4.56,0,0,1,21.24,33.31Zm0-7.82a3.42,3.42,0,1,0,0,6.82,3.42,3.42,0,1,0,0-6.82Z" fill="#008000" class="color000 svgShape"></path><path d="M22.54 32.61L23.23 35l-2-1.58-2 1.58.7-2.36a3.92 3.92 0 01-2.88-3.71A4 4 0 0121.24 25a4.05 4.05 0 014.18 3.91A3.93 3.93 0 0122.54 32.61zM27.6 9.05a3.63 3.63 0 112.28-4.59A3.63 3.63 0 0127.6 9.05zM25.42 2.56a3.22 3.22 0 104.08 2A3.22 3.22 0 0025.42 2.56z" fill="#008000" class="color000 svgShape"></path><path d="M23.64 3.72a.51.51 0 01-.49-.09l-.29-.24A.51.51 0 0122.7 3a.58.58 0 01.15-.39l.29-.34a.55.55 0 01.76-.1l.29.25a.51.51 0 01.16.38.6.6 0 01-.15.39L24 3A.34.34 0 0024 2.8.2.2 0 0024 2.67l-.29-.24a.23.23 0 00-.31.06l-.29.34A.31.31 0 0023 3a.2.2 0 00.05.13l.29.25a.25.25 0 00.31-.07l.24.21A.64.64 0 0123.64 3.72zM27.82 2.53a.71.71 0 01-.25 0l.08-.32a.3.3 0 00.21 0 .21.21 0 00.08-.1L28 1.71a.23.23 0 00-.2-.24l-.43-.11a.44.44 0 00-.2 0 .17.17 0 00-.09.11L27 1.86a.23.23 0 00.2.24l-.08.31a.54.54 0 01-.43-.63l.09-.37a.5.5 0 01.25-.32.67.67 0 01.42 0l.43.1a.55.55 0 01.44.64l-.09.36a.48.48 0 01-.22.3A.66.66 0 0127.82 2.53zM30.32 5.24a.47.47 0 01-.4 0 .62.62 0 01-.26-.33l.3-.11a.34.34 0 00.12.16.2.2 0 00.14 0l.36-.13a.18.18 0 00.09-.08.28.28 0 000-.22l-.14-.42a.32.32 0 00-.14-.16.23.23 0 00-.12 0l-.36.13a.12.12 0 00-.09.08.28.28 0 000 .22l-.31.1a.61.61 0 010-.46.47.47 0 01.27-.25l.36-.12a.47.47 0 01.37 0 .58.58 0 01.3.35l.15.42a.61.61 0 010 .46.51.51 0 01-.27.25l-.36.12zM29.79 8.79h0a.49.49 0 01-.41-.06L29 8.52a.54.54 0 01-.1-.76l.27.19a.23.23 0 000 .31l.32.21a.13.13 0 00.13 0 .28.28 0 00.16-.12L30.08 8a.27.27 0 00.05-.19.17.17 0 00-.06-.13l-.32-.21c-.08-.06-.21 0-.29.1l-.27-.18a.55.55 0 01.75-.19l.31.22a.53.53 0 01.21.35.67.67 0 01-.11.41l-.25.36A.6.6 0 0129.79 8.79zM26 10.21a.65.65 0 01-.31 0l-.44-.08a.58.58 0 01-.36-.21.51.51 0 01-.11-.39l.07-.38a.55.55 0 01.65-.4l-.06.32a.24.24 0 00-.28.14l-.06.37a.2.2 0 000 .14.26.26 0 00.17.09l.44.08A.23.23 0 0026 9.77l.06-.37c0-.1-.08-.21-.21-.23L26 8.85a.55.55 0 01.47.6l-.07.38A.5.5 0 0126 10.21zM22.77 7.71a.56.56 0 01-.67-.36l-.16-.42a.54.54 0 01.28-.71l.35-.14a.54.54 0 01.68.35l-.3.12a.23.23 0 00-.26-.17l-.36.14c-.09 0-.13.17-.08.3l.15.41a.25.25 0 00.27.17L23 7.26a.19.19 0 00.1-.1.35.35 0 000-.2l.3-.11a.61.61 0 010 .42.49.49 0 01-.28.3l-.36.13z" fill="#008000" class="color000 svgShape"></path></g></svg></g></svg>