<svg height="30px" width="30px" xmlns="http://www.w3.org/2000/svg" viewBox="0 0 36 36"><g id="Layer_2" data-name="Layer 2"><path d="M27.44,30h-20V5.13h20Zm-19-1h18V6.13h-18Z"/><rect x="10.43" y="10.9" width="8.47" height="1"/><rect x="15.3" y="8.66" width="1" height="10.74" transform="translate(1.69 29.77) rotate(-89.72)"/><rect x="10.48" y="16.4" width="13.46" height="1" transform="translate(-0.2 0.2) rotate(-0.67)"/><rect x="12.68" y="17.39" width="1" height="5.43" transform="translate(-7.11 32.99) rotate(-89.16)"/><rect x="10.27" y="22.88" width="13.46" height="1" transform="translate(-0.27 0.2) rotate(-0.67)"/><path d="M21.24,33.31a4.42,4.42,0,1,1,0-8.82,4.56,4.56,0,0,1,4.68,4.41A4.56,4.56,0,0,1,21.24,33.31Zm0-7.82a3.42,3.42,0,1,0,0,6.82,3.42,3.42,0,1,0,0-6.82Z"/><path d="M22.54,32.61,23.23,35l-2-1.58-2,1.58.7-2.36a3.92,3.92,0,0,1-2.88-3.71A4,4,0,0,1,21.24,25a4.05,4.05,0,0,1,4.18,3.91A3.93,3.93,0,0,1,22.54,32.61Z"/><path d="M27.6,9.05a3.63,3.63,0,1,1,2.28-4.59A3.63,3.63,0,0,1,27.6,9.05ZM25.42,2.56a3.22,3.22,0,1,0,4.08,2A3.22,3.22,0,0,0,25.42,2.56Z"/><path d="M23.64,3.72a.51.51,0,0,1-.49-.09l-.29-.24A.51.51,0,0,1,22.7,3a.58.58,0,0,1,.15-.39l.29-.34a.55.55,0,0,1,.76-.1l.29.25a.51.51,0,0,1,.16.38.6.6,0,0,1-.15.39L24,3A.34.34,0,0,0,24,2.8.2.2,0,0,0,24,2.67l-.29-.24a.23.23,0,0,0-.31.06l-.29.34A.31.31,0,0,0,23,3a.2.2,0,0,0,.05.13l.29.25a.25.25,0,0,0,.31-.07l.24.21A.64.64,0,0,1,23.64,3.72Z"/><path d="M27.82,2.53a.71.71,0,0,1-.25,0l.08-.32a.3.3,0,0,0,.21,0,.21.21,0,0,0,.08-.1L28,1.71a.23.23,0,0,0-.2-.24l-.43-.11a.44.44,0,0,0-.2,0,.17.17,0,0,0-.09.11L27,1.86a.23.23,0,0,0,.2.24l-.08.31a.54.54,0,0,1-.43-.63l.09-.37a.5.5,0,0,1,.25-.32.67.67,0,0,1,.42,0l.43.1a.55.55,0,0,1,.44.64l-.09.36a.48.48,0,0,1-.22.3A.66.66,0,0,1,27.82,2.53Z"/><path d="M30.32,5.24a.47.47,0,0,1-.4,0,.62.62,0,0,1-.26-.33l.3-.11a.34.34,0,0,0,.12.16.2.2,0,0,0,.14,0l.36-.13a.18.18,0,0,0,.09-.08.28.28,0,0,0,0-.22l-.14-.42a.32.32,0,0,0-.14-.16.23.23,0,0,0-.12,0l-.36.13a.12.12,0,0,0-.09.08.28.28,0,0,0,0,.22l-.31.1a.61.61,0,0,1,0-.46.47.47,0,0,1,.27-.25l.36-.12a.47.47,0,0,1,.37,0,.58.58,0,0,1,.3.35l.15.42a.61.61,0,0,1,0,.46.51.51,0,0,1-.27.25l-.36.12Z"/><path d="M29.79,8.79h0a.49.49,0,0,1-.41-.06L29,8.52a.54.54,0,0,1-.1-.76l.27.19a.23.23,0,0,0,0,.31l.32.21a.13.13,0,0,0,.13,0,.28.28,0,0,0,.16-.12L30.08,8a.27.27,0,0,0,.05-.19.17.17,0,0,0-.06-.13l-.32-.21c-.08-.06-.21,0-.29.1l-.27-.18a.55.55,0,0,1,.75-.19l.31.22a.53.53,0,0,1,.21.35.67.67,0,0,1-.11.41l-.25.36A.6.6,0,0,1,29.79,8.79Z"/><path d="M26,10.21a.65.65,0,0,1-.31,0l-.44-.08a.58.58,0,0,1-.36-.21.51.51,0,0,1-.11-.39l.07-.38a.55.55,0,0,1,.65-.4l-.06.32a.24.24,0,0,0-.28.14l-.06.37a.2.2,0,0,0,0,.14.26.26,0,0,0,.17.09l.44.08A.23.23,0,0,0,26,9.77l.06-.37c0-.1-.08-.21-.21-.23L26,8.85a.55.55,0,0,1,.47.6l-.07.38A.5.5,0,0,1,26,10.21Z"/><path d="M22.77,7.71a.56.56,0,0,1-.67-.36l-.16-.42a.54.54,0,0,1,.28-.71l.35-.14a.54.54,0,0,1,.68.35l-.3.12a.23.23,0,0,0-.26-.17l-.36.14c-.09,0-.13.17-.08.3l.15.41a.25.25,0,0,0,.27.17L23,7.26a.19.19,0,0,0,.1-.1.35.35,0,0,0,0-.2l.3-.11a.61.61,0,0,1,0,.42.49.49,0,0,1-.28.3l-.36.13Z"/></g></svg>