<svg height="30px" width="30px" xmlns="http://www.w3.org/2000/svg" viewBox="0 0 36 36"><g id="Layer_1" data-name="Layer 1"><path d="M18.5,3A15.92,15.92,0,1,0,34.42,18.9,15.92,15.92,0,0,0,18.5,3ZM13.39,29.7a6.8,6.8,0,1,1,6.81-6.8A6.8,6.8,0,0,1,13.39,29.7ZM28.05,27s-.36,1-1,0l-.11-13.29-13.26-4s-1.46.11-.84,1.65l12.12,4V30.63L18.3,28.46a7.44,7.44,0,0,0-6.93-12.82c0-1.4,0-4,0-5.51C11.29,7.71,15,8.59,15,8.59l13,3.91Z"/><path d="M13.39,20.72a2.18,2.18,0,1,0,2.19,2.18A2.19,2.19,0,0,0,13.39,20.72Zm0,3.7a1.52,1.52,0,1,1,1.52-1.52A1.52,1.52,0,0,1,13.39,24.42Z"/></g></svg>