<svg height="30px" width="30px" xmlns="http://www.w3.org/2000/svg" viewBox="0 0 36 36"><defs><style>.cls-1{fill-rule:evenodd;}</style></defs><g id="Layer_2" data-name="Layer 2"><path class="cls-1" d="M3.45,18.93A14.57,14.57,0,0,1,18.15,4.49,14.57,14.57,0,0,1,32.84,18.93,14.56,14.56,0,0,1,18.15,33.36,14.57,14.57,0,0,1,3.45,18.93Zm1.14,0a13.43,13.43,0,0,0,13.56,13.3A13.43,13.43,0,0,0,31.7,18.93,13.43,13.43,0,0,0,18.15,5.62,13.44,13.44,0,0,0,4.59,18.93Z"/><path d="M18.15,33.41A14.64,14.64,0,0,1,3.4,18.93,14.64,14.64,0,0,1,18.15,4.44,14.63,14.63,0,0,1,32.89,18.93,14.63,14.63,0,0,1,18.15,33.41Zm0-28.87A14.54,14.54,0,0,0,3.5,18.93,14.53,14.53,0,0,0,18.15,33.31,14.53,14.53,0,0,0,32.79,18.93,14.54,14.54,0,0,0,18.15,4.54Zm0,27.74A13.5,13.5,0,0,1,4.54,18.93,13.5,13.5,0,0,1,18.15,5.57a13.49,13.49,0,0,1,13.6,13.36A13.49,13.49,0,0,1,18.15,32.28Zm0-26.61A13.4,13.4,0,0,0,4.64,18.93,13.4,13.4,0,0,0,18.15,32.18a13.4,13.4,0,0,0,13.5-13.25A13.4,13.4,0,0,0,18.15,5.67Z"/><path d="M18.15,33.41A14.64,14.64,0,0,1,3.4,18.93,14.64,14.64,0,0,1,18.15,4.44,14.63,14.63,0,0,1,32.89,18.93,14.63,14.63,0,0,1,18.15,33.41Zm0-28.87A14.54,14.54,0,0,0,3.5,18.93,14.53,14.53,0,0,0,18.15,33.31,14.53,14.53,0,0,0,32.79,18.93,14.54,14.54,0,0,0,18.15,4.54Zm0,27.74A13.5,13.5,0,0,1,4.54,18.93,13.5,13.5,0,0,1,18.15,5.57a13.49,13.49,0,0,1,13.6,13.36A13.49,13.49,0,0,1,18.15,32.28Zm0-26.61A13.4,13.4,0,0,0,4.64,18.93,13.4,13.4,0,0,0,18.15,32.18a13.4,13.4,0,0,0,13.5-13.25A13.4,13.4,0,0,0,18.15,5.67Z"/><path class="cls-1" d="M24,17a5.69,5.69,0,0,0-5.82-5.54A5.69,5.69,0,0,0,12.32,17a5.56,5.56,0,0,0,3.57,5.12l-1.15,4.36,3.41-3.07,3.4,3.07-1.14-4.36A5.56,5.56,0,0,0,24,17Zm-4.75.33.67,2.07-1.74-1.28-1.74,1.28.66-2.07L15.33,16h2.15L18.15,14,18.81,16H21Z"/></g></svg>