<svg height="30px" width="30px" id="SvgjsSvg1207"   xmlns="http://www.w3.org/2000/svg" version="1.1" xmlns:xlink="http://www.w3.org/1999/xlink" xmlns:svgjs="http://svgjs.com/svgjs"><defs id="SvgjsDefs1208"></defs><g id="SvgjsG1209"><svg xmlns="http://www.w3.org/2000/svg" viewBox="0 0 36 36"  ><g data-name="Layer 1" fill="#8d6e63" class="color000 svgShape"><path d="M16 20.64a.45.45 0 10.45-.45A.45.45 0 0016 20.64zM18.86 16.25A.47.47 0 0019.1 16a.44.44 0 00-.24-.57.51.51 0 00-.17 0 .43.43 0 00-.4.27.44.44 0 00.24.57A.47.47 0 0018.86 16.25z" fill="#8d6e63" class="color000 svgShape"></path><circle cx="17.49" cy="18.85" r=".44" fill="#8d6e63" class="color000 svgShape"></circle><path d="M16.47,19.82a.81.81,0,0,1,.79.63h.6l.46.42h1.43l.47-.42h1.86V19H20.49l-.51.46a.77.77,0,0,1,.08.34.82.82,0,1,1-.82-.82.83.83,0,0,1,.51.18l.59-.53h1.74V15.6a1.23,1.23,0,0,0-1.23-1.23h-6a1.23,1.23,0,0,0-1.23,1.23v1h1.42l1.08-.93H17.9a.56.56,0,0,1,0-.12A.81.81,0,0,1,19,15.09a.83.83,0,0,1,.45,1.06.79.79,0,0,1-.44.44.71.71,0,0,1-.32.07.8.8,0,0,1-.3-.06A.82.82,0,0,1,17.9,16H16.3L15.22,17H13.66v1.09h1.73l.54.61h.76a.83.83,0,0,1,.8-.63.82.82,0,1,1-.8,1h-.93l-.54-.61H13.66v3.14a1.23,1.23,0,0,0,1.23,1.23h6a1.23,1.23,0,0,0,1.23-1.23v-.73H20.36l-.46.41H18.18l-.46-.41h-.46a.82.82,0,1,1-.79-1ZM19.92,15h.93a.64.64,0,0,1,.65.64v2a.19.19,0,0,1-.19.18.18.18,0,0,1-.19-.18v-2a.27.27,0,0,0-.27-.27h-.93a.18.18,0,0,1-.18-.19A.18.18,0,0,1,19.92,15Zm-4.06,6.65a.19.19,0,0,1,.18.19.18.18,0,0,1-.18.19h-.93a.65.65,0,0,1-.65-.64v-2a.2.2,0,0,1,.19-.19.19.19,0,0,1,.19.19v2a.27.27,0,0,0,.27.26Z" fill="#8d6e63" class="color000 svgShape"></path><path d="M18.79,19.83a.45.45,0,1,0,.45-.45A.45.45,0,0,0,18.79,19.83Z" fill="#8d6e63" class="color000 svgShape"></path><rect width=".44" height="1.67" x="12.89" y="15.01" rx=".18" transform="rotate(90 13.11 15.84)" fill="#8d6e63" class="color000 svgShape"></rect><rect width=".44" height="1.67" x="12.89" y="16.66" rx=".18" transform="rotate(90 13.11 17.49)" fill="#8d6e63" class="color000 svgShape"></rect><rect width=".44" height="1.67" x="12.89" y="18.15" rx=".18" transform="rotate(90 13.11 18.98)" fill="#8d6e63" class="color000 svgShape"></rect><rect width=".44" height="1.67" x="12.89" y="19.63" rx=".18" transform="rotate(90 13.11 20.47)" fill="#8d6e63" class="color000 svgShape"></rect><rect width=".44" height="1.67" x="12.89" y="21" rx=".18" transform="rotate(90 13.11 21.83)" fill="#8d6e63" class="color000 svgShape"></rect><rect width=".44" height="1.67" x="20.29" y="22.57" rx=".18" transform="rotate(-180 20.51 23.41)" fill="#8d6e63" class="color000 svgShape"></rect><rect width=".44" height="1.67" x="19.06" y="22.57" rx=".18" transform="rotate(-180 19.28 23.41)" fill="#8d6e63" class="color000 svgShape"></rect><rect width=".44" height="1.67" x="17.83" y="22.57" rx=".18" transform="rotate(180 18.045 23.41)" fill="#8d6e63" class="color000 svgShape"></rect><rect width=".44" height="1.67" x="16.36" y="22.57" rx=".18" transform="rotate(180 16.58 23.41)" fill="#8d6e63" class="color000 svgShape"></rect><rect width=".44" height="1.67" x="15.01" y="22.57" rx=".18" transform="rotate(-180 15.225 23.41)" fill="#8d6e63" class="color000 svgShape"></rect><rect width=".44" height="1.67" x="20.29" y="12.93" rx=".18" transform="rotate(-180 20.51 13.76)" fill="#8d6e63" class="color000 svgShape"></rect><rect width=".44" height="1.67" x="19.06" y="12.93" rx=".18" transform="rotate(-180 19.28 13.76)" fill="#8d6e63" class="color000 svgShape"></rect><rect width=".44" height="1.67" x="17.83" y="12.93" rx=".18" transform="rotate(180 18.045 13.76)" fill="#8d6e63" class="color000 svgShape"></rect><rect width=".44" height="1.67" x="16.36" y="12.93" rx=".18" transform="rotate(180 16.58 13.76)" fill="#8d6e63" class="color000 svgShape"></rect><rect width=".44" height="1.67" x="15.01" y="12.93" rx=".18" transform="rotate(180 15.225 13.76)" fill="#8d6e63" class="color000 svgShape"></rect><rect width=".44" height="1.67" x="22.48" y="15.02" rx=".18" transform="rotate(90 22.7 15.85)" fill="#8d6e63" class="color000 svgShape"></rect><rect width=".44" height="1.67" x="22.48" y="16.67" rx=".18" transform="rotate(90 22.7 17.5)" fill="#8d6e63" class="color000 svgShape"></rect><rect width=".44" height="1.67" x="22.4" y="19.35" rx=".18" transform="rotate(90 22.62 20.18)" fill="#8d6e63" class="color000 svgShape"></rect><rect width=".44" height="1.67" x="22.4" y="21" rx=".18" transform="rotate(90 22.62 21.83)" fill="#8d6e63" class="color000 svgShape"></rect><path d="M26.58,26.15H9.23V8.79H26.58Zm-16.44-.91H25.67V9.71H10.14Z" fill="#8d6e63" class="color000 svgShape"></path><rect width="2.99" height=".63" x="18.3" y="10.01" transform="rotate(90 19.795 10.325)" fill="#8d6e63" class="color000 svgShape"></rect><rect width="12.93" height=".63" x="11.44" y="11.19" transform="rotate(180 17.9 11.505)" fill="#8d6e63" class="color000 svgShape"></rect><circle cx="20.74" cy="10.43" r=".33" fill="#8d6e63" class="color000 svgShape"></circle><circle cx="21.75" cy="10.43" r=".33" fill="#8d6e63" class="color000 svgShape"></circle><circle cx="22.7" cy="10.43" r=".33" fill="#8d6e63" class="color000 svgShape"></circle><circle cx="23.66" cy="10.43" r=".33" fill="#8d6e63" class="color000 svgShape"></circle><polygon points="17.49 2.09 17.49 8.34 18.4 8.34 18.4 3 33.93 3 33.93 18.53 27.11 18.53 27.11 19.44 34.85 19.44 34.85 2.09 17.49 2.09" fill="#8d6e63" class="color000 svgShape"></polygon><polygon points="17.6 26.78 17.6 33 2.07 33 2.07 17.47 8.67 17.47 8.67 16.56 1.15 16.56 1.15 33.91 18.51 33.91 18.51 26.78 17.6 26.78" fill="#8d6e63" class="color000 svgShape"></polygon></g></svg></g></svg>