<svg height="30px" width="30px" id="SvgjsSvg1338"   xmlns="http://www.w3.org/2000/svg" version="1.1" xmlns:xlink="http://www.w3.org/1999/xlink" xmlns:svgjs="http://svgjs.com/svgjs"><defs id="SvgjsDefs1339"></defs><g id="SvgjsG1340"><svg xmlns="http://www.w3.org/2000/svg" viewBox="0 0 36 36"  ><g data-name="Layer 1" fill="#8d6e63" class="color000 svgShape"><polygon points="23.7 17.61 11.08 17.61 16.36 12.88 16.79 13.35 12.75 16.97 23.7 16.97 23.7 17.61" fill="#8d6e63" class="color000 svgShape"></polygon><polygon points="19.25 23.29 18.82 22.82 22.86 19.2 11.91 19.2 11.91 18.57 24.53 18.57 19.25 23.29" fill="#8d6e63" class="color000 svgShape"></polygon><path stroke="#8d6e63" stroke-miterlimit="10" stroke-width=".5" d="M26.41,26.85H9.2V9.65H26.41ZM9.84,26.21H25.77V10.28H9.84Z" fill="#8d6e63" class="color000 svgShape colorStroke000 svgStroke"></path><polygon points="13.37 9.96 12.73 9.96 12.73 7.66 5.61 7.66 5.61 7.03 13.37 7.03 13.37 9.96" fill="#8d6e63" class="color000 svgShape"></polygon><polygon points="29.03 13.88 26.09 13.88 26.09 13.24 28.39 13.24 28.39 6.12 29.03 6.12 29.03 13.88" fill="#8d6e63" class="color000 svgShape"></polygon><polygon points="29.91 29.5 22.15 29.5 22.15 26.56 22.79 26.56 22.79 28.86 29.91 28.86 29.91 29.5" fill="#8d6e63" class="color000 svgShape"></polygon><polygon points="7.1 30.5 6.46 30.5 6.46 22.74 9.4 22.74 9.4 23.38 7.1 23.38 7.1 30.5" fill="#8d6e63" class="color000 svgShape"></polygon><rect width=".64" height="5.56" x="22.16" y="4.4" fill="#8d6e63" class="color000 svgShape"></rect><rect width=".64" height="5.56" x="12.73" y="26.51" fill="#8d6e63" class="color000 svgShape"></rect><rect width="5.56" height=".64" x="4" y="13.24" fill="#8d6e63" class="color000 svgShape"></rect><rect width="5.56" height=".64" x="26.09" y="22.74" fill="#8d6e63" class="color000 svgShape"></rect><path d="M22.48 5.05a1.73 1.73 0 111.73-1.73A1.73 1.73 0 0122.48 5.05zm0-2.82a1.09 1.09 0 101.09 1.09A1.09 1.09 0 0022.48 2.23zM28.71 6.76A1.73 1.73 0 1130.43 5 1.73 1.73 0 0128.71 6.76zm0-2.81A1.09 1.09 0 1029.8 5 1.08 1.08 0 0028.71 4zM32.8 24.78a1.73 1.73 0 111.73-1.72A1.73 1.73 0 0132.8 24.78zm0-2.81a1.09 1.09 0 101.09 1.09A1.09 1.09 0 0032.8 22zM31.32 30.91A1.73 1.73 0 1133 29.18 1.73 1.73 0 0131.32 30.91zm0-2.81a1.09 1.09 0 101.09 1.08A1.08 1.08 0 0031.32 28.1zM13.05 34.9a1.73 1.73 0 111.72-1.73A1.74 1.74 0 0113.05 34.9zm0-2.82a1.09 1.09 0 101.09 1.09A1.09 1.09 0 0013.05 32.08zM6.78 33.49a1.73 1.73 0 111.73-1.73A1.73 1.73 0 016.78 33.49zm0-2.81a1.09 1.09 0 101.09 1.08A1.08 1.08 0 006.78 30.68zM2.68 15.36a1.73 1.73 0 111.73-1.72A1.73 1.73 0 012.68 15.36zm0-2.81a1.09 1.09 0 101.09 1.09A1.09 1.09 0 002.68 12.55zM4.34 8.91A1.73 1.73 0 116.07 7.18 1.73 1.73 0 014.34 8.91zm0-2.81A1.09 1.09 0 105.43 7.18 1.08 1.08 0 004.34 6.1z" fill="#8d6e63" class="color000 svgShape"></path></g></svg></g></svg>