<svg height="30px" width="30px" xmlns="http://www.w3.org/2000/svg" viewBox="0 0 36 36"><g id="Layer_1" data-name="Layer 1"><path d="M15.35,22.43a.63.63,0,1,0,.63-.62A.63.63,0,0,0,15.35,22.43Z"/><path d="M19.35,16.25a.56.56,0,0,0,.33-.34.61.61,0,0,0-.34-.8.59.59,0,0,0-.23,0,.61.61,0,0,0-.23,1.18A.59.59,0,0,0,19.35,16.25Z"/><circle cx="17.42" cy="19.91" r="0.62"/><path d="M16,21.28a1.16,1.16,0,0,1,1.12.89h.84l.65.58h2l.65-.58h2.63v-2H21.64l-.71.63a1.12,1.12,0,0,1,.1.48,1.14,1.14,0,1,1-.43-.9l.84-.74h2.45V15.33a1.74,1.74,0,0,0-1.74-1.73H13.76A1.74,1.74,0,0,0,12,15.33v1.4h2l1.52-1.31H18a1.09,1.09,0,0,1,.05-.17,1.15,1.15,0,1,1,1.51,1.49,1.13,1.13,0,0,1-.45.09,1.31,1.31,0,0,1-.43-.08A1.16,1.16,0,0,1,18,16H15.75l-1.52,1.31H12v1.52h2.44l.76.87H16.3a1.16,1.16,0,1,1,0,.53H15l-.76-.87H12v4.42a1.73,1.73,0,0,0,1.74,1.73h8.39a1.73,1.73,0,0,0,1.74-1.73v-1H21.46l-.65.58H18.39l-.65-.58H17.1A1.16,1.16,0,1,1,16,21.28Zm4.87-6.77h1.3a.91.91,0,0,1,.91.91v2.81a.27.27,0,1,1-.53,0V15.42a.38.38,0,0,0-.38-.38h-1.3a.26.26,0,0,1-.27-.26A.27.27,0,0,1,20.85,14.51Zm-5.73,9.38a.27.27,0,0,1,.26.27.26.26,0,0,1-.26.26H13.81a.9.9,0,0,1-.91-.9V20.71a.27.27,0,1,1,.53,0v2.81a.38.38,0,0,0,.38.37Z"/><path d="M19.26,21.29a.62.62,0,1,0,.62-.62A.63.63,0,0,0,19.26,21.29Z"/><rect x="10.94" y="14.5" width="0.62" height="2.35" rx="0.21" transform="translate(26.92 4.43) rotate(90)"/><rect x="10.94" y="16.83" width="0.62" height="2.35" rx="0.21" transform="translate(29.25 6.75) rotate(90)"/><rect x="10.94" y="18.92" width="0.62" height="2.35" rx="0.21" transform="translate(31.34 8.85) rotate(90)"/><rect x="10.94" y="21.02" width="0.62" height="2.35" rx="0.21" transform="translate(33.44 10.95) rotate(90)"/><rect x="10.94" y="22.94" width="0.62" height="2.35" rx="0.21" transform="translate(35.36 12.87) rotate(90)"/><rect x="21.37" y="25.16" width="0.62" height="2.35" rx="0.21" transform="translate(43.35 52.67) rotate(-180)"/><rect x="19.63" y="25.16" width="0.62" height="2.35" rx="0.21" transform="matrix(-1, 0, 0, -1, 39.88, 52.67)"/><rect x="17.89" y="25.16" width="0.62" height="2.35" rx="0.21" transform="translate(36.41 52.67) rotate(-180)"/><rect x="15.83" y="25.16" width="0.62" height="2.35" rx="0.21" transform="translate(32.28 52.67) rotate(180)"/><rect x="13.92" y="25.16" width="0.62" height="2.35" rx="0.21" transform="translate(28.47 52.67) rotate(-180)"/><rect x="21.37" y="11.58" width="0.62" height="2.35" rx="0.21" transform="translate(43.35 25.5) rotate(-180)"/><rect x="19.63" y="11.58" width="0.62" height="2.35" rx="0.21" transform="translate(39.88 25.5) rotate(-180)"/><rect x="17.89" y="11.58" width="0.62" height="2.35" rx="0.21" transform="translate(36.41 25.5) rotate(-180)"/><rect x="15.83" y="11.58" width="0.62" height="2.35" rx="0.21" transform="translate(32.28 25.5) rotate(-180)"/><rect x="13.92" y="11.58" width="0.62" height="2.35" rx="0.21" transform="translate(28.47 25.5) rotate(-180)"/><rect x="24.44" y="14.52" width="0.62" height="2.35" rx="0.21" transform="translate(40.45 -9.06) rotate(90)"/><rect x="24.44" y="16.84" width="0.62" height="2.35" rx="0.21" transform="translate(42.77 -6.74) rotate(90)"/><rect x="24.33" y="20.61" width="0.62" height="2.35" rx="0.21" transform="translate(46.43 -2.85) rotate(90)"/><rect x="24.33" y="22.94" width="0.62" height="2.35" rx="0.21" transform="translate(48.75 -0.53) rotate(90)"/><path d="M34.4,30.25H1.6v-21H34.4ZM2.69,29.16H33.31V10.37H2.69Z"/><path d="M15.46,10.37a.55.55,0,0,1-.39-.93l3.69-3.69H34.39V9.82a.55.55,0,0,1-.55.55.55.55,0,0,1-.54-.55v-3H19.21l-3.36,3.37A.54.54,0,0,1,15.46,10.37Z"/></g></svg>