<svg height="30px" width="30px" id="SvgjsSvg1177"   xmlns="http://www.w3.org/2000/svg" version="1.1" xmlns:xlink="http://www.w3.org/1999/xlink" xmlns:svgjs="http://svgjs.com/svgjs"><defs id="SvgjsDefs1178"></defs><g id="SvgjsG1179"><svg xmlns="http://www.w3.org/2000/svg" viewBox="0 0 36 36"  ><g data-name="Layer 2" fill="#8d6e63" class="color000 svgShape"><path d="M5.12 20.44a.54.54 0 10.54-.54A.54.54 0 005.12 20.44zM8.58 15.09a.53.53 0 00.29-.3.53.53 0 00-.3-.69.43.43 0 00-.19 0 .54.54 0 00-.21 1A.58.58 0 008.58 15.09z" fill="#8d6e63" class="color000 svgShape"></path><circle cx="6.91" cy="18.26" r=".54" fill="#8d6e63" class="color000 svgShape"></circle><path d="M5.66,19.44a1,1,0,0,1,1,.77h.73l.56.51H9.67l.56-.51h2.28V18.49H10.56L10,19a1,1,0,0,1,.09.41,1,1,0,1,1-2,0,1,1,0,0,1,1-1,1,1,0,0,1,.62.21l.73-.64h2.12V14.29a1.5,1.5,0,0,0-1.5-1.5H3.73a1.5,1.5,0,0,0-1.5,1.5V15.5H4l1.32-1.13H7.41a.83.83,0,0,1,0-.15,1,1,0,0,1,1.3-.55A1,1,0,0,1,9.29,15a1,1,0,0,1-.53.54,1,1,0,0,1-.39.08A1,1,0,0,1,8,15.51a1,1,0,0,1-.59-.69H5.46L4.14,16H2.23v1.32H4.34L5,18h.94a1,1,0,1,1,0,.46H4.79l-.66-.75H2.23v3.82a1.5,1.5,0,0,0,1.5,1.51H11a1.5,1.5,0,0,0,1.5-1.51v-.89h-2.1l-.57.51H7.74l-.56-.51H6.63a1,1,0,1,1-1-1.23Zm4.22-5.86H11a.8.8,0,0,1,.79.79V16.8a.23.23,0,0,1-.23.23.23.23,0,0,1-.23-.23V14.37A.33.33,0,0,0,11,14H9.88a.23.23,0,0,1-.23-.23A.23.23,0,0,1,9.88,13.58Zm-5,8.13a.23.23,0,0,1,0,.46H3.78A.8.8,0,0,1,3,21.38V19a.23.23,0,0,1,.23-.23.23.23,0,0,1,.23.23v2.43a.33.33,0,0,0,.33.33Z" fill="#8d6e63" class="color000 svgShape"></path><path d="M8.5,19.45A.54.54,0,1,0,9,18.91.55.55,0,0,0,8.5,19.45Z" fill="#8d6e63" class="color000 svgShape"></path><rect width=".54" height="2.03" x="1.29" y="13.57" rx=".23" transform="rotate(90 1.56 14.59)" fill="#8d6e63" class="color000 svgShape"></rect><rect width=".54" height="2.03" x="1.29" y="15.58" rx=".23" transform="rotate(90 1.56 16.6)" fill="#8d6e63" class="color000 svgShape"></rect><rect width=".54" height="2.03" x="1.29" y="17.4" rx=".23" transform="rotate(90 1.56 18.42)" fill="#8d6e63" class="color000 svgShape"></rect><rect width=".54" height="2.03" x="1.29" y="19.22" rx=".23" transform="rotate(90 1.555 20.235)" fill="#8d6e63" class="color000 svgShape"></rect><rect width=".54" height="2.03" x="1.29" y="20.88" rx=".23" transform="rotate(90 1.56 21.9)" fill="#8d6e63" class="color000 svgShape"></rect><rect width=".54" height="2.03" x="10.33" y="22.81" rx=".23" transform="rotate(-180 10.595 23.825)" fill="#8d6e63" class="color000 svgShape"></rect><rect width=".54" height="2.03" x="8.82" y="22.81" rx=".23" transform="rotate(180 9.09 23.825)" fill="#8d6e63" class="color000 svgShape"></rect><rect width=".54" height="2.03" x="7.32" y="22.81" rx=".23" transform="rotate(-180 7.585 23.825)" fill="#8d6e63" class="color000 svgShape"></rect><rect width=".54" height="2.03" x="5.53" y="22.81" rx=".23" transform="rotate(-180 5.8 23.825)" fill="#8d6e63" class="color000 svgShape"></rect><rect width=".54" height="2.03" x="3.88" y="22.81" rx=".23" transform="rotate(180 4.145 23.825)" fill="#8d6e63" class="color000 svgShape"></rect><rect width=".54" height="2.03" x="10.33" y="11.04" rx=".23" transform="rotate(180 10.595 12.055)" fill="#8d6e63" class="color000 svgShape"></rect><rect width=".54" height="2.03" x="8.82" y="11.04" rx=".23" transform="rotate(-180 9.09 12.055)" fill="#8d6e63" class="color000 svgShape"></rect><rect width=".54" height="2.03" x="7.32" y="11.04" rx=".23" transform="rotate(-180 7.585 12.055)" fill="#8d6e63" class="color000 svgShape"></rect><rect width=".54" height="2.03" x="5.53" y="11.04" rx=".23" transform="rotate(180 5.8 12.055)" fill="#8d6e63" class="color000 svgShape"></rect><rect width=".54" height="2.03" x="3.88" y="11.04" rx=".23" transform="rotate(180 4.145 12.055)" fill="#8d6e63" class="color000 svgShape"></rect><rect width=".54" height="2.03" x="12.99" y="13.59" rx=".23" transform="rotate(90 13.26 14.6)" fill="#8d6e63" class="color000 svgShape"></rect><rect width=".54" height="2.03" x="12.99" y="15.6" rx=".23" transform="rotate(90 13.265 16.615)" fill="#8d6e63" class="color000 svgShape"></rect><rect width=".54" height="2.03" x="12.89" y="18.87" rx=".23" transform="rotate(90 13.165 19.885)" fill="#8d6e63" class="color000 svgShape"></rect><rect width=".54" height="2.03" x="12.89" y="20.88" rx=".23" transform="rotate(90 13.16 21.9)" fill="#8d6e63" class="color000 svgShape"></rect><path stroke="#8d6e63" stroke-miterlimit="10" stroke-width=".25" d="M21.76,8.68a16.51,16.51,0,0,0-10.14,3.2,1.92,1.92,0,0,1,.49.19,16.2,16.2,0,0,1,9.65-2.94c7.23,0,13.12,4,13.12,8.87S29,26.87,21.76,26.87a16.41,16.41,0,0,1-9.51-2.82,1.6,1.6,0,0,1-.49.18,16.6,16.6,0,0,0,10,3.09c7.48,0,13.57-4.18,13.57-9.32S29.24,8.68,21.76,8.68Z" fill="#8d6e63" class="color000 svgShape colorStroke000 svgStroke"></path><path stroke="#8d6e63" stroke-miterlimit="10" stroke-width=".25" d="M21.76,27.45a16.72,16.72,0,0,1-10.08-3.12l-.22-.16.27-.06a1.72,1.72,0,0,0,.46-.17l.07,0,.06.05a16.23,16.23,0,0,0,9.44,2.79c7.16,0,13-3.92,13-8.74s-5.83-8.74-13-8.74a16.06,16.06,0,0,0-9.58,2.91l-.06.05-.07,0a2.42,2.42,0,0,0-.46-.18l-.25-.06.2-.16A16.82,16.82,0,0,1,21.76,8.55c7.55,0,13.7,4.24,13.7,9.45S29.31,27.45,21.76,27.45ZM12,24.28a16.6,16.6,0,0,0,9.73,2.92c7.41,0,13.45-4.13,13.45-9.2s-6-9.2-13.45-9.2a16.68,16.68,0,0,0-9.88,3l.22.1A16.27,16.27,0,0,1,21.76,9C29.06,9,35,13,35,18s-5.94,9-13.24,9a16.51,16.51,0,0,1-9.52-2.79Z" fill="#8d6e63" class="color000 svgShape colorStroke000 svgStroke"></path></g></svg></g></svg>