<svg height="30px" width="30px" xmlns="http://www.w3.org/2000/svg" viewBox="0 0 36 36"><defs><style>.cls-1{stroke:#000;stroke-miterlimit:10;stroke-width:0.5px;}</style></defs><g id="Layer_1" data-name="Layer 1"><polygon points="23.7 17.61 11.08 17.61 16.36 12.88 16.79 13.35 12.75 16.97 23.7 16.97 23.7 17.61"/><polygon points="19.25 23.29 18.82 22.82 22.86 19.2 11.91 19.2 11.91 18.57 24.53 18.57 19.25 23.29"/><path class="cls-1" d="M26.41,26.85H9.2V9.65H26.41ZM9.84,26.21H25.77V10.28H9.84Z"/><polygon points="13.37 9.96 12.73 9.96 12.73 7.66 5.61 7.66 5.61 7.03 13.37 7.03 13.37 9.96"/><polygon points="29.03 13.88 26.09 13.88 26.09 13.24 28.39 13.24 28.39 6.12 29.03 6.12 29.03 13.88"/><polygon points="29.91 29.5 22.15 29.5 22.15 26.56 22.79 26.56 22.79 28.86 29.91 28.86 29.91 29.5"/><polygon points="7.1 30.5 6.46 30.5 6.46 22.74 9.4 22.74 9.4 23.38 7.1 23.38 7.1 30.5"/><rect x="22.16" y="4.4" width="0.64" height="5.56"/><rect x="12.73" y="26.51" width="0.64" height="5.56"/><rect x="4" y="13.24" width="5.56" height="0.64"/><rect x="26.09" y="22.74" width="5.56" height="0.64"/><path d="M22.48,5.05a1.73,1.73,0,1,1,1.73-1.73A1.73,1.73,0,0,1,22.48,5.05Zm0-2.82a1.09,1.09,0,1,0,1.09,1.09A1.09,1.09,0,0,0,22.48,2.23Z"/><path d="M28.71,6.76A1.73,1.73,0,1,1,30.43,5,1.73,1.73,0,0,1,28.71,6.76Zm0-2.81A1.09,1.09,0,1,0,29.8,5,1.08,1.08,0,0,0,28.71,4Z"/><path d="M32.8,24.78a1.73,1.73,0,1,1,1.73-1.72A1.73,1.73,0,0,1,32.8,24.78Zm0-2.81a1.09,1.09,0,1,0,1.09,1.09A1.09,1.09,0,0,0,32.8,22Z"/><path d="M31.32,30.91A1.73,1.73,0,1,1,33,29.18,1.73,1.73,0,0,1,31.32,30.91Zm0-2.81a1.09,1.09,0,1,0,1.09,1.08A1.08,1.08,0,0,0,31.32,28.1Z"/><path d="M13.05,34.9a1.73,1.73,0,1,1,1.72-1.73A1.74,1.74,0,0,1,13.05,34.9Zm0-2.82a1.09,1.09,0,1,0,1.09,1.09A1.09,1.09,0,0,0,13.05,32.08Z"/><path d="M6.78,33.49a1.73,1.73,0,1,1,1.73-1.73A1.73,1.73,0,0,1,6.78,33.49Zm0-2.81a1.09,1.09,0,1,0,1.09,1.08A1.08,1.08,0,0,0,6.78,30.68Z"/><path d="M2.68,15.36a1.73,1.73,0,1,1,1.73-1.72A1.73,1.73,0,0,1,2.68,15.36Zm0-2.81a1.09,1.09,0,1,0,1.09,1.09A1.09,1.09,0,0,0,2.68,12.55Z"/><path d="M4.34,8.91A1.73,1.73,0,1,1,6.07,7.18,1.73,1.73,0,0,1,4.34,8.91Zm0-2.81A1.09,1.09,0,1,0,5.43,7.18,1.08,1.08,0,0,0,4.34,6.1Z"/></g></svg>