<svg height="30px" width="30px" xmlns="http://www.w3.org/2000/svg" viewBox="0 0 36 36"><defs><style>.cls-1{stroke:#000;stroke-miterlimit:10;}</style></defs><g id="Layer_1" data-name="Layer 1"><path d="M15.41,20.82a.61.61,0,0,0,.61.61.61.61,0,0,0,.61-.61.61.61,0,0,0-.61-.61A.62.62,0,0,0,15.41,20.82Z"/><path d="M19.32,14.78a.59.59,0,0,0,.33-.33.61.61,0,0,0-.34-.78.57.57,0,0,0-.22,0,.6.6,0,0,0-.56.37.62.62,0,0,0,.33.79A.57.57,0,0,0,19.32,14.78Z"/><circle cx="17.44" cy="18.36" r="0.61"/><path d="M16,19.7a1.13,1.13,0,0,1,1.1.87h.82l.64.57h2l.64-.57h2.56V18.62H21.56l-.7.62a1,1,0,0,1,.1.47,1.13,1.13,0,1,1-1.12-1.13,1.15,1.15,0,0,1,.7.25l.82-.73h2.39V13.89a1.7,1.7,0,0,0-1.69-1.7H13.85a1.7,1.7,0,0,0-1.69,1.7v1.36h2L15.61,14H18a1,1,0,0,1,.05-.16,1.12,1.12,0,1,1,2.08.84,1.19,1.19,0,0,1-.6.61,1.15,1.15,0,0,1-.44.09,1.2,1.2,0,0,1-.42-.08,1.11,1.11,0,0,1-.67-.78H15.8l-1.49,1.28H12.16v1.49h2.38l.74.84h1.06a1.13,1.13,0,1,1,0,.52H15.05l-.75-.85H12.16v4.32a1.7,1.7,0,0,0,1.69,1.7h8.21a1.7,1.7,0,0,0,1.69-1.7v-1H21.38l-.63.58H18.38l-.64-.58h-.62A1.12,1.12,0,1,1,16,19.7Zm4.76-6.61h1.28A.89.89,0,0,1,23,14v2.75a.26.26,0,0,1-.26.26.26.26,0,0,1-.26-.26V14a.38.38,0,0,0-.37-.37H20.78a.26.26,0,1,1,0-.51Zm-5.6,9.16a.26.26,0,0,1,0,.52H13.91a.89.89,0,0,1-.89-.89V19.14a.26.26,0,1,1,.52,0v2.74a.36.36,0,0,0,.37.37Z"/><path d="M19.23,19.71a.61.61,0,0,0,.61.61.61.61,0,0,0,0-1.22A.61.61,0,0,0,19.23,19.71Z"/><rect x="11.1" y="13.07" width="0.61" height="2.3" rx="0.28" transform="translate(25.62 2.82) rotate(90)"/><rect x="11.1" y="15.34" width="0.61" height="2.3" rx="0.28" transform="translate(27.89 5.09) rotate(90)"/><rect x="11.1" y="17.39" width="0.61" height="2.3" rx="0.28" transform="translate(29.94 7.14) rotate(90)"/><rect x="11.1" y="19.44" width="0.61" height="2.3" rx="0.28" transform="translate(31.99 9.19) rotate(90)"/><rect x="11.1" y="21.32" width="0.61" height="2.3" rx="0.28" transform="translate(33.87 11.07) rotate(90)"/><rect x="21.29" y="23.49" width="0.61" height="2.3" rx="0.28" transform="translate(43.18 49.28) rotate(-180)"/><rect x="19.59" y="23.49" width="0.61" height="2.3" rx="0.28" transform="translate(39.79 49.28) rotate(-180)"/><rect x="17.89" y="23.49" width="0.61" height="2.3" rx="0.28" transform="translate(36.4 49.28) rotate(-180)"/><rect x="15.88" y="23.49" width="0.61" height="2.3" rx="0.28" transform="translate(32.37 49.28) rotate(-180)"/><rect x="14.01" y="23.49" width="0.61" height="2.3" rx="0.28" transform="translate(28.64 49.28) rotate(-180)"/><rect x="21.29" y="10.21" width="0.61" height="2.3" rx="0.28" transform="matrix(-1, 0, 0, -1, 43.18, 22.72)"/><rect x="19.59" y="10.21" width="0.61" height="2.3" rx="0.28" transform="translate(39.79 22.72) rotate(180)"/><rect x="17.89" y="10.21" width="0.61" height="2.3" rx="0.28" transform="translate(36.4 22.72) rotate(180)"/><rect x="15.88" y="10.21" width="0.61" height="2.3" rx="0.28" transform="translate(32.37 22.72) rotate(-180)"/><rect x="14.01" y="10.21" width="0.61" height="2.3" rx="0.28" transform="translate(28.64 22.72) rotate(-180)"/><rect x="24.3" y="13.09" width="0.61" height="2.3" rx="0.28" transform="translate(38.84 -10.36) rotate(90)"/><rect x="24.3" y="15.36" width="0.61" height="2.3" rx="0.28" transform="translate(41.11 -8.09) rotate(90)"/><rect x="24.18" y="19.05" width="0.61" height="2.3" rx="0.28" transform="translate(44.68 -4.29) rotate(90)"/><rect x="24.18" y="21.32" width="0.61" height="2.3" rx="0.28" transform="translate(46.95 -2.02) rotate(90)"/><path class="cls-1" d="M26.32,32.41H9.68L1.36,18,9.68,3.59H26.32L34.64,18ZM10,31.8H26l8-13.8L26,4.2H10L2.06,18Z"/></g></svg>