<svg height="30px" width="30px" xmlns="http://www.w3.org/2000/svg" viewBox="0 0 36 36"><g id="Layer_2" data-name="Layer 2"><path d="M16.54,19.67a.35.35,0,1,0,.35-.34A.35.35,0,0,0,16.54,19.67Z"/><path d="M18.75,16.26a.34.34,0,0,0,0-.63l-.13,0a.34.34,0,0,0-.31.21.33.33,0,0,0,.19.44A.3.3,0,0,0,18.75,16.26Z"/><circle cx="17.68" cy="18.28" r="0.34"/><path d="M16.89,19a.62.62,0,0,1,.61.49H18l.36.33h1.11l.36-.33h1.44V18.43H20l-.4.35a.58.58,0,0,1,.06.26.64.64,0,0,1-.63.64A.64.64,0,0,1,18.4,19a.64.64,0,0,1,.64-.63.6.6,0,0,1,.39.14l.47-.42h1.34V15.76a1,1,0,0,0-.95-1H15.66a1,1,0,0,0-.95,1v.77h1.1l.84-.73H18l0-.09a.63.63,0,0,1,.82-.35.64.64,0,0,1,.35.83.63.63,0,0,1-.34.34.7.7,0,0,1-.25,0,.59.59,0,0,1-.23,0A.64.64,0,0,1,18,16.1H16.76l-.84.72H14.71v.84h1.34l.42.47h.59a.64.64,0,1,1,0,.3h-.73L15.91,18h-1.2v2.43a1,1,0,0,0,.95,1h4.63a1,1,0,0,0,.95-1v-.56H19.91l-.36.32H18.21l-.36-.32H17.5a.62.62,0,0,1-.61.49.64.64,0,1,1,0-1.28Zm2.68-3.72h.72a.5.5,0,0,1,.5.5v1.55a.15.15,0,0,1-.15.14.14.14,0,0,1-.14-.14V15.81a.21.21,0,0,0-.21-.21h-.72a.15.15,0,0,1-.15-.15A.15.15,0,0,1,19.57,15.31Zm-3.16,5.17a.15.15,0,0,1,.15.14.15.15,0,0,1-.15.15h-.72a.51.51,0,0,1-.5-.5V18.72a.15.15,0,0,1,.15-.15.15.15,0,0,1,.14.15v1.55a.22.22,0,0,0,.21.21Z"/><path d="M18.69,19a.35.35,0,0,0,.35.35.35.35,0,0,0,.34-.35A.34.34,0,0,0,19,18.7.35.35,0,0,0,18.69,19Z"/><rect x="14.11" y="15.3" width="0.34" height="1.29" rx="0.14" transform="translate(30.22 1.67) rotate(90)"/><rect x="14.11" y="16.58" width="0.34" height="1.29" rx="0.14" transform="translate(31.5 2.95) rotate(90)"/><rect x="14.11" y="17.74" width="0.34" height="1.29" rx="0.14" transform="translate(32.66 4.11) rotate(90)"/><rect x="14.11" y="18.89" width="0.34" height="1.29" rx="0.14" transform="matrix(0, 1, -1, 0, 33.82, 5.26)"/><rect x="14.11" y="19.95" width="0.34" height="1.29" rx="0.14" transform="matrix(0, 1, -1, 0, 34.87, 6.32)"/><rect x="19.85" y="21.17" width="0.34" height="1.29" rx="0.14" transform="translate(40.05 43.64) rotate(-180)"/><rect x="18.9" y="21.17" width="0.34" height="1.29" rx="0.14" transform="translate(38.14 43.64) rotate(-180)"/><rect x="17.94" y="21.17" width="0.34" height="1.29" rx="0.14" transform="translate(36.22 43.64) rotate(-180)"/><rect x="16.8" y="21.17" width="0.34" height="1.29" rx="0.14" transform="translate(33.95 43.64) rotate(180)"/><rect x="15.75" y="21.17" width="0.34" height="1.29" rx="0.14" transform="translate(31.85 43.64) rotate(-180)"/><rect x="19.85" y="13.69" width="0.34" height="1.29" rx="0.14" transform="translate(40.05 28.67) rotate(-180)"/><rect x="18.9" y="13.69" width="0.34" height="1.29" rx="0.14" transform="translate(38.14 28.67) rotate(-180)"/><rect x="17.94" y="13.69" width="0.34" height="1.29" rx="0.14" transform="translate(36.22 28.67) rotate(-180)"/><rect x="16.8" y="13.69" width="0.34" height="1.29" rx="0.14" transform="translate(33.95 28.67) rotate(180)"/><rect x="15.75" y="13.69" width="0.34" height="1.29" rx="0.14" transform="translate(31.85 28.67) rotate(-180)"/><rect x="21.55" y="15.31" width="0.34" height="1.29" rx="0.14" transform="translate(37.68 -5.77) rotate(90)"/><rect x="21.55" y="16.59" width="0.34" height="1.29" rx="0.14" transform="translate(38.96 -4.49) rotate(90)"/><rect x="21.49" y="18.67" width="0.34" height="1.29" rx="0.14" transform="translate(40.97 -2.34) rotate(90)"/><rect x="21.49" y="19.95" width="0.34" height="1.29" rx="0.14" transform="translate(42.26 -1.06) rotate(90)"/><path d="M32.21,24.55H3.79a3,3,0,0,1-3-3V14.42a3,3,0,0,1,3-3H32.21a3,3,0,0,1,3,3v7.16A3,3,0,0,1,32.21,24.55ZM3.79,12.42a2,2,0,0,0-2,2v7.16a2,2,0,0,0,2,2H32.21a2,2,0,0,0,2-2V14.42a2,2,0,0,0-2-2Z"/></g></svg>