<svg height="30px" width="30px" id="SvgjsSvg1273"   xmlns="http://www.w3.org/2000/svg" version="1.1" xmlns:xlink="http://www.w3.org/1999/xlink" xmlns:svgjs="http://svgjs.com/svgjs"><defs id="SvgjsDefs1274"></defs><g id="SvgjsG1275"><svg xmlns="http://www.w3.org/2000/svg" viewBox="0 0 36 36"  ><g data-name="Layer 1" fill="#8d6e63" class="color000 svgShape"><path d="M15.35 22.43a.63.63 0 10.63-.62A.63.63 0 0015.35 22.43zM19.35 16.25a.56.56 0 00.33-.34.61.61 0 00-.34-.8.59.59 0 00-.23 0 .61.61 0 00-.23 1.18A.59.59 0 0019.35 16.25z" fill="#8d6e63" class="color000 svgShape"></path><circle cx="17.42" cy="19.91" r=".62" fill="#8d6e63" class="color000 svgShape"></circle><path d="M16,21.28a1.16,1.16,0,0,1,1.12.89h.84l.65.58h2l.65-.58h2.63v-2H21.64l-.71.63a1.12,1.12,0,0,1,.1.48,1.14,1.14,0,1,1-.43-.9l.84-.74h2.45V15.33a1.74,1.74,0,0,0-1.74-1.73H13.76A1.74,1.74,0,0,0,12,15.33v1.4h2l1.52-1.31H18a1.09,1.09,0,0,1,.05-.17,1.15,1.15,0,1,1,1.51,1.49,1.13,1.13,0,0,1-.45.09,1.31,1.31,0,0,1-.43-.08A1.16,1.16,0,0,1,18,16H15.75l-1.52,1.31H12v1.52h2.44l.76.87H16.3a1.16,1.16,0,1,1,0,.53H15l-.76-.87H12v4.42a1.73,1.73,0,0,0,1.74,1.73h8.39a1.73,1.73,0,0,0,1.74-1.73v-1H21.46l-.65.58H18.39l-.65-.58H17.1A1.16,1.16,0,1,1,16,21.28Zm4.87-6.77h1.3a.91.91,0,0,1,.91.91v2.81a.27.27,0,1,1-.53,0V15.42a.38.38,0,0,0-.38-.38h-1.3a.26.26,0,0,1-.27-.26A.27.27,0,0,1,20.85,14.51Zm-5.73,9.38a.27.27,0,0,1,.26.27.26.26,0,0,1-.26.26H13.81a.9.9,0,0,1-.91-.9V20.71a.27.27,0,1,1,.53,0v2.81a.38.38,0,0,0,.38.37Z" fill="#8d6e63" class="color000 svgShape"></path><path d="M19.26,21.29a.62.62,0,1,0,.62-.62A.63.63,0,0,0,19.26,21.29Z" fill="#8d6e63" class="color000 svgShape"></path><rect width=".62" height="2.35" x="10.94" y="14.5" rx=".21" transform="rotate(90 11.245 15.675)" fill="#8d6e63" class="color000 svgShape"></rect><rect width=".62" height="2.35" x="10.94" y="16.83" rx=".21" transform="rotate(90 11.25 18)" fill="#8d6e63" class="color000 svgShape"></rect><rect width=".62" height="2.35" x="10.94" y="18.92" rx=".21" transform="rotate(90 11.245 20.095)" fill="#8d6e63" class="color000 svgShape"></rect><rect width=".62" height="2.35" x="10.94" y="21.02" rx=".21" transform="rotate(90 11.245 22.195)" fill="#8d6e63" class="color000 svgShape"></rect><rect width=".62" height="2.35" x="10.94" y="22.94" rx=".21" transform="rotate(90 11.245 24.115)" fill="#8d6e63" class="color000 svgShape"></rect><rect width=".62" height="2.35" x="21.37" y="25.16" rx=".21" transform="rotate(-180 21.675 26.335)" fill="#8d6e63" class="color000 svgShape"></rect><rect width=".62" height="2.35" x="19.63" y="25.16" rx=".21" transform="rotate(180 19.94 26.335)" fill="#8d6e63" class="color000 svgShape"></rect><rect width=".62" height="2.35" x="17.89" y="25.16" rx=".21" transform="rotate(-180 18.205 26.335)" fill="#8d6e63" class="color000 svgShape"></rect><rect width=".62" height="2.35" x="15.83" y="25.16" rx=".21" transform="rotate(180 16.14 26.335)" fill="#8d6e63" class="color000 svgShape"></rect><rect width=".62" height="2.35" x="13.92" y="25.16" rx=".21" transform="rotate(-180 14.235 26.335)" fill="#8d6e63" class="color000 svgShape"></rect><rect width=".62" height="2.35" x="21.37" y="11.58" rx=".21" transform="rotate(-180 21.675 12.75)" fill="#8d6e63" class="color000 svgShape"></rect><rect width=".62" height="2.35" x="19.63" y="11.58" rx=".21" transform="rotate(-180 19.94 12.75)" fill="#8d6e63" class="color000 svgShape"></rect><rect width=".62" height="2.35" x="17.89" y="11.58" rx=".21" transform="rotate(-180 18.205 12.75)" fill="#8d6e63" class="color000 svgShape"></rect><rect width=".62" height="2.35" x="15.83" y="11.58" rx=".21" transform="rotate(-180 16.14 12.75)" fill="#8d6e63" class="color000 svgShape"></rect><rect width=".62" height="2.35" x="13.92" y="11.58" rx=".21" transform="rotate(-180 14.235 12.75)" fill="#8d6e63" class="color000 svgShape"></rect><rect width=".62" height="2.35" x="24.44" y="14.52" rx=".21" transform="rotate(90 24.755 15.695)" fill="#8d6e63" class="color000 svgShape"></rect><rect width=".62" height="2.35" x="24.44" y="16.84" rx=".21" transform="rotate(90 24.755 18.015)" fill="#8d6e63" class="color000 svgShape"></rect><rect width=".62" height="2.35" x="24.33" y="20.61" rx=".21" transform="rotate(90 24.64 21.79)" fill="#8d6e63" class="color000 svgShape"></rect><rect width=".62" height="2.35" x="24.33" y="22.94" rx=".21" transform="rotate(90 24.64 24.11)" fill="#8d6e63" class="color000 svgShape"></rect><path d="M34.4,30.25H1.6v-21H34.4ZM2.69,29.16H33.31V10.37H2.69Z" fill="#8d6e63" class="color000 svgShape"></path><path d="M15.46,10.37a.55.55,0,0,1-.39-.93l3.69-3.69H34.39V9.82a.55.55,0,0,1-.55.55.55.55,0,0,1-.54-.55v-3H19.21l-3.36,3.37A.54.54,0,0,1,15.46,10.37Z" fill="#8d6e63" class="color000 svgShape"></path></g></svg></g></svg>