<svg height="30px" width="30px" id="SvgjsSvg1303"   xmlns="http://www.w3.org/2000/svg" version="1.1" xmlns:xlink="http://www.w3.org/1999/xlink" xmlns:svgjs="http://svgjs.com/svgjs"><defs id="SvgjsDefs1304"></defs><g id="SvgjsG1305"><svg xmlns="http://www.w3.org/2000/svg" viewBox="0 0 36 36"  ><g data-name="Layer 1" fill="#8d6e63" class="color000 svgShape"><path d="M14.29 24.24a.88.88 0 101.75 0 .88.88 0 00-1.75 0zM19.9 15.59a.87.87 0 000-1.6.86.86 0 10-.64 1.6A.84.84 0 0019.9 15.59z" fill="#8d6e63" class="color000 svgShape"></path><circle cx="17.19" cy="20.71" r=".87" fill="#8d6e63" class="color000 svgShape"></circle><path d="M15.17,22.63a1.62,1.62,0,0,1,1.57,1.24h1.18l.91.82h2.82l.91-.82h3.68V21.08H23.1l-1,.89a1.73,1.73,0,0,1,.15.68A1.62,1.62,0,1,1,20.63,21a1.64,1.64,0,0,1,1,.36l1.18-1.05h3.42v-6a2.43,2.43,0,0,0-2.43-2.43H12.06a2.43,2.43,0,0,0-2.43,2.43v2h2.81l2.13-1.84H18c0-.07,0-.15.07-.23a1.61,1.61,0,0,1,3,1.2,1.65,1.65,0,0,1-.86.88,1.58,1.58,0,0,1-.63.13,1.53,1.53,0,0,1-.6-.12,1.61,1.61,0,0,1-1-1.11H14.85L12.72,17H9.63v2.13H13l1.06,1.21h1.52a1.62,1.62,0,1,1,0,.74H13.77l-1.07-1.2H9.63v6.18a2.43,2.43,0,0,0,2.43,2.43H23.81a2.43,2.43,0,0,0,2.43-2.43V24.61H22.85l-.92.83H18.54l-.91-.83h-.89a1.62,1.62,0,1,1-1.57-2ZM22,13.16h1.82a1.28,1.28,0,0,1,1.28,1.27v3.94a.38.38,0,0,1-.75,0V14.43a.53.53,0,0,0-.53-.53H22a.37.37,0,1,1,0-.74ZM14,26.29a.38.38,0,0,1,.38.37A.37.37,0,0,1,14,27H12.14a1.27,1.27,0,0,1-1.27-1.27V21.83a.36.36,0,0,1,.37-.37.37.37,0,0,1,.37.37v3.93a.53.53,0,0,0,.53.53Z" fill="#8d6e63" class="color000 svgShape"></path><path d="M19.76,22.65a.88.88,0,0,0,1.75,0,.88.88,0,1,0-1.75,0Z" fill="#8d6e63" class="color000 svgShape"></path><rect width=".87" height="3.29" x="8.11" y="13.14" rx=".44" transform="rotate(90 8.545 14.785)" fill="#8d6e63" class="color000 svgShape"></rect><rect width=".87" height="3.29" x="8.11" y="16.39" rx=".44" transform="rotate(90 8.545 18.035)" fill="#8d6e63" class="color000 svgShape"></rect><rect width=".87" height="3.29" x="8.11" y="19.33" rx=".44" transform="rotate(90 8.545 20.975)" fill="#8d6e63" class="color000 svgShape"></rect><rect width=".87" height="3.29" x="8.11" y="22.27" rx=".44" transform="rotate(90 8.545 23.915)" fill="#8d6e63" class="color000 svgShape"></rect><rect width=".87" height="3.29" x="8.11" y="24.95" rx=".44" transform="rotate(90 8.545 26.595)" fill="#8d6e63" class="color000 svgShape"></rect><rect width=".87" height="3.29" x="22.71" y="28.06" rx=".44" transform="rotate(-180 23.145 29.705)" fill="#8d6e63" class="color000 svgShape"></rect><rect width=".87" height="3.29" x="20.28" y="28.06" rx=".44" transform="rotate(180 20.715 29.705)" fill="#8d6e63" class="color000 svgShape"></rect><rect width=".87" height="3.29" x="17.85" y="28.06" rx=".44" transform="rotate(180 18.285 29.705)" fill="#8d6e63" class="color000 svgShape"></rect><rect width=".87" height="3.29" x="14.96" y="28.06" rx=".44" transform="rotate(-180 15.395 29.705)" fill="#8d6e63" class="color000 svgShape"></rect><rect width=".87" height="3.29" x="12.29" y="28.06" rx=".44" transform="rotate(180 12.725 29.705)" fill="#8d6e63" class="color000 svgShape"></rect><rect width=".87" height="3.29" x="22.71" y="9.05" rx=".44" transform="rotate(180 23.145 10.69)" fill="#8d6e63" class="color000 svgShape"></rect><rect width=".87" height="3.29" x="20.28" y="9.05" rx=".44" transform="rotate(-180 20.715 10.69)" fill="#8d6e63" class="color000 svgShape"></rect><rect width=".87" height="3.29" x="17.85" y="9.05" rx=".44" transform="rotate(-180 18.285 10.69)" fill="#8d6e63" class="color000 svgShape"></rect><rect width=".87" height="3.29" x="14.96" y="9.05" rx=".44" transform="rotate(-180 15.395 10.69)" fill="#8d6e63" class="color000 svgShape"></rect><rect width=".87" height="3.29" x="12.29" y="9.05" rx=".44" transform="rotate(-180 12.725 10.69)" fill="#8d6e63" class="color000 svgShape"></rect><rect width=".87" height="3.29" x="27.02" y="13.16" rx=".44" transform="rotate(90 27.455 14.805)" fill="#8d6e63" class="color000 svgShape"></rect><rect width=".87" height="3.29" x="27.02" y="16.42" rx=".44" transform="rotate(90 27.455 18.065)" fill="#8d6e63" class="color000 svgShape"></rect><rect width=".87" height="3.29" x="26.86" y="21.7" rx=".44" transform="rotate(90 27.295 23.345)" fill="#8d6e63" class="color000 svgShape"></rect><rect width=".87" height="3.29" x="26.86" y="24.95" rx=".44" transform="rotate(90 27.295 26.595)" fill="#8d6e63" class="color000 svgShape"></rect><path d="M35.11,35.11H.89V.89H35.11ZM2.69,33.31H33.31V2.69H2.69Z" fill="#8d6e63" class="color000 svgShape"></path><rect width="5.89" height="1.23" x="18.79" y="3.3" transform="rotate(90 21.74 3.91)" fill="#8d6e63" class="color000 svgShape"></rect><rect width="25.5" height="1.23" x="5.25" y="5.63" transform="rotate(180 18 6.24)" fill="#8d6e63" class="color000 svgShape"></rect><circle cx="23.6" cy="4.13" r=".65" fill="#8d6e63" class="color000 svgShape"></circle><circle cx="25.59" cy="4.13" r=".65" fill="#8d6e63" class="color000 svgShape"></circle><circle cx="27.46" cy="4.13" r=".65" fill="#8d6e63" class="color000 svgShape"></circle><circle cx="29.36" cy="4.13" r=".65" fill="#8d6e63" class="color000 svgShape"></circle></g></svg></g></svg>