<svg height="30px" width="30px"  xmlns="http://www.w3.org/2000/svg" viewBox="0 0 36 36"><g id="Layer_1" data-name="Layer 1"><path d="M14.29,24.24a.88.88,0,1,0,1.75,0,.88.88,0,0,0-1.75,0Z"/><path d="M19.9,15.59a.87.87,0,0,0,0-1.6.86.86,0,1,0-.64,1.6A.84.84,0,0,0,19.9,15.59Z"/><circle cx="17.19" cy="20.71" r="0.87"/><path d="M15.17,22.63a1.62,1.62,0,0,1,1.57,1.24h1.18l.91.82h2.82l.91-.82h3.68V21.08H23.1l-1,.89a1.73,1.73,0,0,1,.15.68A1.62,1.62,0,1,1,20.63,21a1.64,1.64,0,0,1,1,.36l1.18-1.05h3.42v-6a2.43,2.43,0,0,0-2.43-2.43H12.06a2.43,2.43,0,0,0-2.43,2.43v2h2.81l2.13-1.84H18c0-.07,0-.15.07-.23a1.61,1.61,0,0,1,3,1.2,1.65,1.65,0,0,1-.86.88,1.58,1.58,0,0,1-.63.13,1.53,1.53,0,0,1-.6-.12,1.61,1.61,0,0,1-1-1.11H14.85L12.72,17H9.63v2.13H13l1.06,1.21h1.52a1.62,1.62,0,1,1,0,.74H13.77l-1.07-1.2H9.63v6.18a2.43,2.43,0,0,0,2.43,2.43H23.81a2.43,2.43,0,0,0,2.43-2.43V24.61H22.85l-.92.83H18.54l-.91-.83h-.89a1.62,1.62,0,1,1-1.57-2ZM22,13.16h1.82a1.28,1.28,0,0,1,1.28,1.27v3.94a.38.38,0,0,1-.75,0V14.43a.53.53,0,0,0-.53-.53H22a.37.37,0,1,1,0-.74ZM14,26.29a.38.38,0,0,1,.38.37A.37.37,0,0,1,14,27H12.14a1.27,1.27,0,0,1-1.27-1.27V21.83a.36.36,0,0,1,.37-.37.37.37,0,0,1,.37.37v3.93a.53.53,0,0,0,.53.53Z"/><path d="M19.76,22.65a.88.88,0,0,0,1.75,0,.88.88,0,1,0-1.75,0Z"/><rect x="8.11" y="13.14" width="0.87" height="3.29" rx="0.44" transform="translate(23.33 6.24) rotate(90)"/><rect x="8.11" y="16.39" width="0.87" height="3.29" rx="0.44" transform="translate(26.58 9.49) rotate(90)"/><rect x="8.11" y="19.33" width="0.87" height="3.29" rx="0.44" transform="translate(29.52 12.43) rotate(90)"/><rect x="8.11" y="22.27" width="0.87" height="3.29" rx="0.44" transform="translate(32.46 15.37) rotate(90)"/><rect x="8.11" y="24.95" width="0.87" height="3.29" rx="0.44" transform="translate(35.14 18.05) rotate(90)"/><rect x="22.71" y="28.06" width="0.87" height="3.29" rx="0.44" transform="translate(46.29 59.41) rotate(-180)"/><rect x="20.28" y="28.06" width="0.87" height="3.29" rx="0.44" transform="translate(41.43 59.41) rotate(180)"/><rect x="17.85" y="28.06" width="0.87" height="3.29" rx="0.44" transform="translate(36.57 59.41) rotate(180)"/><rect x="14.96" y="28.06" width="0.87" height="3.29" rx="0.44" transform="translate(30.79 59.41) rotate(-180)"/><rect x="12.29" y="28.06" width="0.87" height="3.29" rx="0.44" transform="translate(25.45 59.41) rotate(180)"/><rect x="22.71" y="9.05" width="0.87" height="3.29" rx="0.44" transform="translate(46.29 21.38) rotate(180)"/><rect x="20.28" y="9.05" width="0.87" height="3.29" rx="0.44" transform="translate(41.43 21.38) rotate(-180)"/><rect x="17.85" y="9.05" width="0.87" height="3.29" rx="0.44" transform="translate(36.57 21.38) rotate(-180)"/><rect x="14.96" y="9.05" width="0.87" height="3.29" rx="0.44" transform="translate(30.79 21.38) rotate(-180)"/><rect x="12.29" y="9.05" width="0.87" height="3.29" rx="0.44" transform="translate(25.45 21.38) rotate(-180)"/><rect x="27.02" y="13.16" width="0.87" height="3.29" rx="0.44" transform="translate(42.26 -12.65) rotate(90)"/><rect x="27.02" y="16.42" width="0.87" height="3.29" rx="0.44" transform="translate(45.52 -9.39) rotate(90)"/><rect x="26.86" y="21.7" width="0.87" height="3.29" rx="0.44" transform="translate(50.64 -3.95) rotate(90)"/><rect x="26.86" y="24.95" width="0.87" height="3.29" rx="0.44" transform="translate(53.89 -0.7) rotate(90)"/><path d="M35.11,35.11H.89V.89H35.11ZM2.69,33.31H33.31V2.69H2.69Z"/><rect x="18.79" y="3.3" width="5.89" height="1.23" transform="translate(25.65 -17.83) rotate(90)"/><rect x="5.25" y="5.63" width="25.5" height="1.23" transform="translate(36 12.48) rotate(180)"/><circle cx="23.6" cy="4.13" r="0.65"/><circle cx="25.59" cy="4.13" r="0.65"/><circle cx="27.46" cy="4.13" r="0.65"/><circle cx="29.36" cy="4.13" r="0.65"/></g></svg>