<svg height="30px" width="30px" id="SvgjsSvg1276"   xmlns="http://www.w3.org/2000/svg" version="1.1" xmlns:xlink="http://www.w3.org/1999/xlink" xmlns:svgjs="http://svgjs.com/svgjs"><defs id="SvgjsDefs1277"></defs><g id="SvgjsG1278"><svg xmlns="http://www.w3.org/2000/svg" viewBox="0 0 36 36"  ><g data-name="Layer 2" fill="#d558a0" class="color000 svgShape"><path fill="#d558a0" d="M17.89,25.77a7.47,7.47,0,1,1,7.46-7.46A7.48,7.48,0,0,1,17.89,25.77Zm0-14.58A7.12,7.12,0,1,0,25,18.31,7.12,7.12,0,0,0,17.89,11.19Z" class="color231f20 svgShape"></path><path fill-rule="evenodd" d="M13.5,23V21c0-1.09,2-2,4.39-2s4.38.89,4.38,2v2Z" fill="#d558a0" class="color000 svgShape"></path><circle cx="17.89" cy="15.86" r="2.86" fill="#d558a0" class="color000 svgShape"></circle><rect width=".35" height="4.89" x="17.71" y="25.5" fill="#d558a0" class="color231f20 svgShape"></rect><line x1="22.79" x2="27.58" y1="23.7" y2="28.93" fill="#fff"></line><rect width=".35" height="7.09" x="25.01" y="22.77" fill="#d558a0" transform="rotate(-42.44 25.184 26.316)" class="color231f20 svgShape"></rect><line x1="12.62" x2="8.87" y1="23.49" y2="28.72" fill="#fff"></line><rect width="6.44" height=".35" x="7.53" y="25.93" fill="#d558a0" transform="matrix(.58 -.81 .81 .58 -16.72 19.55)" class="color231f20 svgShape"></rect><line x1="22.36" x2="27.15" y1="12.41" y2="8.45" fill="#fff"></line><rect width="6.21" height=".35" x="21.65" y="10.26" fill="#d558a0" transform="rotate(-39.6 24.763 10.437)" class="color231f20 svgShape"></rect><rect width=".35" height="4.37" x="17.71" y="6.64" fill="#d558a0" class="color231f20 svgShape"></rect><line x1="13.14" x2="8.82" y1="13" y2="8.62" fill="#fff"></line><polygon fill="#d558a0" points="13.01 13.12 8.7 8.74 8.95 8.5 13.26 12.87 13.01 13.12" class="color231f20 svgShape"></polygon><rect width="6.01" height=".35" x="4.43" y="18.13" fill="#d558a0" class="color231f20 svgShape"></rect><rect width="6.3" height=".35" x="25.39" y="18.13" fill="#d558a0" class="color231f20 svgShape"></rect><path fill="#d558a0" d="M17.89 33.48a1.64 1.64 0 111.63-1.63A1.63 1.63 0 0117.89 33.48zm0-2.92a1.29 1.29 0 101.28 1.29A1.28 1.28 0 0017.89 30.56zM3 19.94A1.64 1.64 0 114.6 18.31 1.63 1.63 0 013 19.94zM3 17a1.29 1.29 0 101.28 1.29A1.28 1.28 0 003 17zM33.27 19.94a1.64 1.64 0 111.64-1.63A1.63 1.63 0 0133.27 19.94zm0-2.92a1.29 1.29 0 101.29 1.29A1.29 1.29 0 0033.27 17zM17.89 6.81a1.63 1.63 0 111.63-1.63A1.63 1.63 0 0117.89 6.81zm0-2.91a1.28 1.28 0 101.28 1.28A1.28 1.28 0 0017.89 3.9z" class="color231f20 svgShape"></path><circle cx="8.41" cy="28.93" r="1.46" fill="#d558a0" class="color231f20 svgShape"></circle><path fill="#d558a0" d="M8.41,30.56A1.63,1.63,0,1,1,10,28.93,1.63,1.63,0,0,1,8.41,30.56Zm0-2.91a1.28,1.28,0,1,0,1.28,1.28A1.28,1.28,0,0,0,8.41,27.65Z" class="color231f20 svgShape"></path><circle cx="27.58" cy="8.1" r="1.46" fill="#d558a0" class="color231f20 svgShape"></circle><path fill="#d558a0" d="M27.58,9.73A1.64,1.64,0,1,1,29.21,8.1,1.64,1.64,0,0,1,27.58,9.73Zm0-2.92A1.29,1.29,0,1,0,28.86,8.1,1.29,1.29,0,0,0,27.58,6.81Z" class="color231f20 svgShape"></path><circle cx="8.41" cy="8.1" r="1.46" fill="#d558a0" class="color231f20 svgShape"></circle><path fill="#d558a0" d="M8.41,9.73A1.64,1.64,0,1,1,10,8.1,1.63,1.63,0,0,1,8.41,9.73Zm0-2.92A1.29,1.29,0,1,0,9.69,8.1,1.28,1.28,0,0,0,8.41,6.81Z" class="color231f20 svgShape"></path><circle cx="27.84" cy="28.93" r="1.46" fill="#d558a0" class="color231f20 svgShape"></circle><path fill="#d558a0" d="M27.84,30.56a1.63,1.63,0,1,1,1.63-1.63A1.64,1.64,0,0,1,27.84,30.56Zm0-2.91a1.28,1.28,0,1,0,1.28,1.28A1.28,1.28,0,0,0,27.84,27.65Z" class="color231f20 svgShape"></path></g></svg></g></svg>