<svg height="30px" width="30px" id="SvgjsSvg1119" xmlns="http://www.w3.org/2000/svg" version="1.1" xmlns:xlink="http://www.w3.org/1999/xlink" xmlns:svgjs="http://svgjs.com/svgjs"><defs id="SvgjsDefs1120"></defs><g id="SvgjsG1121"><svg xmlns="http://www.w3.org/2000/svg" viewBox="0 0 36 36"><g data-name="Layer 2" fill="#66bb6a" class="color000 svgShape"><path d="M26.5,10.28a10,10,0,0,0-6.07-4.45l.5-2.25a12.16,12.16,0,0,1,7.6,5.6l-2,1.1,1-.55Z" fill="#66bb6a" class="color000 svgShape"></path><polygon points="20.9 8.56 21.46 1.03 17.41 4.51 20.9 8.56" fill="#66bb6a" class="color000 svgShape"></polygon><path d="M9.54,8.91,7.89,7.31a12.16,12.16,0,0,1,8.75-3.53l-.12,2.3.06-1.15-.06,1.15A10,10,0,0,0,9.54,8.91Z" fill="#66bb6a" class="color000 svgShape"></path><polygon points="12.11 9.95 5.99 5.51 6.84 10.79 12.11 9.95" fill="#66bb6a" class="color000 svgShape"></polygon><path d="M3.56,20.14a12.2,12.2,0,0,1,1.63-9.3l1.89,1.32-1-.66,1,.66A10,10,0,0,0,5.8,19.58Z" fill="#66bb6a" class="color000 svgShape"></path><polygon points="8.04 17.95 1.04 20.8 5.97 22.87 8.04 17.95" fill="#66bb6a" class="color000 svgShape"></polygon><path d="M12.62,30.27a12.22,12.22,0,0,1-7.18-6.13l2.1-.95-1,.48,1-.49a10,10,0,0,0,5.74,4.88Z" fill="#66bb6a" class="color000 svgShape"></path><polygon points="13.01 25.3 11.91 32.78 16.2 29.59 13.01 25.3" fill="#66bb6a" class="color000 svgShape"></polygon><path d="M19.13,31.07A8.36,8.36,0,0,1,17.55,31l.39-2.27a10,10,0,0,0,7.27-2l1.45,1.79A12,12,0,0,1,19.13,31.07Z" fill="#66bb6a" class="color000 svgShape"></path><polygon points="22.78 25.37 28.33 30.51 28.12 25.17 22.78 25.37" fill="#66bb6a" class="color000 svgShape"></polygon><path d="M28.67,24,26.92,22.5a10,10,0,0,0,2-7.26l2.28-.33A12.11,12.11,0,0,1,28.67,24Z" fill="#66bb6a" class="color000 svgShape"></path><polygon points="26.54 16.64 33.79 14.5 29.09 11.95 26.54 16.64" fill="#66bb6a" class="color000 svgShape"></polygon><rect width="1.79" height="7.54" x="14.45" y="11.33" fill="#66bb6a" class="color000 svgShape"></rect><rect width="1.79" height="5.28" x="16.93" y="13.59" fill="#66bb6a" class="color000 svgShape"></rect><rect width="1.79" height="3.1" x="19.4" y="15.77" fill="#66bb6a" class="color000 svgShape"></rect><rect width="1.79" height=".93" x="19.4" y="21.37" fill="#66bb6a" class="color000 svgShape"></rect><rect width="1.79" height=".93" x="16.93" y="21.37" fill="#66bb6a" class="color000 svgShape"></rect><rect width="1.79" height=".93" x="14.45" y="21.37" fill="#66bb6a" class="color000 svgShape"></rect><rect width="9.43" height="1.93" x="13.11" y="18.58" fill="#66bb6a" class="color000 svgShape"></rect></g></svg></g></svg>