<svg height="30px" width="30px" id="SvgjsSvg1100" xmlns="http://www.w3.org/2000/svg" version="1.1" xmlns:xlink="http://www.w3.org/1999/xlink" xmlns:svgjs="http://svgjs.com/svgjs"><defs id="SvgjsDefs1101"></defs><g id="SvgjsG1102"><svg xmlns="http://www.w3.org/2000/svg" viewBox="0 0 36 36"><g data-name="Layer 2" fill="#008000" class="color000 svgShape"><path d="M27.58,11.5A10.07,10.07,0,0,0,21.5,7.05L22,4.8a12.2,12.2,0,0,1,7.6,5.59l-2,1.11,1-.55Z" fill="#008000" class="color000 svgShape"></path><polygon points="21.97 9.78 22.53 2.25 18.48 5.73 21.97 9.78" fill="#008000" class="color000 svgShape"></polygon><path d="M9.1,9.89,7.45,8.29A12.16,12.16,0,0,1,16.2,4.76l-.12,2.3.06-1.15-.06,1.15A10,10,0,0,0,9.1,9.89Z" fill="#008000" class="color000 svgShape"></path><polygon points="11.68 10.93 5.55 6.49 6.4 11.77 11.68 10.93" fill="#008000" class="color000 svgShape"></polygon><path d="M3.12,21.12a12.2,12.2,0,0,1,1.63-9.3l1.89,1.32-.95-.66.95.66a10,10,0,0,0-1.28,7.42Z" fill="#008000" class="color000 svgShape"></path><polygon points="7.6 18.93 .6 21.78 5.53 23.85 7.6 18.93" fill="#008000" class="color000 svgShape"></polygon><path d="M12.18,31.25A12.22,12.22,0,0,1,5,25.12l2.1-.95-1,.47,1-.48A10,10,0,0,0,12.84,29Z" fill="#008000" class="color000 svgShape"></path><polygon points="12.57 26.28 11.47 33.76 15.76 30.56 12.57 26.28" fill="#008000" class="color000 svgShape"></polygon><path d="M18.69,32a10.18,10.18,0,0,1-1.58-.11l.39-2.27a10,10,0,0,0,7.27-2l1.45,1.79A12,12,0,0,1,18.69,32Z" fill="#008000" class="color000 svgShape"></path><polygon points="22.34 26.35 27.89 31.49 27.68 26.14 22.34 26.35" fill="#008000" class="color000 svgShape"></polygon><path d="M28.23,25l-1.75-1.49a10,10,0,0,0,2-7.26l2.28-.34A12.12,12.12,0,0,1,28.23,25Z" fill="#008000" class="color000 svgShape"></path><polygon points="26.1 17.62 33.35 15.47 28.65 12.93 26.1 17.62" fill="#008000" class="color000 svgShape"></polygon><path d="M14.18,23.65a2.69,2.69,0,0,1-2.69-1.87,3.44,3.44,0,0,1,1-3.13A9.09,9.09,0,0,1,15,16.24a1.74,1.74,0,0,1,1.27,0,3.24,3.24,0,0,1,1.5.92.6.6,0,0,1-.06.77c-.5.45-1.56-.26-2.06-.46a.37.37,0,0,0-.25,0,.29.29,0,0,0-.18.13,13.55,13.55,0,0,0-2.48,2.83,1.5,1.5,0,0,0,0,1.29,1.67,1.67,0,0,0,2.24.46c.79-.42,1.14-1.3,1.91-1.69a.61.61,0,0,1,.8.15c.53.9-1.76,2.49-2.39,2.78A3,3,0,0,1,14.18,23.65Z" fill="#008000" class="color000 svgShape"></path><path d="M20,12.93a2.66,2.66,0,0,1,2.68,1.86,3.43,3.43,0,0,1-1,3.13,8.91,8.91,0,0,1-2.49,2.41,1.82,1.82,0,0,1-1.28,0,3.38,3.38,0,0,1-1.49-.92.62.62,0,0,1,0-.78c.51-.45,1.57.27,2.06.47a.49.49,0,0,0,.26,0A.46.46,0,0,0,19,19a13.27,13.27,0,0,0,2.47-2.84,1.44,1.44,0,0,0,0-1.28,1.66,1.66,0,0,0-2.24-.46c-.78.41-1.14,1.3-1.9,1.69a.62.62,0,0,1-.8-.16c-.53-.9,1.75-2.49,2.38-2.77A2.86,2.86,0,0,1,20,12.93Z" fill="#008000" class="color000 svgShape"></path></g></svg></g></svg>