<svg height="30px" width="30px"  xmlns="http://www.w3.org/2000/svg" viewBox="0 0 36 36"><defs><style>.cls-1{fill:#231f20;}.cls-2{fill-rule:evenodd;}.cls-3{fill:#fff;}</style></defs><g id="Layer_2" data-name="Layer 2"><path class="cls-1" d="M17.89,25.77a7.47,7.47,0,1,1,7.46-7.46A7.48,7.48,0,0,1,17.89,25.77Zm0-14.58A7.12,7.12,0,1,0,25,18.31,7.12,7.12,0,0,0,17.89,11.19Z"/><path class="cls-2" d="M13.5,23V21c0-1.09,2-2,4.39-2s4.38.89,4.38,2v2Z"/><circle cx="17.89" cy="15.86" r="2.86"/><rect class="cls-1" x="17.71" y="25.5" width="0.35" height="4.89"/><line class="cls-3" x1="22.79" y1="23.7" x2="27.58" y2="28.93"/><rect class="cls-1" x="25.01" y="22.77" width="0.35" height="7.09" transform="translate(-11.16 23.89) rotate(-42.44)"/><line class="cls-3" x1="12.62" y1="23.49" x2="8.87" y2="28.72"/><rect class="cls-1" x="7.53" y="25.93" width="6.44" height="0.35" transform="matrix(0.58, -0.81, 0.81, 0.58, -16.72, 19.55)"/><line class="cls-3" x1="22.36" y1="12.41" x2="27.15" y2="8.45"/><rect class="cls-1" x="21.65" y="10.26" width="6.21" height="0.35" transform="translate(-0.97 18.18) rotate(-39.6)"/><rect class="cls-1" x="17.71" y="6.64" width="0.35" height="4.37"/><line class="cls-3" x1="13.14" y1="13" x2="8.82" y2="8.62"/><polygon class="cls-1" points="13.01 13.12 8.7 8.74 8.95 8.5 13.26 12.87 13.01 13.12"/><rect class="cls-1" x="4.43" y="18.13" width="6.01" height="0.35"/><rect class="cls-1" x="25.39" y="18.13" width="6.3" height="0.35"/><path class="cls-1" d="M17.89,33.48a1.64,1.64,0,1,1,1.63-1.63A1.63,1.63,0,0,1,17.89,33.48Zm0-2.92a1.29,1.29,0,1,0,1.28,1.29A1.28,1.28,0,0,0,17.89,30.56Z"/><path class="cls-1" d="M3,19.94A1.64,1.64,0,1,1,4.6,18.31,1.63,1.63,0,0,1,3,19.94ZM3,17a1.29,1.29,0,1,0,1.28,1.29A1.28,1.28,0,0,0,3,17Z"/><path class="cls-1" d="M33.27,19.94a1.64,1.64,0,1,1,1.64-1.63A1.63,1.63,0,0,1,33.27,19.94Zm0-2.92a1.29,1.29,0,1,0,1.29,1.29A1.29,1.29,0,0,0,33.27,17Z"/><path class="cls-1" d="M17.89,6.81a1.63,1.63,0,1,1,1.63-1.63A1.63,1.63,0,0,1,17.89,6.81Zm0-2.91a1.28,1.28,0,1,0,1.28,1.28A1.28,1.28,0,0,0,17.89,3.9Z"/><circle class="cls-1" cx="8.41" cy="28.93" r="1.46"/><path class="cls-1" d="M8.41,30.56A1.63,1.63,0,1,1,10,28.93,1.63,1.63,0,0,1,8.41,30.56Zm0-2.91a1.28,1.28,0,1,0,1.28,1.28A1.28,1.28,0,0,0,8.41,27.65Z"/><circle class="cls-1" cx="27.58" cy="8.1" r="1.46"/><path class="cls-1" d="M27.58,9.73A1.64,1.64,0,1,1,29.21,8.1,1.64,1.64,0,0,1,27.58,9.73Zm0-2.92A1.29,1.29,0,1,0,28.86,8.1,1.29,1.29,0,0,0,27.58,6.81Z"/><circle class="cls-1" cx="8.41" cy="8.1" r="1.46"/><path class="cls-1" d="M8.41,9.73A1.64,1.64,0,1,1,10,8.1,1.63,1.63,0,0,1,8.41,9.73Zm0-2.92A1.29,1.29,0,1,0,9.69,8.1,1.28,1.28,0,0,0,8.41,6.81Z"/><circle class="cls-1" cx="27.84" cy="28.93" r="1.46"/><path class="cls-1" d="M27.84,30.56a1.63,1.63,0,1,1,1.63-1.63A1.64,1.64,0,0,1,27.84,30.56Zm0-2.91a1.28,1.28,0,1,0,1.28,1.28A1.28,1.28,0,0,0,27.84,27.65Z"/></g></svg>