<svg height="30px" width="30px" id="SvgjsSvg1487"   xmlns="http://www.w3.org/2000/svg" version="1.1" xmlns:xlink="http://www.w3.org/1999/xlink" xmlns:svgjs="http://svgjs.com/svgjs"><defs id="SvgjsDefs1488"></defs><g id="SvgjsG1489"><svg xmlns="http://www.w3.org/2000/svg" viewBox="0 0 36 36"  ><g data-name="Layer 1" fill="#ffeb3b" class="color000 svgShape"><path fill="none" stroke="#ffeb3b" stroke-linecap="round" stroke-miterlimit="10" d="M19.24,14.48a6.21,6.21,0,1,1-3.88.6" class="colorStroke000 svgStroke"></path><path d="M15.36,15.08a19.46,19.46,0,0,1,5.88,2.42l-1.47-2.94.74-3.2A19.79,19.79,0,0,1,15.36,15.08Z" fill="#ffeb3b" class="color000 svgShape"></path><path d="M34.4,30.27H1.6V9.3H34.4ZM2.69,29.18H33.31V10.39H2.69Z" fill="#ffeb3b" class="color000 svgShape"></path><path d="M15.46,10.35a.55.55,0,0,1-.39-.93l3.69-3.69H34.39V9.8a.55.55,0,0,1-.55.54.54.54,0,0,1-.54-.54v-3H19.21l-3.36,3.37A.54.54,0,0,1,15.46,10.35Z" fill="#ffeb3b" class="color000 svgShape"></path></g></svg></g></svg>