<svg height="30px" width="30px" xmlns="http://www.w3.org/2000/svg" viewBox="0 0 36 36"><defs><style>.cls-1{fill:none;stroke:#000;stroke-linecap:round;stroke-miterlimit:10;}</style></defs><g id="Layer_1" data-name="Layer 1"><path class="cls-1" d="M19.24,14.48a6.21,6.21,0,1,1-3.88.6"/><path d="M15.36,15.08a19.46,19.46,0,0,1,5.88,2.42l-1.47-2.94.74-3.2A19.79,19.79,0,0,1,15.36,15.08Z"/><path d="M34.4,30.27H1.6V9.3H34.4ZM2.69,29.18H33.31V10.39H2.69Z"/><path d="M15.46,10.35a.55.55,0,0,1-.39-.93l3.69-3.69H34.39V9.8a.55.55,0,0,1-.55.54.54.54,0,0,1-.54-.54v-3H19.21l-3.36,3.37A.54.54,0,0,1,15.46,10.35Z"/></g></svg>