<?xml version="1.0" standalone="no"?>
<!DOCTYPE svg PUBLIC "-//W3C//DTD SVG 20010904//EN"
 "http://www.w3.org/TR/2001/REC-SVG-20010904/DTD/svg10.dtd">
<svg version="1.0" xmlns="http://www.w3.org/2000/svg"
 width="1024.000000pt" height="1024.000000pt" viewBox="0 0 1024.000000 1024.000000"
 preserveAspectRatio="xMidYMid meet">

<g transform="translate(0.000000,1024.000000) scale(0.100000,-0.100000)"
fill="#000000" stroke="none">
<path d="M4835 8974 c-307 -31 -518 -69 -752 -134 -891 -248 -1670 -814 -2187
-1590 -329 -493 -535 -1044 -618 -1653 -20 -140 -23 -207 -23 -492 0 -372 14
-514 80 -819 326 -1509 1527 -2691 3035 -2985 297 -57 395 -66 750 -66 407 0
592 21 937 105 937 230 1762 811 2297 1620 111 167 168 264 238 405 202 402
331 838 390 1315 18 142 18 709 0 850 -77 610 -264 1146 -571 1635 -555 884
-1447 1510 -2467 1730 -282 61 -432 76 -769 80 -165 1 -318 1 -340 -1z m690
-498 c595 -77 1113 -279 1579 -613 1039 -747 1568 -2006 1376 -3273 -204
-1347 -1213 -2454 -2535 -2780 -284 -70 -500 -95 -820 -95 -253 1 -375 10
-584 46 -945 161 -1798 739 -2305 1562 -266 433 -420 880 -487 1422 -17 132
-17 570 -1 710 67 576 249 1078 560 1543 558 832 1483 1388 2467 1482 61 5
128 12 150 14 81 8 493 -4 600 -18z"/>
<path d="M4890 6280 c-1059 -402 -2075 -787 -2258 -857 -362 -137 -382 -148
-403 -226 -19 -73 15 -148 86 -184 24 -13 267 -28 1300 -81 698 -35 1271 -65
1272 -66 0 0 30 -573 66 -1272 53 -1039 68 -1277 81 -1301 24 -47 71 -81 121
-89 56 -8 131 26 157 71 37 66 1682 4521 1685 4565 6 83 -53 152 -142 165 -35
5 -261 -79 -1965 -725z"/>
</g>
</svg>
