<?xml version="1.0" standalone="no"?>
<!DOCTYPE svg PUBLIC "-//W3C//DTD SVG 20010904//EN"
 "http://www.w3.org/TR/2001/REC-SVG-20010904/DTD/svg10.dtd">
<svg version="1.0" xmlns="http://www.w3.org/2000/svg"
 width="512.000000pt" height="512.000000pt" viewBox="0 0 512.000000 512.000000"
 preserveAspectRatio="xMidYMid meet">

<g transform="translate(0.000000,512.000000) scale(0.100000,-0.100000)"
fill="#000000" stroke="none">
<path d="M618 5110 c-280 -51 -503 -252 -589 -530 -31 -98 -33 -289 -6 -390
90 -327 383 -553 717 -553 166 0 302 43 433 137 59 42 135 116 168 163 l16 23
889 2 889 3 3 83 3 82 -850 0 -850 0 14 41 c39 110 39 287 -1 419 -71 239
-277 439 -519 505 -70 19 -250 28 -317 15z m272 -175 c200 -53 367 -226 415
-427 61 -259 -69 -532 -306 -646 -91 -44 -168 -62 -263 -62 -251 1 -486 184
-551 430 -19 72 -19 217 1 293 50 196 211 357 410 412 66 18 226 18 294 0z"/>
<path d="M797 4463 l-217 -218 -55 55 -55 55 -58 -58 -57 -57 113 -112 112
-113 275 275 275 275 -58 58 -57 57 -218 -217z"/>
<path d="M4620 4540 l0 -580 -80 0 -80 0 0 415 0 415 -250 0 -250 0 0 -415 0
-415 -80 0 -80 0 0 250 0 250 -250 0 -250 0 0 -330 0 -330 910 0 910 0 0 660
0 660 -250 0 -250 0 0 -580z m330 -85 l0 -495 -80 0 -80 0 0 495 0 495 80 0
80 0 0 -495z m-660 -165 l0 -330 -80 0 -80 0 0 330 0 330 80 0 80 0 0 -330z
m-660 -165 l0 -165 -80 0 -80 0 0 165 0 165 80 0 80 0 0 -165z"/>
<path d="M4130 3164 l0 -466 -29 -29 -29 -29 -301 0 -301 0 0 -80 0 -80 318 0
c353 0 362 2 431 71 72 72 71 59 71 597 l0 482 -80 0 -80 0 0 -466z"/>
<path d="M2310 3233 l0 -67 -50 49 -50 50 -177 -178 -178 -177 50 -50 49 -50
-67 0 -67 0 0 -250 0 -250 67 0 67 0 -49 -50 -50 -50 178 -177 177 -178 50 50
50 49 0 -67 0 -67 250 0 250 0 0 67 0 67 50 -49 50 -50 177 178 178 177 -50
50 -49 50 67 0 67 0 0 250 0 250 -67 0 -67 0 49 50 50 50 -178 177 -177 178
-50 -50 -50 -49 0 67 0 67 -250 0 -250 0 0 -67z m330 -177 l0 -84 77 -31 77
-31 58 57 58 58 57 -58 58 -57 -58 -58 -58 -59 32 -77 32 -76 83 0 84 0 0 -80
0 -80 -84 0 -83 0 -32 -76 -32 -77 58 -59 58 -58 -58 -57 -57 -58 -58 58 -58
57 -77 -31 -77 -31 0 -84 0 -84 -80 0 -80 0 0 84 0 83 -76 32 -77 32 -59 -58
-58 -58 -57 58 -58 57 58 58 58 59 -32 77 -32 76 -83 0 -84 0 0 80 0 80 84 0
83 0 32 76 32 77 -58 59 -58 58 58 57 57 58 58 -58 59 -58 77 32 76 32 0 83 0
84 80 0 80 0 0 -84z"/>
<path d="M2487 2796 c-117 -43 -189 -154 -172 -265 19 -127 119 -215 245 -215
75 0 126 22 176 76 51 53 68 95 68 168 0 73 -17 115 -68 168 -63 68 -171 97
-249 68z m128 -181 c50 -49 15 -135 -55 -135 -19 0 -40 9 -55 25 -50 49 -15
135 55 135 19 0 40 -9 55 -25z"/>
<path d="M652 2625 c-99 -43 -144 -111 -152 -230 l-5 -80 -195 -5 c-213 -5
-222 -8 -267 -67 l-28 -36 -3 -706 -2 -706 22 -45 c17 -33 35 -51 68 -68 41
-20 57 -22 227 -22 l183 0 0 -70 c0 -110 42 -183 135 -233 l40 -22 1643 -3
1642 -2 0 85 0 85 -1625 0 -1626 0 -24 25 c-21 20 -25 34 -25 80 l0 55 180 0
c130 0 190 4 213 14 43 17 84 67 97 116 7 26 10 267 8 722 l-3 683 -24 38
c-42 68 -74 77 -286 77 l-185 0 0 56 c0 48 4 59 29 85 l29 29 466 0 466 0 0
80 0 80 -482 0 c-398 -1 -489 -3 -516 -15z m338 -1135 l0 -660 -410 0 -410 0
0 660 0 660 410 0 410 0 0 -660z"/>
<path d="M330 1900 l0 -80 250 0 250 0 0 80 0 80 -250 0 -250 0 0 -80z"/>
<path d="M330 1570 l0 -80 250 0 250 0 0 80 0 80 -250 0 -250 0 0 -80z"/>
<path d="M330 1240 l0 -80 250 0 250 0 0 80 0 80 -250 0 -250 0 0 -80z"/>
<path d="M4460 1815 l0 -165 80 0 80 0 0 165 0 165 -80 0 -80 0 0 -165z"/>
<path d="M4135 1903 c-33 -13 -64 -28 -68 -32 -7 -7 96 -274 114 -295 9 -11
149 43 149 58 -1 20 -117 290 -126 292 -5 1 -36 -9 -69 -23z"/>
<path d="M4865 1898 c-84 -201 -105 -253 -105 -264 0 -12 136 -71 145 -63 5 5
125 289 125 296 0 2 -10 7 -22 12 -13 5 -47 18 -76 30 l-53 21 -14 -32z"/>
<path d="M4434 1481 c-157 -25 -299 -119 -385 -253 -85 -132 -106 -311 -55
-461 36 -107 62 -145 186 -272 l108 -110 4 -95 c6 -109 26 -167 78 -217 52
-51 96 -68 175 -68 58 0 78 5 117 28 91 53 127 125 128 256 l0 83 114 119 c80
83 124 139 150 188 162 309 2 686 -333 785 -65 19 -217 28 -287 17z m296 -197
c79 -37 150 -107 188 -183 24 -50 27 -67 27 -161 0 -146 -20 -188 -162 -332
-86 -87 -112 -108 -135 -108 l-28 0 2 163 3 162 83 3 82 3 0 79 0 80 -250 0
-250 0 0 -80 0 -80 85 0 85 0 0 -165 0 -165 -28 0 c-23 0 -48 21 -128 102
-113 116 -135 148 -159 233 -48 164 28 348 180 435 72 41 114 49 235 47 94 -2
112 -6 170 -33z m-110 -1011 c0 -72 -24 -103 -81 -103 -53 0 -79 35 -79 106
l0 54 80 0 80 0 0 -57z"/>
</g>
</svg>
