<?xml version="1.0" standalone="no"?>
<!DOCTYPE svg PUBLIC "-//W3C//DTD SVG 20010904//EN"
 "http://www.w3.org/TR/2001/REC-SVG-20010904/DTD/svg10.dtd">
<svg version="1.0" xmlns="http://www.w3.org/2000/svg"
 width="360.000000pt" height="360.000000pt" viewBox="0 0 360.000000 360.000000"
 preserveAspectRatio="xMidYMid meet">

<g transform="translate(0.000000,360.000000) scale(0.100000,-0.100000)"
fill="#000000" stroke="none">
<path d="M2580 3309 c-153 -30 -266 -157 -278 -310 -8 -115 39 -217 174 -380
87 -105 158 -163 183 -150 9 5 55 49 102 98 232 241 283 422 168 597 -73 109
-220 171 -349 145z m123 -140 c52 -14 112 -71 133 -125 20 -53 15 -116 -13
-171 -60 -117 -239 -139 -330 -41 -57 61 -69 161 -28 237 48 88 141 127 238
100z"/>
<path d="M2398 2428 c-93 -30 -120 -50 -84 -64 12 -4 201 50 215 62 5 5 -20
34 -28 33 -3 0 -50 -14 -103 -31z"/>
<path d="M2210 2363 c-57 -21 -180 -77 -180 -82 0 -3 4 -12 9 -20 7 -11 28 -6
114 29 87 36 104 46 100 61 -5 19 -16 22 -43 12z"/>
<path d="M1900 2216 c-36 -24 -76 -55 -89 -70 -23 -25 -24 -27 -8 -43 16 -16
19 -15 49 14 18 17 59 47 90 67 53 33 57 38 46 56 -7 11 -15 20 -18 20 -3 -1
-34 -20 -70 -44z"/>
<path d="M1734 2025 c-8 -43 21 -106 69 -153 33 -32 34 -32 52 -12 17 19 17
21 -24 65 -33 36 -41 52 -41 84 0 26 -5 41 -16 45 -28 11 -33 7 -40 -29z"/>
<path d="M1902 1830 c-6 -11 -12 -22 -12 -25 0 -11 183 -124 192 -119 4 3 12
13 18 23 8 16 -3 27 -82 77 -51 33 -95 60 -98 62 -3 1 -11 -7 -18 -18z"/>
<path d="M863 1766 c-206 -47 -389 -230 -438 -437 -53 -226 32 -435 307 -756
87 -101 198 -207 240 -229 26 -13 30 -12 90 34 35 27 106 96 159 154 298 328
399 562 344 797 -47 197 -205 365 -404 427 -68 22 -224 27 -298 10z m284 -256
c77 -38 144 -111 173 -188 31 -81 25 -205 -14 -280 -35 -70 -95 -128 -165
-161 -47 -22 -70 -26 -146 -26 -76 0 -98 4 -145 26 -69 33 -131 93 -166 161
-39 75 -45 199 -15 279 72 191 295 279 478 189z"/>
<path d="M2144 1675 c-9 -14 -15 -27 -13 -28 2 -2 46 -29 97 -61 88 -54 95
-56 108 -39 7 10 14 23 14 29 0 7 -33 31 -72 55 -40 23 -83 49 -95 56 -20 13
-23 12 -39 -12z"/>
<path d="M2390 1525 c-7 -14 -11 -27 -9 -29 2 -2 42 -31 89 -65 l85 -60 22 21
c12 11 20 25 17 30 -5 8 -180 128 -187 128 -2 0 -10 -11 -17 -25z"/>
<path d="M2622 1357 l-22 -23 31 -30 c17 -16 47 -51 67 -79 20 -27 37 -52 39
-54 4 -6 63 21 63 30 0 14 -94 131 -126 155 l-31 24 -21 -23z"/>
<path d="M2774 1122 c-6 -4 -14 -27 -17 -51 -3 -28 -17 -57 -37 -83 l-32 -39
23 -25 23 -24 29 27 c43 42 67 95 67 153 0 45 -2 50 -22 50 -13 0 -28 -4 -34
-8z"/>
<path d="M2610 901 c-14 -11 -54 -34 -90 -51 -36 -18 -66 -34 -68 -35 -2 -2 4
-19 12 -40 l16 -37 77 42 c43 23 89 49 102 59 24 18 24 18 5 50 -21 36 -21 36
-54 12z"/>
<path d="M2295 748 c-55 -22 -102 -41 -103 -43 -4 -4 18 -75 23 -75 2 0 47 18
101 40 54 22 99 40 101 40 8 0 1 37 -10 57 l-12 21 -100 -40z"/>
<path d="M2019 653 l-106 -34 11 -39 c5 -22 14 -40 18 -40 14 0 203 62 209 68
4 4 -1 23 -10 43 l-16 35 -106 -33z"/>
<path d="M1737 571 l-98 -26 6 -35 c4 -19 10 -39 15 -43 7 -8 182 36 208 52
15 9 -4 81 -21 80 -7 -1 -56 -13 -110 -28z"/>
<path d="M1467 501 l-108 -26 -49 -58 c-28 -32 -50 -60 -50 -62 0 -4 331 83
337 89 4 4 -15 87 -20 85 -1 -1 -51 -13 -110 -28z"/>
</g>
</svg>
