<svg id="_x31__x2C_5" enable-background="new 0 0 36 36" height="512" viewBox="0 0 36 36" width="512" xmlns="http://www.w3.org/2000/svg"><g><path d="m27.623 4.167c-6.917 0-11.667-3.583-15-3.583s-10.333 1.916-10.333 17.249 9.417 17.583 13.083 17.583c17.167.001 24.5-31.249 12.25-31.249z" fill="#efefef"/><g><path d="m2.5 18c-.827 0-1.5-.673-1.5-1.5s.673-1.5 1.5-1.5 1.5.673 1.5 1.5-.673 1.5-1.5 1.5zm0-2c-.275 0-.5.224-.5.5s.225.5.5.5.5-.224.5-.5-.225-.5-.5-.5z" fill="#a4afc1"/></g><g fill="#2fdf84"><path d="m24.25 14v8l-6.25 2.25v-10.25z"/><path d="m18 14v10.25l-6.25-2.25v-8z"/><path d="m18 11.75 6.25 2.25-6.25 2.25-6.25-2.25z"/></g><path d="m20.25 15.25-2.25 1v8l2.25-.81z" fill="#00b871"/><path d="m14 22v-8h-2.25v8l6.25 2.25v-.81z" fill="#00b871"/><path d="m15.5 14 4.625-1.595-2.125-.655-6.25 2.25 6.25 2.25 2.125-.655z" fill="#00b871"/><g><path d="m18 17c-.086 0-.172-.015-.254-.044l-6.25-2.25c-.298-.107-.496-.39-.496-.706s.198-.599.496-.706l6.25-2.25c.164-.06.344-.06.508 0l6.25 2.25c.298.107.496.39.496.706s-.198.599-.496.706l-6.25 2.25c-.082.029-.168.044-.254.044zm-4.036-3 4.036 1.453 4.036-1.453-4.036-1.453z"/></g><g><path d="m18 25c-.086 0-.172-.015-.254-.044l-6.25-2.25c-.298-.107-.496-.39-.496-.706v-8h1.5v7.473l5.5 1.98 5.5-1.98v-7.473h1.5v8c0 .316-.198.599-.496.706l-6.25 2.25c-.082.029-.168.044-.254.044z"/></g><g><path d="m7.5 14h-1.5v-5.25c0-1.517 1.233-2.75 2.75-2.75h5.25v1.5h-5.25c-.689 0-1.25.561-1.25 1.25z"/></g><g><path d="m27.25 30h-5.25v-1.5h5.25c.689 0 1.25-.561 1.25-1.25v-5.25h1.5v5.25c0 1.517-1.233 2.75-2.75 2.75z"/></g><g><path d="m30 14h-1.5v-5.25c0-.689-.561-1.25-1.25-1.25h-5.25v-1.5h5.25c1.517 0 2.75 1.233 2.75 2.75z"/></g><g><path d="m14 30h-5.25c-1.517 0-2.75-1.233-2.75-2.75v-5.25h1.5v5.25c0 .689.561 1.25 1.25 1.25h5.25z"/></g><g><path d="m17.25 16.25h1.5v8h-1.5z"/></g></g></svg>