<svg xmlns="http://www.w3.org/2000/svg" viewBox="0 0 20 20" width="20" height="20">
	<style>
		tspan { white-space:pre }
		.shp0 { fill: #000000 } 
	</style>
	<g id="Layer">
		<g id="Layer">
			<path id="Layer" fill-rule="evenodd" class="shp0" d="M0.02 15.77L0.02 4.22C0.02 3.14 0.89 2.27 1.96 2.27L8.8 2.27C9.14 2.27 9.47 2.36 9.77 2.53C10.06 2.7 10.3 2.94 10.47 3.24L10.81 3.81L18.02 3.81C19.09 3.81 19.97 4.68 19.97 5.75L19.97 15.77C19.97 16.84 19.09 17.71 18.02 17.71L1.96 17.71C0.89 17.71 0.02 16.84 0.02 15.77ZM1.45 15.77C1.45 16.05 1.68 16.28 1.96 16.28L18.02 16.28C18.31 16.28 18.54 16.05 18.54 15.77L18.54 5.75C18.54 5.47 18.31 5.24 18.02 5.24L10.28 5.24C10.1 5.24 9.93 5.15 9.84 4.99L9.24 3.96C9.15 3.8 8.98 3.7 8.8 3.7L1.96 3.7C1.68 3.7 1.45 3.93 1.45 4.22L1.45 15.77Z" />
			<path id="Layer" fill-rule="evenodd" class="shp0" d="M18.02 17.72L1.96 17.72C0.88 17.72 0 16.85 0 15.77L0 4.22C0 3.14 0.88 2.26 1.96 2.26L8.8 2.26C9.14 2.26 9.48 2.35 9.77 2.52C10.07 2.69 10.32 2.93 10.49 3.23L10.82 3.8L18.02 3.8C19.1 3.8 19.98 4.67 19.98 5.75L19.98 15.77C19.98 16.85 19.1 17.72 18.02 17.72ZM1.96 2.29C0.9 2.29 0.03 3.15 0.03 4.22L0.03 15.77C0.03 16.83 0.9 17.69 1.96 17.69L18.02 17.69C19.09 17.69 19.95 16.83 19.95 15.77L19.95 5.75C19.95 4.69 19.09 3.83 18.02 3.83L10.8 3.83L10.46 3.24C10.29 2.95 10.05 2.71 9.76 2.55C9.47 2.38 9.13 2.29 8.8 2.29L1.96 2.29L1.96 2.29ZM18.02 16.29L1.96 16.29C1.67 16.29 1.43 16.06 1.43 15.77L1.43 4.22C1.43 3.92 1.67 3.69 1.96 3.69L8.8 3.69C8.99 3.69 9.16 3.79 9.25 3.95L9.86 4.98C9.95 5.13 10.11 5.23 10.28 5.23L18.02 5.23C18.32 5.23 18.55 5.46 18.55 5.75L18.55 15.77C18.55 16.06 18.32 16.29 18.02 16.29ZM1.96 3.72C1.69 3.72 1.46 3.94 1.46 4.22L1.46 15.77C1.46 16.04 1.69 16.26 1.96 16.26L18.02 16.26C18.3 16.26 18.52 16.04 18.52 15.77L18.52 5.75C18.52 5.48 18.3 5.26 18.02 5.26L10.28 5.26C10.1 5.26 9.92 5.16 9.83 5L9.23 3.97C9.14 3.81 8.97 3.72 8.8 3.72L1.96 3.72Z" />
		</g>
	</g>
	<g id="Layer">
	</g>
	<g id="Layer">
	</g>
	<g id="Layer">
	</g>
	<g id="Layer">
	</g>
	<g id="Layer">
	</g>
	<g id="Layer">
	</g>
	<g id="Layer">
	</g>
	<g id="Layer">
	</g>
	<g id="Layer">
	</g>
	<g id="Layer">
	</g>
	<g id="Layer">
	</g>
	<g id="Layer">
	</g>
	<g id="Layer">
	</g>
	<g id="Layer">
	</g>
	<g id="Layer">
	</g>
</svg>