<?xml version="1.0" encoding="iso-8859-1"?>
<!-- Generator: Adobe Illustrator 19.0.0, SVG Export Plug-In . SVG Version: 6.00 Build 0)  -->
<svg version="1.1" id="Capa_1" xmlns="http://www.w3.org/2000/svg" xmlns:xlink="http://www.w3.org/1999/xlink" x="0px" y="0px"
	 viewBox="0 0 330.947 330.947" style="enable-background:new 0 0 330.947 330.947;" xml:space="preserve">
<g transform="translate(1 1)">
	<polygon style="fill:#518ded;" points="70.693,302.386 4.495,164.473 70.693,26.561 258.254,26.561 324.452,164.473 
		258.254,302.386 hei 	"/>
	<polygon style="fill:#FFA800;" points="258.254,26.561 241.704,26.561 307.902,164.473 241.704,302.386 258.254,302.386 
		324.452,164.473 	"/>
	<polygon style="fill:#FFFFFF;" points="70.693,26.561 87.242,26.561 21.044,164.473 87.242,302.386 70.693,302.386 4.495,164.473 	
		"/>
	<path d="M258.254,307.881H70.693c-2.113,0-4.04-1.212-4.954-3.117L-0.459,166.851c-0.721-1.503-0.721-3.252,0-4.755L65.739,24.184
		c0.914-1.906,2.841-3.118,4.954-3.118h187.561c2.113,0,4.039,1.212,4.954,3.117l66.198,137.912c0.721,1.503,0.721,3.252,0,4.755
		l-66.198,137.912C262.293,306.669,260.367,307.881,258.254,307.881z M74.15,296.891h180.646l63.56-132.417l-63.56-132.418H74.15
		L10.59,164.473L74.15,296.891z"/>
</g>

</svg>
