<svg xmlns="http://www.w3.org/2000/svg" viewBox="0 0 20 20" width="20" height="20">
	<style>
		tspan { white-space:pre }
		.shp0 { fill: #414451 } 
		.shp1 { fill: #575b6d } 
		.shp2 { fill: #e3912d } 
		.shp3 { fill: #eab54e } 
	</style>
	<g id="Layer">
		<g id="icon_28_">
			<path id="Layer" class="shp0" d="M8.1 19.01L8.1 19.18C8.1 19.62 8.45 19.97 8.89 19.97L11.09 19.97C11.52 19.97 11.87 19.62 11.87 19.18L11.87 19.01L8.1 19.01Z" />
			<path id="Layer" class="shp1" d="M6.88 16.15L6.88 18C6.88 18.71 7.46 19.29 8.18 19.29L11.8 19.29C12.51 19.29 13.09 18.71 13.09 18L13.09 16.15L6.88 16.15Z" />
			<path id="Layer" class="shp0" d="M13.11 16.75L6.77 16.75C6.57 16.75 6.4 16.91 6.4 17.11C6.39 17.31 6.55 17.47 6.75 17.48C6.76 17.48 6.76 17.48 6.77 17.48L13.11 17.48C13.31 17.48 13.48 17.32 13.49 17.13C13.49 16.93 13.33 16.76 13.13 16.75C13.13 16.75 13.12 16.75 13.11 16.75Z" />
			<path id="Layer" class="shp0" d="M12.96 18.08L7.01 18.08C6.81 18.09 6.65 18.25 6.66 18.45C6.66 18.65 6.82 18.8 7.01 18.8L12.96 18.8C13.16 18.8 13.32 18.63 13.32 18.43C13.31 18.24 13.16 18.09 12.96 18.08Z" />
			<path id="Layer" class="shp2" d="M17.15 6.45C16.73 2.49 13.18 -0.38 9.22 0.04C5.27 0.46 2.4 4.01 2.82 7.97C2.97 9.35 3.51 10.65 4.38 11.73C5.3 12.88 5.93 14.23 6.24 15.67C6.31 16 6.61 16.24 6.95 16.24L13.04 16.24C13.37 16.24 13.67 16.01 13.74 15.68C14.11 14.18 14.79 12.78 15.73 11.55C16.84 10.09 17.34 8.27 17.15 6.45L17.15 6.45Z" />
			<g id="Layer">
				<path id="Layer" class="shp3" d="M11.87 8.02C11.87 9.06 11.03 9.9 9.99 9.9C8.94 9.9 8.1 9.06 8.1 8.02C8.1 6.97 8.94 6.13 9.99 6.13C11.03 6.13 11.87 6.97 11.87 8.01L11.87 8.02Z" />
				<path id="Layer" class="shp3" d="M9.48 8.6L10.49 8.6L10.49 16.24L9.48 16.24L9.48 8.6Z" />
			</g>
		</g>
	</g>
</svg>