<svg xmlns="http://www.w3.org/2000/svg" viewBox="0 0 20 20" width="20" height="20">
	<style>
		tspan { white-space:pre }
		.shp0 { fill: #000000 } 
		.shp1 { fill: #ffdaa3 } 
		.shp2 { fill: #000000 } 
		.shp3 { fill: #000000 } 
		.shp4 { fill: #ffdaa3 } 
		.shp5 { fill: #000000 } 
	</style>
	<path id="Layer" class="shp0" d="M16.04 15.83L2.29 15.83C1.03 15.83 0 14.81 0 13.54L0 5.63C0 4.36 1.03 3.33 2.29 3.33L16.04 3.33C17.3 3.33 18.33 4.36 18.33 5.63L18.33 5.83L18.53 5.83C19.34 5.83 19.99 6.49 19.99 7.29L19.99 11.88C19.99 12.68 19.34 13.33 18.53 13.33L18.33 13.33L18.33 13.54C18.33 14.81 17.3 15.83 16.04 15.83Z" />
	<path id="Layer" class="shp1" d="M2.29 4.58C1.72 4.58 1.25 5.05 1.25 5.63L1.25 13.54C1.25 14.12 1.72 14.58 2.29 14.58L16.04 14.58C16.62 14.58 17.08 14.12 17.08 13.54L17.08 12.71C17.08 12.36 17.36 12.08 17.71 12.08L18.53 12.08C18.65 12.08 18.74 11.99 18.74 11.88L18.74 7.29C18.74 7.18 18.65 7.08 18.53 7.08L17.71 7.08C17.36 7.08 17.08 6.8 17.08 6.46L17.08 5.63C17.08 5.05 16.62 4.58 16.04 4.58L2.29 4.58Z" />
	<path id="Layer" class="shp2" d="M5.63 13.33C5.28 13.33 5 13.05 5 12.71L5 6.46C5 6.11 5.28 5.83 5.63 5.83C5.97 5.83 6.25 6.11 6.25 6.46L6.25 12.71C6.25 13.05 5.97 13.33 5.63 13.33Z" />
	<path id="Layer" class="shp2" d="M8.13 13.33C7.78 13.33 7.5 13.05 7.5 12.71L7.5 6.46C7.5 6.11 7.78 5.83 8.13 5.83C8.47 5.83 8.75 6.11 8.75 6.46L8.75 12.71C8.75 13.05 8.47 13.33 8.13 13.33Z" />
	<path id="Layer" class="shp3" d="M19.99 9.58L18.74 9.58L18.74 11.88C18.74 11.99 18.65 12.08 18.53 12.08L17.71 12.08C17.36 12.08 17.08 12.36 17.08 12.71L17.08 13.54C17.08 14.12 16.62 14.58 16.04 14.58L2.29 14.58C1.72 14.58 1.25 14.12 1.25 13.54L1.25 9.58L0 9.58L0 13.54C0 14.81 1.03 15.83 2.29 15.83L16.04 15.83C17.3 15.83 18.33 14.81 18.33 13.54L18.33 13.33L18.53 13.33C19.34 13.33 19.99 12.68 19.99 11.88L19.99 9.58Z" />
	<path id="Layer" class="shp4" d="M18.74 9.58L8.75 9.58L8.75 12.71C8.75 13.05 8.47 13.33 8.13 13.33C7.78 13.33 7.5 13.05 7.5 12.71L7.5 9.58L6.25 9.58L6.25 12.71C6.25 13.05 5.97 13.33 5.63 13.33C5.28 13.33 5 13.05 5 12.71L5 9.58L3.75 9.58L3.75 12.71C3.75 13.05 3.47 13.33 3.13 13.33C2.78 13.33 2.5 13.05 2.5 12.71L2.5 9.58L1.25 9.58L1.25 13.54C1.25 14.12 1.72 14.58 2.29 14.58L16.04 14.58C16.62 14.58 17.08 14.12 17.08 13.54L17.08 12.71C17.08 12.36 17.36 12.08 17.71 12.08L18.53 12.08C18.65 12.08 18.74 11.99 18.74 11.88L18.74 9.58Z" />
	<path id="Layer" class="shp2" d="M3.13 13.33C2.78 13.33 2.5 13.05 2.5 12.71L2.5 6.46C2.5 6.11 2.78 5.83 3.13 5.83C3.47 5.83 3.75 6.11 3.75 6.46L3.75 12.71C3.75 13.05 3.47 13.33 3.13 13.33Z" />
	<g id="Layer">
		<path id="Layer" class="shp5" d="M3.13 5.83C2.78 5.83 2.5 6.11 2.5 6.46L2.5 12.71C2.5 13.05 2.78 13.33 3.13 13.33L3.13 5.83Z" />
		<path id="Layer" class="shp5" d="M5.63 5.83C5.28 5.83 5 6.11 5 6.46L5 12.71C5 13.05 5.28 13.33 5.63 13.33L5.63 5.83Z" />
		<path id="Layer" class="shp5" d="M8.13 5.83C7.78 5.83 7.5 6.11 7.5 6.46L7.5 12.71C7.5 13.05 7.78 13.33 8.13 13.33L8.13 5.83Z" />
	</g>
</svg>