<svg xmlns="http://www.w3.org/2000/svg" viewBox="0 0 20 20" width="20" height="20">
	<style>
		tspan { white-space:pre }
		.shp0 { fill: #ffdaa3 } 
		.shp1 { fill: #ffdaa3 } 
		.shp2 { fill: #000000 } 
	</style>
	<path id="Layer" class="shp0" d="M19.4 20L0.6 20C0.27 20 0 19.73 0 19.4L0 14.7C0 14.37 0.27 14.1 0.6 14.1L4.7 14.1L4.7 10C4.7 9.67 4.97 9.4 5.3 9.4L9.4 9.4L9.4 5.3C9.4 4.97 9.67 4.7 10 4.7L14.1 4.7L14.1 0.6C14.1 0.27 14.37 0 14.7 0L19.4 0C19.73 0 20 0.27 20 0.6L20 19.4C20 19.73 19.73 20 19.4 20Z" />
	<path id="Layer" class="shp1" d="M19.4 0L14.7 0C14.37 0 14.1 0.27 14.1 0.6L14.1 4.7L10 4.7C9.67 4.7 9.4 4.97 9.4 5.3L9.4 20L19.4 20C19.73 20 20 19.73 20 19.4C20 19.4 20 19.4 20 19.4L20 0.6C20 0.27 19.73 0 19.4 0Z" />

	<path id="Layer" class="shp0" d="M16.04 15.83L2.29 15.83C1.03 15.83 0 14.81 0 13.54L0 5.63C0 4.36 1.03 3.33 2.29 3.33L16.04 3.33C17.3 3.33 18.33 4.36 18.33 5.63L18.33 5.83L18.53 5.83C19.34 5.83 19.99 6.49 19.99 7.29L19.99 11.88C19.99 12.68 19.34 13.33 18.53 13.33L18.33 13.33L18.33 13.54C18.33 14.81 17.3 15.83 16.04 15.83Z" />

	<g id="Layer">
	</g>
	<g id="Layer">
	</g>
	<g id="Layer">
	</g>
	<g id="Layer">
	</g>
	<g id="Layer">
	</g>
	<g id="Layer">
	</g>
	<g id="Layer">
	</g>
	<g id="Layer">
	</g>
	<g id="Layer">
	</g>
	<g id="Layer">
	</g>
	<g id="Layer">
	</g>
	<g id="Layer">
	</g>
	<g id="Layer">
	</g>
	<g id="Layer">
	</g>
	<g id="Layer">
	</g>
</svg>