<svg xmlns="http://www.w3.org/2000/svg" viewBox="0 0 20 20" width="20" height="20">
	<style>
		tspan { white-space:pre }
		.shp0 { fill: #000000 } 
	</style>
	<g id="Layer">
		<g id="Layer">
			<path id="Layer" class="shp0" d="M5.97 11.66L4.2 11.66C3.96 11.66 3.77 11.85 3.77 12.08L3.77 18.44C3.77 18.67 3.96 18.86 4.2 18.86L5.97 18.86C6.21 18.86 6.4 18.67 6.4 18.44L6.4 12.08C6.4 11.85 6.21 11.66 5.97 11.66Z" />
			<path id="Layer" class="shp0" d="M2.2 15.43L0.43 15.43C0.19 15.43 0 15.62 0 15.86L0 18.44C0 18.67 0.19 18.86 0.43 18.86L2.2 18.86C2.43 18.86 2.62 18.67 2.62 18.44L2.62 15.86C2.62 15.62 2.43 15.43 2.2 15.43Z" />
			<path id="Layer" class="shp0" d="M10.47 8.11L8.69 8.11C8.46 8.11 8.27 8.3 8.27 8.54L8.27 18.44C8.27 18.67 8.46 18.86 8.69 18.86L10.47 18.86C10.7 18.86 10.89 18.67 10.89 18.44L10.89 8.54C10.89 8.3 10.7 8.11 10.47 8.11Z" />
			<path id="Layer" class="shp0" d="M14.96 4.56L13.19 4.56C12.95 4.56 12.76 4.75 12.76 4.99L12.76 18.44C12.76 18.67 12.95 18.86 13.19 18.86L14.96 18.86C15.19 18.86 15.39 18.67 15.39 18.44L15.39 4.99C15.39 4.75 15.19 4.56 14.96 4.56Z" />
			<path id="Layer" class="shp0" d="M19.45 1.02L17.68 1.02C17.44 1.02 17.25 1.21 17.25 1.44L17.25 18.44C17.25 18.67 17.44 18.86 17.68 18.86L19.45 18.86C19.69 18.86 19.88 18.67 19.88 18.44L19.88 1.44C19.88 1.21 19.69 1.02 19.45 1.02Z" />
		</g>
	</g>
	<g id="Layer">
	</g>
	<g id="Layer">
	</g>
	<g id="Layer">
	</g>
	<g id="Layer">
	</g>
	<g id="Layer">
	</g>
	<g id="Layer">
	</g>
	<g id="Layer">
	</g>
	<g id="Layer">
	</g>
	<g id="Layer">
	</g>
	<g id="Layer">
	</g>
	<g id="Layer">
	</g>
	<g id="Layer">
	</g>
	<g id="Layer">
	</g>
	<g id="Layer">
	</g>
	<g id="Layer">
	</g>
</svg>